<?xml version="1.0" encoding="UTF-8" standalone="no"?>
<!DOCTYPE svg PUBLIC "-//W3C//DTD SVG 1.1//EN" "http://www.w3.org/Graphics/SVG/1.1/DTD/svg11.dtd">
<svg width="100%" height="100%" viewBox="0 0 662 1303" version="1.1" xmlns="http://www.w3.org/2000/svg" xmlns:xlink="http://www.w3.org/1999/xlink" xml:space="preserve" xmlns:serif="http://www.serif.com/" style="fill-rule:evenodd;clip-rule:evenodd;stroke-linejoin:round;stroke-miterlimit:2;">
    <g transform="matrix(1,0,0,1,-1560.3,2479.92)">
        <g transform="matrix(1.05539,0,0,1.1003,72.135,-3187.46)">
            <path d="M1570.33,1509.23C1571.25,1507.89 1569.78,1506.75 1567.96,1507.54C1567.14,1507.9 1566.3,1508.27 1565.45,1508.66C1562.74,1509.88 1559.03,1509.6 1556.24,1511.02C1553.6,1512.36 1551.86,1515.41 1549.38,1516.89C1545.83,1519.02 1542.55,1521.27 1539.89,1523.6C1538.08,1525.18 1535.21,1528.75 1531.71,1533.12C1529.24,1536.2 1523.43,1537.46 1520.47,1540.92C1517.35,1544.57 1517.07,1550.41 1513.73,1553.54C1509.95,1557.08 1506.13,1559.98 1502.53,1561.54C1501.01,1562.19 1499.58,1560.72 1501.41,1559.56C1504.8,1557.42 1508.09,1554.57 1511.31,1551.28C1514.33,1548.2 1514.26,1542.51 1517.2,1538.86C1519.8,1535.63 1525.41,1534.48 1528.01,1531.12C1530.19,1528.29 1532.38,1525.47 1534.59,1522.74C1535.67,1521.4 1534.15,1519.25 1532.3,1519.59C1529.92,1520.03 1527.53,1520.55 1525.2,1521.27C1520.28,1522.8 1516.33,1521.42 1513.09,1522.67C1507.69,1524.74 1504.72,1529 1500.68,1530.81C1497.52,1532.23 1494.91,1533.38 1493.06,1533.96C1491.01,1534.62 1490.38,1532.66 1491.69,1532.11C1493.98,1531.15 1496.61,1529.77 1499.84,1528.15C1503.44,1526.35 1505.99,1522.09 1511.44,1519.95C1514.68,1518.68 1520.12,1519.55 1524.22,1518.3C1529.95,1516.56 1536.6,1514.89 1544.36,1513.44C1545.05,1513.31 1546.15,1512.9 1547.57,1512.27C1549.82,1511.27 1551.98,1508.1 1555.45,1506.23C1557.67,1505.04 1560.95,1505.33 1563.43,1503.93C1568.81,1500.9 1574.57,1497.54 1579.73,1494.48C1582.05,1493.1 1586.8,1492.62 1588.78,1491.42C1592.39,1489.24 1593.21,1486.55 1596.61,1484.8C1598.71,1483.71 1600.82,1482.66 1603.01,1481.61C1604.78,1480.75 1604.61,1478.31 1602.71,1478C1598.52,1477.32 1594.48,1476.74 1590.56,1476.26C1582.68,1475.28 1573.38,1478.15 1566.53,1477.87C1557.19,1477.48 1550.74,1474.22 1543.15,1474.89C1524.48,1476.53 1510.85,1480.95 1500.84,1486.12C1495.75,1488.74 1493.74,1492.56 1490.33,1495.3C1486.55,1498.34 1481.53,1500.28 1479.32,1502.76C1478.59,1503.58 1477.93,1504.35 1477.34,1505.06C1473.66,1509.43 1469.44,1517.79 1462.52,1526.86C1458.95,1531.54 1453.33,1533.73 1448.03,1538.34C1443.58,1542.21 1439.75,1548.58 1433.7,1551.82C1429.73,1553.95 1425.37,1555.89 1420.58,1557.57C1419.52,1557.94 1418.76,1556.43 1419.64,1555.95C1424.14,1553.46 1428.14,1551.13 1431.77,1548.85C1437.55,1545.2 1441.02,1539.01 1445.27,1535.24C1449.79,1531.22 1455.01,1529.59 1458.78,1524.48C1460.85,1521.68 1462.87,1518.65 1464.95,1515.31C1465.91,1513.76 1464.36,1511.95 1462.63,1512.65C1460.06,1513.68 1457.53,1514.6 1455.06,1515.44C1449.71,1517.26 1443.77,1516.55 1438.97,1517.67C1433.39,1518.98 1429.07,1522.02 1424.44,1522.78C1419.53,1523.58 1415.22,1524.19 1411.63,1524.86C1410.19,1525.13 1409.28,1523.63 1410.97,1522.96C1413.77,1521.87 1418.29,1520.95 1423.84,1519.84C1428.41,1518.92 1432.85,1515.77 1438.45,1514.41C1443.12,1513.27 1448.84,1514.03 1453.74,1512.33C1459.38,1510.38 1465.03,1507.97 1470.37,1504.95C1471.46,1504.33 1472.76,1502.09 1475.15,1499C1477.13,1496.44 1482.02,1494.3 1486,1491.01C1489.45,1488.16 1491.7,1484.2 1497.37,1481.42C1500.14,1480.06 1503.21,1478.75 1506.62,1477.51C1508.2,1476.93 1508.72,1475.41 1506.56,1475.23C1502.85,1474.9 1497.78,1474.68 1491.81,1474.79C1484.76,1474.93 1478.11,1477.61 1469.27,1479.11C1464.15,1479.98 1457.19,1479.07 1451.86,1480.61C1444.4,1482.77 1436.87,1485.65 1429.65,1489.49C1428.51,1490.1 1428.34,1487.95 1429.73,1487.04C1436.26,1482.76 1443.28,1479.53 1450.44,1477.11C1455.82,1475.29 1462.94,1476 1468.34,1474.99C1476.97,1473.38 1483.77,1470.59 1491.43,1470.36C1507.31,1469.87 1519.74,1471.44 1523.19,1471.26C1525.48,1471.13 1531.59,1469.87 1543.08,1469.28C1549.69,1468.94 1556.13,1472.29 1566.61,1472.74C1573.12,1473.03 1582.4,1470.05 1590.59,1470.86C1598.89,1471.67 1608.08,1472.79 1618.25,1474.31C1620.23,1474.61 1625.4,1473.62 1631.92,1471.96C1636.48,1470.8 1640.81,1467.38 1646.07,1465.78C1651.69,1464.07 1658.24,1464.16 1663.19,1462.44C1668.76,1460.51 1673.42,1458.73 1676.12,1457.47C1677.32,1456.91 1679.22,1455.38 1681.57,1453.14C1683.84,1450.98 1684.64,1446.23 1687.49,1442.99C1690.43,1439.65 1698.29,1438.97 1699.99,1406.86C1702.31,1362.82 1704.23,1159.88 1703.81,1104.33C1703.52,1067.43 1688.5,1035.44 1675.35,1029.97C1668.62,1027.17 1659.44,1024.63 1655.38,1025.13C1634.65,1027.68 1614.46,1041.58 1613.12,1044.96C1609.53,1054.05 1611.09,1069.57 1614.85,1083.91C1615.12,1084.93 1613.37,1085.65 1612.82,1084.33C1609.25,1075.69 1605.97,1064.16 1607.53,1051.38C1607.67,1050.23 1606.14,1049.11 1605.16,1049.78C1597.9,1054.73 1590.38,1061.96 1587.4,1065.26C1576.76,1077.04 1570.85,1100.73 1570.27,1121.37C1570.24,1122.52 1568.52,1122.74 1568.39,1121.55C1567.69,1115.41 1567.3,1109 1569.19,1099.86C1569.4,1098.87 1568.19,1098.55 1567.28,1099.44C1559.2,1107.3 1547.92,1115.47 1535.54,1121.5C1534.48,1122.01 1533.69,1120.66 1534.75,1119.9C1547.65,1110.6 1561.47,1102.89 1570.39,1090.14C1571.56,1088.47 1573.44,1079.91 1579.46,1069.61C1579.98,1068.73 1578.7,1067.69 1577.47,1068.23C1566.64,1072.94 1554.63,1084.96 1547.72,1088.22C1546.65,1088.73 1545.93,1087.19 1546.9,1086.59C1553.74,1082.35 1560.24,1072.92 1583.14,1061.63C1587.35,1059.56 1602.15,1037.58 1637.21,1023.93C1638.67,1023.36 1638.29,1022.26 1636.57,1022.25C1615.1,1022.12 1593.2,1021.57 1572.7,1029.27C1558.32,1034.66 1545.2,1045.49 1534.82,1056.19C1522.51,1068.88 1513.22,1094.08 1482.96,1104.31C1480.72,1105.07 1480.25,1103.12 1482.13,1102.17C1500.84,1092.72 1505.03,1089.54 1519.01,1068.25C1519.64,1067.3 1518.49,1066.35 1517.2,1066.85C1501.04,1073.13 1479.83,1076.05 1464.75,1075.39C1462.27,1075.28 1463.19,1073.7 1464.88,1073.56C1483.9,1072.05 1509.38,1068.7 1525.26,1056.59C1530.49,1052.6 1534.4,1047.48 1539.09,1042.98C1543.3,1038.95 1547.26,1035.42 1552.86,1032.19C1549.8,1031.68 1535.69,1028.9 1532.84,1028.55C1522.66,1027.31 1498.33,1026.23 1494.78,1027.91C1480.29,1034.79 1459.64,1042.52 1447.49,1044.39C1445.37,1044.72 1444.6,1042.59 1446.76,1042.12C1456.58,1040.01 1474.74,1032.75 1483.79,1028.86C1486.01,1027.91 1484.8,1026.88 1482.97,1026.88C1458.08,1026.94 1437.92,1019.48 1429.35,1010.29C1428.65,1009.54 1429.47,1008.42 1430.37,1009.03C1451.88,1023.59 1477.34,1023.09 1494.2,1023.09C1500.43,1023.09 1513.02,1022.56 1524.85,1023.5C1526.63,1023.64 1526.87,1022.74 1525.25,1022.08C1492.9,1008.82 1464.52,990.475 1461.61,988.782C1460.6,988.197 1461.7,986.603 1462.89,987.12C1478.87,994.07 1530.23,1025.7 1560.04,1025.54C1564.13,1025.51 1572.86,1021.35 1585.77,1018.43C1587,1018.15 1587.32,1016.57 1586.29,1016.09C1574.24,1010.39 1570.78,1008.34 1557.05,999.151C1539.21,987.207 1512.46,985.653 1504.49,981.078C1503.24,980.359 1504.09,978.791 1505.3,979.303C1512.87,982.51 1536.69,984.927 1552.7,992.302C1553.95,992.881 1555.36,992.154 1554.79,990.934C1552.39,985.812 1549.13,978.529 1548.44,975.934C1547.98,974.193 1549.67,973.645 1550.27,975.104C1551.76,978.663 1556.43,989.691 1561.75,997.01C1564.2,1000.37 1589.42,1015.34 1601.76,1015.63C1604.91,1015.71 1610.42,1015.35 1615.23,1015.06C1616.67,1014.97 1617.31,1013.71 1616.2,1013.02C1606.48,1007.01 1590.85,994.621 1586.76,986.503C1586.08,985.146 1587.11,983.689 1588.23,985.032C1594.49,992.556 1614.27,1009.64 1628.38,1014.58C1632.39,1015.98 1656.83,1013.6 1681.5,1024.8C1682.61,1025.31 1683.04,1024.76 1682.14,1023.95C1637.31,983.631 1592.24,963.171 1580.46,958.908C1565.84,953.612 1524.4,948.742 1519.22,948.634C1505.91,948.356 1488.88,956.839 1483.31,958.26C1476.38,960.026 1468.11,975.179 1426.92,975.931C1425.47,975.958 1425.53,973.917 1427.47,973.622C1449.68,970.235 1458.68,969.972 1469.48,961.997C1470.24,961.44 1469.7,960.425 1468.66,960.499C1448.1,961.966 1428.63,954.852 1420.8,947.223C1419.91,946.353 1420.63,944.528 1421.82,945.354C1432.5,952.761 1452.58,959.744 1474.37,956.233C1484.72,954.564 1494.22,949.133 1504.33,946.092C1505.26,945.812 1505.29,944.536 1504.37,944.153C1497.81,941.452 1491.15,938.99 1484.72,936.003C1479.1,933.394 1473.52,929.935 1467.46,928.348C1462.01,926.918 1456.58,927.576 1451.08,926.752C1438.45,924.861 1419.58,912.34 1415.82,908.223C1415.55,907.926 1416.22,907.05 1416.57,907.258C1438.22,920.187 1446.13,924.854 1463.13,924.693C1463.97,924.685 1464.71,923.406 1464.17,922.737C1453.12,909.269 1432.74,881.48 1426.91,873.031C1425.92,871.594 1427.78,870.451 1428.65,871.681C1435.42,881.235 1458.38,912.971 1473.93,925.695C1478.01,929.033 1502.07,939.478 1518.25,941.884C1523.35,942.643 1550.18,945.892 1561.12,947.152C1562.43,947.304 1563.39,946.06 1562.95,945.309C1557.84,936.737 1553.65,926.347 1550.65,923.786C1542.33,916.686 1485.36,910.294 1471.17,889.241C1470.8,888.689 1472.31,887.572 1472.8,888.025C1493.28,906.898 1526.83,910.128 1543.11,914.619C1544.29,914.945 1545.49,913.876 1545,912.984C1538.63,901.187 1528.08,887.571 1525.09,885.275C1517.1,879.138 1492.85,870.804 1483.42,867.522C1463.68,860.656 1446.55,840.206 1439.31,834.281C1437.9,833.127 1439.4,831.85 1440.72,832.793C1459.57,846.233 1459.99,852.039 1484.72,863.053C1493.63,867.024 1507.76,871.186 1515.9,874.489C1517.27,875.042 1518.19,874.299 1517.19,872.944C1508.33,860.972 1480.56,825.876 1457.98,803.008C1456.91,801.928 1458.96,800.752 1460.14,801.743C1476.64,815.627 1507.49,850.144 1532.75,884.165C1554.62,913.611 1569.13,943.252 1574.76,949.177C1576.86,951.386 1587.5,954.473 1603.91,962.486C1605.08,963.056 1606.09,962.293 1605.32,961.203C1601.67,956.055 1597.13,949.43 1593.04,941.539C1589.96,935.615 1587.74,928.491 1585.66,924.031C1584.37,921.252 1557.66,878.698 1555.37,874.618C1554.61,873.269 1556.28,872.055 1557.17,873.335C1559.28,876.332 1569.27,892.347 1574.85,901.366C1575.76,902.82 1576.67,902.268 1576.44,900.743C1574.86,890.175 1573.79,876.728 1573.72,873.538C1573.7,872.249 1575.37,872.004 1575.67,873.408C1576.94,879.393 1576.52,895.408 1580.45,908.919C1580.77,909.992 1583.18,914.425 1585.53,917.941C1586.16,918.887 1587.42,918.332 1587.49,917.27C1588.22,906.708 1591.98,897.525 1595.35,891.791C1596.03,890.624 1598.28,891.524 1597.41,892.826C1594.49,897.182 1589.04,910.894 1590.45,924.371C1591.07,930.307 1604.76,954.897 1616.71,967.418C1620.46,971.357 1640.58,982.497 1656.32,993.332C1657.52,994.153 1658.39,993.469 1657.68,992.02C1653.02,982.502 1648.89,965.529 1650.01,958.393C1650.37,956.113 1652.91,956.048 1652.92,958.556C1652.96,966.76 1658.76,988.81 1667.99,1000.75C1671.63,1005.46 1687.04,1018.61 1695.9,1028.06C1703.72,1036.39 1709.62,1045.7 1715.24,1055.37C1716.04,1056.74 1717.62,1056.19 1717.63,1054.54C1717.73,1029.27 1718.26,998.535 1716.72,992.538C1714.07,982.297 1700.37,956.51 1696.59,953.228C1684.02,942.335 1661.59,935.01 1646.02,929.554C1639.36,927.218 1624.34,920.204 1620.98,917.105C1619.25,915.506 1620.94,913.227 1622.73,914.705C1631.84,922.236 1665.95,930.648 1687.83,942.983C1689.18,943.746 1689.96,942.691 1689.01,941.421C1683.54,934.097 1676.8,927.674 1670.17,921.324C1656.1,907.82 1601.5,865.131 1599.26,864.03C1591.4,860.156 1572.43,847.788 1568.39,847.479C1545.03,845.697 1533.81,836.48 1529.56,831.005C1528.85,830.088 1530.16,828.866 1530.99,829.601C1535.77,833.833 1547.5,841.945 1559.22,842.703C1560.26,842.77 1560.58,841.473 1559.72,840.836C1541.7,827.397 1533.63,810.71 1530.42,808.943C1505.22,795.066 1488.71,781.119 1478.25,770.206C1477.38,769.299 1478.57,768.154 1479.54,769.085C1489.56,778.67 1509.89,793.137 1527.03,802.107C1528.18,802.709 1529.74,801.459 1529.4,800.254C1525.66,786.927 1522.42,772.294 1516.4,759.983C1510.15,747.196 1500.21,740.283 1497.65,735.989C1497.16,735.159 1498.32,734.372 1499.23,735.298C1502.83,738.944 1513.64,747.097 1519.66,757.501C1524.66,766.141 1533.07,797.985 1535.88,803.835C1547.29,827.657 1568.61,841.482 1591.7,853.386C1592.84,853.972 1593.85,853.245 1593.24,852.289C1586.45,841.661 1581.8,830.011 1578.65,817.9C1576.19,808.46 1573.71,791.719 1572.52,790.18C1565.27,780.864 1547.2,769.039 1541.7,765.84C1540.96,765.407 1541.57,764.092 1542.5,764.56C1550.59,768.663 1564.44,778.071 1571.02,784.648C1571.65,785.281 1572.2,784.852 1571.94,784.066C1563.74,758.609 1553.99,745.142 1524.41,723.844C1523.62,723.275 1524.58,722.319 1525.26,722.751C1544.84,735.186 1571.82,755.46 1577.1,794.559C1577.42,796.963 1585.29,839.176 1608.22,861.752C1610.59,864.086 1624.36,875.498 1634.29,883.32C1635.38,884.178 1636.37,883.535 1635.9,882.336C1630.32,868.1 1628.78,845.868 1628.09,843.961C1623.17,830.281 1609.91,821.941 1606.05,817.612C1605.15,816.61 1606.46,815.608 1607.2,816.246C1610.76,819.295 1621.23,826.649 1627.12,835.746C1627.72,836.675 1628.66,836.325 1628.47,835.035C1626.21,820.154 1611.82,791.972 1605.48,783.15C1604.72,782.087 1606.21,781.439 1606.99,782.298C1615.37,791.54 1633.7,822.553 1632.59,845.324C1632.45,848.01 1636.18,876.338 1644.21,889.791C1645.15,891.358 1662.77,904.137 1677.92,918.07C1679.09,919.149 1680.65,918.579 1680.31,917.183C1679.57,914.18 1678.97,911.12 1678.83,908.085C1678.49,900.66 1678.85,894.087 1677.29,886.573C1674.9,875.041 1658.51,863.07 1654.6,858.477C1653.43,857.099 1655.26,856.08 1656.25,857.31C1659.62,861.521 1673.28,870.469 1678.32,880.09C1678.92,881.241 1679.67,880.891 1679.61,879.589C1678.27,851.678 1664.85,834.301 1652.92,822.865C1651.62,821.614 1652.92,820.351 1654.37,821.367C1671.39,833.336 1686.09,861.414 1682.79,890.478C1682.68,891.504 1681.74,907.81 1685.46,919.669C1688.54,929.469 1696.52,936.386 1702.58,944.49C1709.22,953.364 1713.87,962.705 1718.48,972.622C1718.49,950.295 1720.96,909.067 1721.34,886.67C1721.52,875.945 1706,838.768 1672.68,800.525C1662.3,788.609 1617.56,754.447 1613.68,753.478C1574.76,743.752 1554.31,726.306 1551.14,695.447C1551.03,694.409 1552.63,694.45 1552.86,695.447C1559.29,722.835 1574.16,738.962 1604.79,745.696C1605.99,745.96 1607.07,744.415 1606.44,743.44C1598.41,730.999 1597.63,722.956 1595.75,721.332C1584.75,711.815 1579.42,705.591 1576.15,697.93C1575.76,697.011 1577.13,696.307 1577.61,697.169C1581.19,703.603 1585.83,708.912 1592.7,713.098C1593.48,713.572 1594.91,712.664 1594.81,711.68C1593.64,699.418 1594.08,679.677 1594.27,673.296C1594.3,672.32 1595.81,672.135 1595.99,673.108C1598.42,686.18 1594.99,731.184 1619.43,749.227C1622.64,751.597 1635.36,760.627 1645.51,769.163C1646.61,770.091 1647.38,769.45 1646.77,767.914C1640.81,752.796 1638.39,719.428 1623.59,702.066C1623.01,701.382 1624.04,700.388 1624.97,701.182C1638.09,712.331 1644.19,738.567 1646.71,749.257C1647.17,751.203 1648.22,750.678 1648.61,749.196C1650.6,741.728 1654.93,732.424 1656.36,729.084C1656.86,727.904 1658.46,728.474 1658.1,729.37C1656.22,733.999 1649.98,748.217 1650.37,758.329C1650.69,766.529 1656,775.353 1662.02,782.071C1663.52,783.737 1669.25,788.447 1673.64,792.33C1674.75,793.316 1676.11,792.715 1675.92,791.218C1674.76,781.873 1675.56,765.029 1678.11,757.378C1678.59,755.94 1680.95,755.741 1680.53,757.501C1678.43,766.074 1677.93,787.2 1682.27,800.211C1683.25,803.151 1705.26,824.88 1722.14,856.847C1722.88,858.267 1724.34,857.865 1724.31,856.097C1724.15,844.285 1723.47,829.352 1722.71,818.728C1720.48,787.332 1709.14,753.557 1689.25,728.543C1674.92,710.515 1656.75,699.856 1638.96,685.457C1633.39,680.953 1624.44,671.814 1621.53,663.527C1621.32,662.928 1622.3,662.579 1622.54,663.05C1625.6,669.026 1640.82,683.345 1652.44,690.067C1653.17,690.493 1653.47,689.896 1652.91,689.162C1649.01,684.052 1646,678.12 1643.61,672.281C1642.71,670.085 1640.92,665.07 1640.58,663.558C1640.4,662.795 1641.43,662.459 1641.71,663.179C1643.85,668.741 1652.09,685.177 1659.89,693.916C1662.24,696.548 1680.89,706.303 1699.5,730.198C1694.51,708.895 1690.62,687.553 1689.06,682.3C1684.27,666.111 1671.43,658.947 1664.86,653.072C1664.41,652.672 1665.06,651.997 1665.71,652.373C1675.28,657.91 1684.07,665.656 1688.74,673.296C1689.2,674.063 1690.03,673.661 1690.06,672.604C1690.32,663.077 1691.66,649.048 1692.08,644.288C1692.23,642.637 1694.47,642.695 1694.47,644.037C1694.46,645.821 1691.87,673.282 1693.22,681.089C1693.75,684.104 1697.28,697.799 1701.94,716.265C1702.27,717.577 1703.51,717.533 1703.83,716.152C1705.57,708.48 1708.05,700.605 1711.38,693.59C1718.15,679.336 1721.74,663.852 1719.34,652.423C1718.89,650.286 1721.56,650.011 1722.18,652.43C1724.12,660.046 1724.57,672.491 1714.8,696.236C1710.45,706.824 1706.83,721.357 1707.49,729.549C1707.94,735.231 1718.49,746.657 1727.72,792.149C1731.47,779.714 1736.49,771.055 1741.77,759.156C1745.61,750.484 1753.13,729.387 1752.54,725.62C1749.31,704.831 1741.44,694.119 1740.75,692.159C1740.25,690.737 1741.86,690.274 1742.63,691.31C1746.96,697.117 1751.18,706.341 1754.05,717.454C1754.28,718.347 1755.15,718.365 1755.36,717.478C1761.86,689.408 1760.94,670.725 1755.27,654.215C1755,653.409 1756.06,653.137 1756.52,653.854C1759.35,658.276 1762.4,667.656 1763.38,677.61C1763.47,678.513 1764.52,678.52 1765.11,677.41C1769.01,670.065 1776.43,657.423 1782.88,653.184C1783.88,652.525 1785.26,653.377 1784.42,654.296C1774.77,664.858 1771.07,671.849 1764.21,687.572C1763.17,689.964 1764.3,709.9 1755.47,738.352C1755.14,739.407 1755.88,740.217 1756.89,739.274C1763.86,732.764 1779.09,718.44 1781.39,715.34C1796.36,695.193 1801.15,682.869 1804.02,664.021C1804.17,663.029 1805.31,663.084 1805.29,663.977C1804.96,678.455 1801.57,690.477 1791.34,706.316C1790.66,707.364 1791.05,707.912 1792.14,706.887C1804.88,694.872 1831.76,663.643 1832.4,662.392C1832.83,661.566 1834.23,662.168 1833.64,663.04C1820.55,682.569 1801.15,702.176 1785.01,718.648C1767.72,736.281 1755.43,747.056 1751.88,753.946C1745.81,765.721 1735.44,789.138 1732.42,801.874C1730.72,809.05 1734.58,843.13 1732.63,886.462C1732.53,888.668 1733.81,889.372 1734.74,887.407C1745.07,865.705 1768.42,840.302 1770.91,835.869C1778.54,822.284 1778.71,811.039 1778.16,807.047C1777.03,798.879 1769.7,784.972 1766.48,781.024C1765.98,780.409 1767.19,779.705 1767.87,780.374C1770.58,783.023 1775.43,791.474 1778.16,797.918C1778.83,799.498 1779.96,799.165 1780.09,797.428C1781.02,785.385 1782.81,766.587 1791.8,753.364C1792.39,752.49 1793.88,752.84 1793.34,754.055C1780.12,784.002 1788.26,806.181 1781.82,824.389C1781.44,825.481 1781.88,826.302 1782.57,825.645C1802.17,806.974 1821.66,790.174 1822.98,786.991C1829.61,770.994 1823.6,752.354 1810.97,738.055C1810.1,737.068 1811.35,736.304 1812.09,737.04C1814.43,739.338 1818.1,743.203 1820.88,747.358C1821.38,748.097 1822.3,747.929 1822.35,747.04C1822.99,736.903 1827.48,722.353 1834.07,716.959C1834.67,716.467 1835.6,716.978 1835.01,717.65C1830.56,722.71 1823.13,740.12 1825.1,753.967C1825.69,758.133 1830.66,766.1 1829.03,779.755C1828.91,780.781 1830.11,781.437 1830.87,780.693C1867.7,744.578 1867.26,712.279 1858.9,673.572C1858.7,672.675 1859.75,672.494 1859.94,673.108C1861.12,676.741 1864.46,687.687 1865.27,695.447C1866.32,705.552 1866.92,717.679 1864.94,728.016C1864.75,729.018 1866.17,729.52 1867.28,728.836C1878.79,721.684 1889.73,708.687 1896.74,699.498C1897.42,698.608 1898.59,699.339 1898.02,700.307C1890.95,712.468 1876.6,726.957 1863.77,736.504C1861.35,738.301 1859.85,761.247 1813.92,805.782C1812.9,806.777 1813.23,807.758 1814.56,807.237C1824.64,803.291 1838.28,799.356 1849.14,794.996C1860.24,790.538 1868.33,785.341 1868.73,784.517C1876.57,768.183 1877.3,753.387 1878.06,745.918C1878.11,745.44 1879.02,745.416 1879.03,745.953C1879.36,757.23 1878.25,766.859 1873.66,779.518C1873.31,780.505 1874.3,781.215 1875.34,780.472C1883.9,774.402 1898.88,765.098 1900.56,763.104C1911.04,750.646 1919.24,733.432 1924.17,714.451C1924.37,713.687 1925.48,713.771 1925.36,714.558C1923.44,727.881 1916.35,745.563 1907.15,758.497C1906.38,759.579 1906.81,760.738 1907.81,760.289C1923.39,753.259 1937.66,746.222 1950.52,737.644C1951.18,737.2 1952.31,738.146 1951.42,738.81C1937.84,748.866 1922.24,755.987 1907.39,763.772C1887.04,774.439 1875.47,788.473 1850.74,798.543C1836.39,804.383 1813.43,811.4 1806.06,816.264C1791.15,826.103 1776.61,840.538 1764.63,856.017C1751.99,872.342 1741.52,889.798 1736.49,908.085C1730.25,930.787 1730.8,998.111 1731.83,1014.9C1731.95,1016.9 1733.66,1016.73 1734.5,1015.77C1742.43,1006.81 1756.71,996.54 1758.2,993.891C1770.37,972.21 1771.31,944.521 1760.12,925.963C1759.26,924.544 1761.24,923.825 1762.16,924.787C1773.57,936.765 1773.09,958.662 1772.27,968.101C1772.17,969.26 1772.84,969.205 1773.25,968.329C1786.3,940.9 1790.3,918.894 1790,914.8C1788.87,899.51 1777.61,885.43 1773.68,880.782C1773.21,880.22 1774.13,879.365 1774.85,879.837C1779.4,882.795 1787.61,895.021 1791.26,904.642C1791.52,905.31 1792.06,905.093 1792.12,904.342C1794.01,879.384 1799.83,858.924 1804.71,848.469C1805.13,847.573 1806.77,847.67 1806.46,848.514C1802.81,858.659 1800.64,868.079 1798.26,882.291C1798.15,882.931 1798.96,883.152 1799.51,882.613C1806.58,875.71 1817.59,869.428 1819.57,867.227C1829.5,856.188 1844.94,829.425 1849.29,823.757C1849.81,823.087 1850.69,823.444 1850.66,824.042C1850.65,824.179 1832.93,854.045 1826.01,863.521C1825.42,864.319 1826.04,864.729 1826.9,864.357C1832.44,861.955 1840.38,859.355 1849.93,858.684C1850.85,858.619 1851.14,859.753 1850.44,859.874C1835.76,862.403 1815.68,868.591 1798.61,888.816C1798.51,888.927 1798.42,889.039 1798.33,889.151C1797.44,890.215 1795.87,909.092 1794.07,922.3C1793.97,923.066 1794.88,923.334 1795.5,922.706C1802.44,915.762 1814.66,906.881 1822.85,903.949C1823.76,903.623 1824.63,904.652 1823.76,905.152C1815.18,910.082 1800.67,920.452 1793.32,930.862C1791.46,933.495 1787.9,953.538 1774.59,981.405C1774.06,982.531 1774.85,983.438 1775.91,982.741C1784.68,976.984 1797.38,971.196 1798.85,969.767C1824.73,944.558 1835.13,931.772 1850.75,913.445C1871.99,888.523 1878,810.729 1899.52,786.805C1900.35,785.876 1901.86,786.34 1901.35,787.287C1893.77,801.265 1889.56,813.424 1885.49,829.898C1885.25,830.892 1886.63,831.817 1887.58,831.234C1911.26,816.577 1935.73,789.797 1950.55,769.744C1951.32,768.693 1952.62,769.652 1952.18,770.359C1939.39,790.953 1915.24,819.584 1885.27,837.319C1880.57,840.098 1876.08,879.359 1864.04,902.293C1863.28,903.742 1864.12,904.442 1866,903.149C1875.57,896.573 1894.63,885.743 1895.65,884.39C1904.64,872.43 1907.54,862.084 1908.18,849.286C1908.24,848.16 1909.95,848.192 1909.98,849.341C1910.18,860.298 1907.9,870.624 1902.05,879.822C1901.41,880.824 1902.39,881.668 1903.59,881.095C1916.55,874.886 1929.51,867.831 1930.85,866.572C1942.08,856.019 1949.93,841.083 1953.8,829.484C1958.36,815.815 1959.81,807.687 1964.54,794.073C1966.59,788.198 1973.13,773.674 1974.36,770.66C1974.77,769.667 1975.8,770.282 1975.54,770.957C1973.6,775.993 1969.47,786.665 1967,794.709C1964.02,804.451 1961.06,820.568 1957.62,829.408C1957.29,830.273 1958.54,831.11 1959.49,830.689C1981.59,820.87 1988.07,813.47 1996.04,798.48C1996.6,797.433 1997.54,798.264 1997.2,799.275C1991.97,814.875 1978.89,826.497 1956.31,835.114C1954.57,835.781 1954.67,845.324 1941.21,861.478C1940.34,862.523 1941.08,863.353 1942.88,862.7C1949.25,860.387 1959.29,858.326 1970,857.442C1993.92,855.467 2005.14,841.847 2011.87,838.828C2012.76,838.431 2013.57,839.428 2012.68,840.072C2009.11,842.685 1998.33,852.142 1991.06,855.132C1980.23,859.588 1971.64,860.607 1958.28,862.931C1950.27,864.324 1942.68,866.398 1934.99,870.741C1926.62,875.465 1875.38,902.726 1860.81,915.606C1856.41,919.488 1839.62,941.838 1818.49,963.717C1817.75,964.485 1818.52,965.653 1819.81,965.485C1826.57,964.607 1835.62,963.994 1837.87,963.518C1855.96,959.701 1880.95,949.87 1881.81,948.846C1893.14,935.417 1895.27,925.532 1899.18,911.956C1899.42,911.144 1900.83,911.605 1900.63,912.568C1897.38,927.866 1895.57,933.518 1888.59,945.236C1888.26,945.8 1889.05,946.244 1889.78,945.875C1912.48,934.505 1926.88,920.457 1943.08,896.752C1943.45,896.206 1944.76,896.828 1944.45,897.42C1927.64,929.542 1901.36,950.21 1855.18,965.353C1870.78,965.288 1895.81,969.642 1898.91,969.129C1931.52,963.748 1962.47,945.87 1973.58,922.415C1975.62,918.104 1981.18,880.208 1981.56,876.717C1981.62,876.093 1982.9,876.415 1982.85,876.912C1982.6,879.659 1979.09,910.537 1977.29,918.77C1977.22,919.096 1977.64,919.321 1977.94,919.106C1989.14,911.033 2010.97,898.617 2021.22,871.063C2021.58,870.092 2022.94,870.479 2022.57,871.543C2015.93,890.489 2007.42,900.428 1985.35,916.285C1984.86,916.637 1984.93,916.794 1985.51,916.538C1995.58,912.079 2014.22,911.831 2034.87,902.264C2035.89,901.793 2036.74,902.809 2035.55,903.383C2008.43,916.524 1994.54,912.074 1980.8,921.644C1973.88,926.465 1964.87,956.164 1908.84,971.737C1908.01,971.967 1907.81,972.596 1908.75,972.75C1918.86,974.418 1942.5,980.875 1945.83,980.352C1992.81,972.951 2017.2,948.652 2030.97,941.271C2031.52,940.976 2032.11,941.676 2031.6,942.008C2023.52,947.247 2014.4,957.346 1988.51,970.21C1987.71,970.608 1987.68,971.429 1988.51,971.458C1996.71,971.751 2005.46,973.315 2013.49,972.478C2018.37,971.969 2027.47,968.161 2030.26,967.228C2031.26,966.897 2031.65,968.184 2030.74,968.485C2027.86,969.436 2019.36,973.52 2013.49,974.132C2003.8,975.142 1992.3,973.669 1982.57,974.183C1979.25,974.358 1968.31,980.338 1954.49,983.459C1953.75,983.625 1953.66,984.305 1954.32,984.498C1968.05,988.476 1972.59,994.131 1984.61,998.107C1993.77,1001.13 2012.79,1000.06 2017.43,999.808C2018.74,999.737 2018.59,1001.66 2017.18,1001.75C2011.5,1002.08 1993.95,1003.86 1983.3,1000.46C1972.07,996.874 1962.08,991.035 1950.52,988.237C1806.77,953.443 1787.02,982.839 1739.4,1027.97C1732.77,1034.25 1735.27,1059.96 1735.37,1068.12C1735.39,1069.48 1736.81,1069.75 1737.52,1068.55C1750.04,1047.25 1770.33,1037 1794.63,1030.36C1802.24,1028.28 1816.44,1016.44 1827.62,994.252C1828.12,993.259 1830.01,993.625 1829.54,995.005C1825.01,1008.3 1815.3,1021.56 1811.61,1025.83C1811.17,1026.34 1811.67,1026.68 1812.29,1026.54C1817.9,1025.22 1827.2,1023.54 1834.46,1022.21C1841.2,1020.97 1851.38,1016.4 1871.91,992.218C1872.83,991.14 1874.39,992.168 1873.67,993.333C1867.92,1002.56 1855.25,1015.45 1848.65,1020.44C1848.15,1020.82 1848.39,1021.53 1848.97,1021.58C1855.3,1022.16 1862.43,1023.38 1867.16,1024.46C1870.82,1025.29 1907.88,1025.2 1926.69,1004.63C1927.61,1003.63 1929.16,1004.64 1928.44,1005.66C1916.99,1022.15 1894.75,1026.68 1883.35,1028.64C1882.63,1028.76 1882.53,1029.47 1883.13,1029.72C1898.44,1035.88 1915.65,1039.95 1934.13,1038.74C1943.14,1038.15 1952,1035.73 1960.87,1034.2C1971.19,1032.41 1980.72,1031.5 1991.08,1030.15C1996.67,1029.42 2006.26,1026.94 2009.17,1026.4C2010.15,1026.22 2010.41,1027.58 2009.56,1027.85C2004.78,1029.37 2000.76,1030.66 1991.38,1031.95C1984.06,1032.96 1972.24,1034.56 1961.33,1036.41C1954.89,1037.51 1948.77,1038.68 1944.09,1039.88C1943.32,1040.07 1943.23,1040.75 1943.9,1040.89C1945.82,1041.31 1947.71,1041.78 1949.5,1042.44C1958.6,1045.81 1966.45,1051.33 1975.53,1054.51C1987.04,1058.53 1994.09,1056.93 1995.37,1057.02C1996.33,1057.08 1996.5,1058.36 1995.38,1058.68C1991.31,1059.85 1984.9,1060.08 1974.67,1057.19C1965.39,1054.57 1957.08,1049.07 1947.93,1046.01C1936.89,1042.32 1926.53,1043.62 1915.15,1042.88C1909.84,1042.53 1904.68,1041.57 1899.58,1040.66C1898.92,1040.54 1898.7,1041.02 1899.31,1041.51C1910.01,1050.3 1921.87,1063.16 1929.86,1074.02C1934.73,1080.64 1956.78,1084.44 1971.75,1083.57C1973.17,1083.49 1973.61,1085.32 1971.88,1085.48C1957.33,1086.8 1944.24,1084.78 1934.74,1081.39C1937.69,1088.19 1951.16,1104.13 1955.69,1107.49C1956.69,1108.22 1955.34,1109.77 1954.04,1108.64C1937.3,1094.09 1936.42,1089.43 1926.94,1077.05C1924.55,1073.92 1902.48,1046.99 1882.37,1035.81C1855.23,1020.72 1816.23,1027.2 1789.01,1041.21C1787.91,1041.77 1788.24,1042.68 1789.47,1042.59C1803.5,1041.55 1816.32,1044.43 1828.89,1050.85C1834.93,1053.93 1841.97,1055.95 1847.9,1059.29C1860.01,1066.09 1862.3,1069.62 1870.3,1074.04C1878.61,1078.62 1894.29,1083 1899.14,1084.76C1899.92,1085.04 1899.59,1086.19 1898.76,1085.97C1893.84,1084.68 1878.74,1080.66 1868.2,1076.38C1874.95,1086.87 1888.77,1102.98 1904.8,1116.59C1905.9,1117.53 1904.76,1119.12 1903.28,1118.26C1894.9,1113.36 1880.08,1099.1 1864.74,1079.35C1860.72,1074.18 1855.25,1068.8 1849.59,1065.26C1844.49,1062.06 1839.42,1059.31 1833.2,1057.84C1839.89,1067.41 1845.41,1076.35 1839.73,1093.31C1839.18,1094.94 1836.85,1094.8 1837.21,1092.98C1838.06,1088.65 1840.02,1080.93 1838.44,1074.39C1829.92,1039.05 1751.54,1032.86 1751.54,1097.6C1751.54,1107.35 1751.4,1404.12 1751.86,1412.2C1752.8,1428.97 1758.33,1444 1764.36,1449.88C1767.92,1453.35 1775.2,1453.71 1778.42,1456.46C1782.96,1460.32 1785.2,1464.5 1787.82,1465.97C1788.88,1466.57 1794.55,1467.85 1801.73,1469.23C1805.88,1470.02 1812.35,1468.71 1816.92,1469.46C1821.18,1470.16 1824.04,1471.91 1827.2,1473.41C1831.17,1475.31 1835.16,1474.33 1837.04,1474.27C1844.18,1474.05 1853.01,1472.37 1861.01,1472.01C1871.49,1471.53 1881.35,1475.19 1892.56,1474.74C1903.67,1474.29 1914.97,1471.06 1925.98,1470.94C1935.73,1470.83 1945.29,1470.91 1954.37,1471.28C1965.03,1471.71 1972.66,1474.52 1981.53,1475.93C1990.5,1477.35 2000.67,1477.38 2006.87,1480.14C2014.12,1483.37 2019.16,1487.64 2021.22,1493.23C2021.47,1493.91 2019.95,1494.59 2019.57,1494.04C2016.52,1489.58 2011.53,1486.23 2005.46,1483.71C1999,1481.04 1988.96,1481.29 1981.09,1480.17C1971,1478.74 1962.96,1476.34 1954.38,1476.21C1951.43,1476.17 1948.71,1476.17 1946.28,1476.17C1944.7,1476.17 1944.05,1477.24 1945.11,1477.84C1947.63,1479.27 1950.2,1480.92 1952.76,1482.7C1956.02,1484.97 1956.59,1488.64 1959.63,1491.1C1962.94,1493.77 1968.68,1495.22 1971.35,1497.57C1975.84,1501.53 1979.15,1504.64 1980.32,1505.53C1985.77,1509.67 1992.28,1512.7 1999.03,1514.94C2002.46,1516.09 2006.3,1514.96 2009.75,1515.75C2013.68,1516.64 2017.2,1519.4 2020.84,1519.94C2026.27,1520.76 2031.2,1521.26 2035.09,1521.66C2037.01,1521.86 2036.69,1523.97 2035.05,1524.09C2031.26,1524.35 2026.18,1524.14 2020.56,1523.5C2016.7,1523.05 2012.94,1520.32 2008.81,1519.46C2005.1,1518.68 2001.03,1519.81 1997.48,1518.7C1994.45,1517.76 1991.54,1516.7 1988.86,1515.52C1987.58,1514.95 1986.54,1516.11 1987.27,1517.26C1988.35,1518.98 1989.52,1520.65 1990.78,1522.32C1992.24,1524.25 1995.99,1526.19 1997.73,1528.1C1999.86,1530.43 2000.19,1533.45 2002.81,1535.85C2005.44,1538.26 2009.87,1539.7 2013.09,1542.28C2018.32,1546.46 2022.73,1551.23 2029.79,1556.19C2030.82,1556.91 2029.88,1558.54 2028.68,1557.77C2020.96,1552.83 2016.37,1548.14 2011.23,1544.17C2007.97,1541.66 2003.64,1540.34 2001.16,1538.12C1998.28,1535.55 1997.88,1532.48 1995.75,1530.21C1993.75,1528.07 1989.87,1526.01 1988.27,1524.04C1982.03,1516.37 1977.85,1509.67 1967.98,1501.23C1964.98,1498.65 1959.34,1497.43 1956.43,1495.18C1952.86,1492.44 1952.03,1488.77 1948.68,1486.61C1940.09,1481.11 1932.35,1477.72 1926.19,1477.36C1922.84,1477.16 1908.94,1480.25 1892.25,1480.87C1881.92,1481.26 1871.7,1477.58 1861.01,1478.27C1857.82,1478.47 1854.16,1479.29 1850.8,1479.92C1849.15,1480.23 1848.93,1481.74 1850.23,1482.32C1851.54,1482.89 1852.79,1483.48 1853.98,1484.07C1858.1,1486.1 1859.51,1490.13 1862.46,1492.11C1866.33,1494.69 1871.36,1495.16 1873.65,1497.09C1876.13,1499.18 1877.82,1500.71 1879,1501.27C1882.95,1503.13 1886.42,1504.63 1889.71,1505.92C1893.11,1507.26 1897.6,1506.9 1900.93,1508C1904.58,1509.19 1907.09,1511.84 1911.48,1513.22C1912.57,1513.57 1916.74,1515.42 1917.92,1515.8C1921.96,1517.09 1924.55,1517.14 1930.29,1518.65C1933.04,1519.38 1936.63,1518.78 1939.28,1519.46C1943.25,1520.48 1946.1,1522.73 1948.94,1523.48C1950.5,1523.89 1951.8,1524.24 1952.76,1524.51C1954.43,1524.99 1953.87,1527.12 1952.21,1526.82C1950.75,1526.56 1949.37,1526.3 1948.02,1526.04C1944.51,1525.36 1942.09,1523.36 1938.6,1522.56C1936.11,1522 1932.68,1522.7 1929.75,1522C1929.13,1521.85 1928.49,1521.69 1927.84,1521.54C1926.84,1521.3 1926.14,1522.33 1927.07,1523.41C1928.68,1525.28 1930.72,1527.75 1932.98,1530.59C1935.04,1533.17 1936.14,1537.59 1938.45,1540.64C1941.02,1544.05 1945.27,1545.4 1947.78,1548.99C1949.89,1552 1951.46,1555.73 1953.27,1558.58C1954.01,1559.74 1952.94,1560.32 1952.21,1559.59C1950.84,1558.22 1948.96,1554.48 1946.03,1550.66C1943.71,1547.64 1939.41,1546.36 1936.53,1542.75C1934.09,1539.7 1932.67,1535.07 1930.08,1532.15C1924.97,1526.42 1919.74,1521.42 1915.23,1519.06C1914.35,1518.6 1912.5,1517.93 1909.98,1517.07C1906.92,1516.03 1904.15,1513.24 1899.67,1511.7C1896.18,1510.52 1891.16,1510.68 1887.4,1509.25C1886.84,1509.04 1885.16,1508.38 1883.65,1507.78C1882.61,1507.36 1881.99,1508.89 1882.34,1510.11C1883.17,1512.98 1883.9,1516.45 1885.15,1520.48C1886.42,1524.55 1891.85,1528.04 1894.8,1533.23C1897.54,1538.04 1897.62,1544.47 1902.86,1550.18C1905.22,1552.75 1907.88,1555.41 1910.89,1558.16C1911.59,1558.79 1910.67,1560.14 1909.84,1559.45C1906.53,1556.68 1903.64,1554.02 1901.09,1551.46C1895.5,1545.83 1895.24,1539.52 1892.35,1534.77C1889.16,1529.53 1883.55,1525.93 1881.93,1521.57C1879.47,1514.99 1877.78,1509.29 1873.75,1504.16C1873.37,1503.68 1872.25,1502.57 1870.47,1501.08C1868.3,1499.27 1863.08,1498.85 1859.08,1496.35C1856.06,1494.45 1854.63,1490.53 1850.71,1488.66C1843.63,1485.31 1835.18,1482.31 1825.68,1480.75C1824.15,1480.5 1820.58,1476.93 1814.86,1476.15C1810.8,1475.6 1805.14,1477.97 1800.68,1477.14C1799.61,1476.94 1798.55,1476.74 1797.51,1476.52C1796.12,1476.24 1794.9,1477.62 1795.91,1479.09C1800.27,1485.47 1807.66,1496.81 1810.57,1499.99C1813.3,1502.98 1819.19,1506.45 1825.73,1510.44C1829.02,1512.45 1830.6,1516.14 1833.89,1518.41C1838.33,1521.48 1844.36,1523.23 1847.45,1526.81C1849.32,1528.96 1850.8,1531.21 1851.72,1533.56C1852.24,1534.87 1851.12,1536.13 1850.24,1535.01C1848.64,1532.95 1846.87,1530.99 1844.96,1529.13C1841.66,1525.91 1836.11,1524.56 1832.35,1521.99C1828.64,1519.45 1826.71,1515.68 1823.1,1513.79C1820.68,1512.52 1818.34,1511.4 1816.16,1510.43C1815.28,1510.04 1814.1,1511.38 1814.36,1512.39C1814.98,1514.75 1815.66,1517.07 1816.42,1519.35C1817.87,1523.71 1822.42,1525.95 1824.33,1530.06C1826.97,1535.77 1827.15,1543.24 1830.46,1548.61C1831.94,1551.02 1833.48,1553.39 1835.07,1555.76C1836.04,1557.2 1834.24,1558.46 1832.83,1557.01C1830.9,1555.05 1829.17,1553.02 1827.58,1550.94C1823.59,1545.7 1823.4,1538.16 1820.76,1532.53C1818.66,1528.06 1813.96,1525.53 1812.1,1521.11C1809.13,1514.09 1806.12,1507.31 1801.96,1501.33C1790.92,1485.44 1784.5,1477.86 1778.8,1473.58C1776.96,1472.2 1774.65,1467.92 1770.59,1464.86C1764.9,1460.56 1759.13,1462.01 1755.38,1459.03C1750.87,1455.47 1748.13,1448 1743.87,1444.2C1742.35,1442.85 1740.06,1441.8 1738.35,1440.81C1737.54,1440.35 1736.45,1441.13 1736.45,1441.97C1736.49,1462.87 1737.09,1478.11 1738.18,1483.93C1739.09,1488.73 1740.53,1495.11 1743.11,1501.24C1745.18,1506.17 1751.43,1509.17 1753.87,1513.96C1757.86,1521.79 1757.63,1530.29 1760.4,1534.63C1761.82,1536.84 1763.95,1538.49 1764.51,1539.04C1769.61,1544.08 1775.31,1548.87 1781.12,1553.3C1787.12,1557.87 1795.74,1558.44 1801.45,1562.07C1807.88,1566.14 1811.3,1573.12 1815.94,1575.59C1821.11,1578.34 1824.72,1579.97 1825.73,1580.17C1830.27,1581.1 1841.16,1583.52 1853.33,1584.3C1859.1,1584.67 1865.04,1582.03 1871,1582.3C1878.46,1582.63 1885.33,1585.72 1891.38,1585.83C1899.83,1585.98 1906.25,1584.54 1907.5,1584.07C1911.17,1582.67 1915.09,1581.26 1919.22,1579.92C1924.26,1578.28 1931.17,1578.59 1936.77,1577.33C1942.24,1576.09 1946.39,1573.27 1952.25,1572.69C1962.05,1571.74 1973.25,1572.31 1983.6,1574.37C1988.55,1575.35 1993.56,1574.53 1998.53,1576.44C2003.32,1578.3 2005.38,1582.1 2010.12,1584.97C2015.82,1588.41 2023.18,1593.01 2028.7,1598.15C2029.7,1599.08 2028.7,1600.36 2027.77,1599.65C2021.51,1594.88 2014.26,1590.83 2008.95,1587.97C2004.11,1585.35 2002.16,1581.94 1997.28,1580.5C1992.71,1579.14 1987.91,1580.45 1982.62,1579.8C1981.22,1579.62 1979.41,1579.32 1977.64,1579.07C1976.56,1578.91 1976.21,1579.8 1977.08,1580.44C1979.96,1582.6 1983.08,1585.48 1986.26,1588.9C1988.17,1590.98 1988.9,1593.92 1990.81,1596.35C1993.02,1599.16 1996.4,1600.74 1998.47,1603.92C2000.45,1606.96 2000.72,1611.09 2002.45,1614.36C2006.43,1621.88 2011.21,1629.69 2012.82,1637.52C2013.02,1638.48 2011.67,1638.67 2011.38,1637.88C2008.41,1629.83 2003.3,1622.72 1999.56,1616.21C1997.65,1612.9 1997.29,1608.84 1995.29,1605.94C1993.11,1602.78 1989.68,1601.3 1987.47,1598.64C1985.5,1596.26 1984.75,1593.41 1982.83,1591.44C1976.31,1584.75 1970.27,1580.43 1965.97,1578.6C1964.78,1578.09 1959.87,1577.9 1953.11,1578.47C1948.34,1578.87 1944.2,1581.49 1938.25,1582.81C1933.16,1583.94 1926.32,1583.63 1921.25,1585.64C1919.96,1586.16 1918.68,1586.7 1917.42,1587.28C1916.71,1587.61 1916.31,1589.02 1917.07,1589.5C1919.55,1591.06 1923.76,1593.33 1928.73,1594.96C1932.38,1596.16 1933.27,1602.69 1936.85,1604.8C1940.65,1607.04 1946.13,1606.14 1949.31,1608.38C1953.84,1611.57 1957.27,1614.6 1958.29,1617.04C1958.62,1617.84 1962.42,1620.13 1967.82,1622.68C1969.91,1623.67 1972.81,1623.04 1975.27,1624.03C1977.63,1624.98 1979.53,1627.56 1982.04,1628.39C1984.41,1629.17 1986.79,1629.87 1989.12,1630.44C1989.84,1630.61 1989.62,1631.48 1988.62,1631.51C1986.62,1631.58 1984.18,1631.2 1981.5,1630.52C1979.12,1629.91 1977.13,1627.41 1974.51,1626.41C1972,1625.46 1968.86,1626.03 1966.38,1624.89C1964.71,1624.12 1963.08,1623.33 1961.52,1622.54C1960.83,1622.19 1959.92,1622.8 1960.12,1623.43C1961.14,1626.46 1962.07,1629.01 1963.22,1631.56C1964.17,1633.65 1966.82,1634.55 1968.23,1636.92C1969.52,1639.09 1969.52,1642.68 1971.47,1645.51C1972.75,1647.37 1974.2,1649.41 1975.86,1651.71C1976.35,1652.39 1975.52,1653.07 1974.97,1652.45C1973.06,1650.31 1971.38,1648.33 1969.91,1646.49C1967.82,1643.87 1967.68,1640.33 1966.27,1638.2C1964.49,1635.51 1961.61,1634.35 1960.53,1632.21C1957.2,1625.61 1956.15,1621.05 1950.91,1614.87C1950.49,1614.37 1949.01,1613.32 1946.84,1611.94C1944.11,1610.2 1938.55,1611.15 1934.44,1608.83C1930.87,1606.8 1929.52,1600.89 1926.01,1599.09C1923.97,1598.04 1921.68,1597.4 1919.74,1596.78C1918.96,1596.53 1917.97,1597.3 1918.2,1597.99C1918.65,1599.39 1919.19,1600.95 1919.53,1602.91C1919.87,1604.84 1918.68,1607.69 1919,1609.73C1919.39,1612.2 1921.36,1614.11 1921.69,1616.38C1922.24,1620.17 1922.17,1623.79 1922.4,1625.53C1922.62,1627.1 1920.76,1627.44 1920.34,1626.05C1919.86,1624.41 1919.8,1620.74 1919.1,1616.77C1918.7,1614.52 1916.66,1612.6 1916.19,1610.08C1915.81,1608.09 1916.93,1605.26 1916.5,1603.3C1915.74,1599.85 1914.47,1597.23 1913.53,1594.64C1913.13,1593.51 1909.16,1591.73 1907.72,1591.58C1904.06,1591.2 1898.23,1592.2 1891.77,1591.9C1885.37,1591.6 1878.43,1588.51 1871.2,1588.28C1864.66,1588.07 1858.33,1590.86 1852.6,1590.71C1845.93,1590.53 1840.15,1589.55 1836.57,1589.03C1835.43,1588.87 1834.97,1589.78 1835.51,1590.3C1837.74,1592.44 1839.82,1594.52 1841.74,1596.51C1845.23,1600.12 1844.43,1605.46 1847.04,1608.47C1851.35,1613.45 1858.38,1615.53 1860.87,1618.42C1862.59,1620.42 1863.95,1621.85 1865.09,1622.64C1868.66,1625.12 1873.33,1628.43 1878.34,1631.91C1881.45,1634.07 1886.84,1634.53 1890.05,1636.66C1894.29,1639.47 1896.32,1643.88 1900.02,1646C1901.75,1646.98 1903.38,1647.85 1904.87,1648.57C1909.84,1650.97 1915.66,1653.08 1921.87,1655.09C1926,1656.43 1929.1,1660.58 1933.45,1661.88C1937.59,1663.11 1942.98,1661.5 1947.09,1662.8C1954.57,1665.16 1961.8,1667.72 1968.06,1670.73C1971.2,1672.24 1972.22,1675.4 1974.79,1677.18C1977.16,1678.83 1981.13,1679.09 1982.86,1681.02C1985,1683.41 1986.6,1686.04 1987.53,1688.96C1987.81,1689.83 1987.21,1690.49 1986.8,1689.77C1985.15,1686.86 1983.3,1684.41 1981.34,1682.34C1979.54,1680.42 1975.76,1680.35 1973.85,1679.02C1970.77,1676.87 1969.55,1673.89 1966.76,1672.84C1965.26,1672.28 1963.84,1671.84 1962.57,1671.48C1961.41,1671.15 1960.89,1672.15 1961.59,1672.99C1963.79,1675.61 1965.99,1678.8 1968,1682.36C1969.62,1685.23 1968.37,1689.38 1969.67,1692.63C1970.93,1695.79 1974.77,1698.03 1975.56,1701.36C1976.35,1704.68 1976.87,1708.03 1977.03,1711.33C1977.07,1712.29 1976.08,1712.51 1975.88,1711.62C1975.32,1709.14 1974.59,1705.7 1973.51,1701.8C1972.73,1698.98 1968.99,1696.96 1967.77,1693.84C1966.57,1690.78 1967.88,1686.62 1966.12,1683.64C1962.92,1678.22 1958.7,1673.23 1953.06,1669.7C1952.54,1669.37 1949.87,1668.56 1946.1,1667.51C1942.45,1666.49 1936.56,1668.11 1931.81,1666.88C1927.4,1665.75 1924.13,1661.75 1920.35,1660.81C1918.32,1660.31 1916.48,1659.86 1914.97,1659.49C1913.83,1659.22 1913.31,1660.27 1913.88,1661C1915.7,1663.31 1917.46,1665.67 1919.13,1668.08C1921.69,1671.8 1920.5,1676.27 1922.47,1680.38C1925.08,1685.81 1929.38,1688.33 1930.86,1692.4C1931.48,1694.11 1932.23,1696 1933.31,1698.3C1935.46,1702.9 1938.01,1706.76 1940.67,1710.05C1942.27,1712.04 1945.05,1712.72 1946.67,1714.34C1948.41,1716.09 1948.99,1718.75 1950.6,1720.18C1952.44,1721.81 1954.13,1723.27 1955.58,1724.64C1956.13,1725.16 1955.63,1725.62 1954.94,1725.28C1953.17,1724.41 1951.18,1723.1 1949.11,1721.47C1947.51,1720.2 1946.98,1717.63 1945.32,1716.05C1943.55,1714.35 1940.66,1713.61 1938.98,1711.7C1937.04,1709.49 1935.21,1707.19 1933.59,1704.91C1933.11,1704.24 1932.3,1704.74 1932.45,1705.84C1932.74,1707.92 1933.25,1710.44 1933.75,1713.52C1934.16,1716.12 1933.14,1719.94 1933.67,1722.75C1934.12,1725.18 1936.55,1727.45 1937.03,1729.82C1937.53,1732.26 1936.74,1735.26 1937.21,1737.42C1938.49,1743.31 1940.15,1747.01 1940.42,1747.84C1940.67,1748.63 1939.76,1748.79 1939.46,1748.04C1938.42,1745.44 1936.72,1742.44 1935.62,1738.14C1935.05,1735.9 1935.77,1732.88 1935.21,1730.44C1934.64,1727.97 1932.15,1725.62 1931.62,1723.11C1931.02,1720.3 1931.97,1716.49 1931.45,1713.89C1929.98,1706.57 1928.59,1701.34 1928.21,1699.69C1927.81,1698.01 1927.33,1696.33 1926.79,1694.67C1925.38,1690.38 1919.99,1686.82 1917.88,1682.88C1915.68,1678.79 1916.75,1674.33 1914.24,1670.87C1909.22,1663.96 1903.99,1658.55 1900.32,1655.65C1899.13,1654.72 1897.89,1653.77 1896.62,1652.82C1892.8,1649.97 1890.82,1645.32 1886.74,1642.62C1883.03,1640.16 1877.21,1639.63 1873.87,1637.66C1872.98,1637.14 1872.12,1636.64 1871.29,1636.17C1870.62,1635.79 1869.69,1636.56 1869.86,1637.38C1870.08,1638.44 1870.28,1639.57 1870.46,1640.77C1871.01,1644.33 1868.46,1648.59 1868.73,1652.55C1869.08,1657.88 1872.14,1662.83 1872.04,1666.27C1871.78,1675.53 1872.66,1684.65 1874.05,1692.81C1874.68,1696.51 1878.63,1699.37 1879.41,1702.6C1880.79,1708.36 1879.09,1713.91 1880.41,1717.53C1881.76,1721.22 1882.89,1723.57 1883.45,1724.12C1887.44,1728.09 1891.37,1732.6 1894.98,1737.28C1897.03,1739.95 1901.22,1741.14 1903.03,1743.86C1905.36,1747.37 1905.21,1752.41 1906.94,1755.75C1909.33,1760.34 1911.06,1764.62 1911.87,1768.22C1912.14,1769.46 1910.92,1770.18 1910.33,1768.98C1908.45,1765.13 1906.56,1761.51 1904.62,1758.09C1902.55,1754.42 1902.65,1749.43 1900.43,1746.18C1898.45,1743.27 1894.15,1742.06 1891.99,1739.44C1890.3,1737.38 1888.54,1735.41 1886.7,1733.51C1885.8,1732.57 1884.46,1732.93 1884.68,1734.11C1885.3,1737.29 1885.73,1740.89 1885.94,1744.79C1886.16,1748.78 1883.38,1752.9 1883.07,1757.4C1882.8,1761.22 1885.09,1765.36 1884.39,1769.37C1883.34,1775.31 1881.78,1781.39 1879.59,1787.37C1879.3,1788.16 1878.34,1787.89 1878.47,1787.18C1879.67,1780.4 1880.56,1774.45 1881.18,1769.19C1881.69,1764.83 1879.27,1760.76 1879.44,1757.27C1879.68,1752.35 1882.36,1748.41 1882.05,1744.83C1881.33,1736.7 1879.35,1731.39 1876.95,1726.2C1876.31,1724.84 1875.45,1722.32 1874.48,1719.12C1873.34,1715.34 1875.29,1709.95 1874.09,1705.04C1873.14,1701.15 1869.02,1697.8 1868.28,1694.07C1867.64,1690.8 1867.11,1687.73 1866.78,1685.13C1866.59,1683.67 1865.71,1683.77 1865.22,1685.23C1864.73,1686.67 1864.15,1688.24 1863.52,1689.92C1862.09,1693.73 1863.19,1699.78 1861.55,1704.56C1859.95,1709.26 1855.61,1712.69 1854.48,1718.03C1853.6,1722.11 1855.17,1727.28 1854.91,1731.6C1854.78,1733.77 1852.67,1736.56 1852.75,1738.77C1852.99,1745.33 1854.11,1750.47 1856.87,1757.04C1857.19,1757.82 1856.07,1757.8 1855.71,1757.14C1852.2,1750.88 1849.65,1744.85 1849.29,1738.82C1849.07,1735.1 1851.25,1733.67 1851.22,1731.15C1851.17,1726.38 1849.19,1721.71 1850.12,1717.02C1851.12,1711.94 1855.37,1708.54 1856.98,1703.47C1858.46,1698.78 1857.28,1692.4 1858.83,1687.64C1860.68,1681.91 1862.41,1676.11 1863.64,1670.17C1863.86,1669.11 1864.03,1667.55 1864.13,1665.63C1864.31,1662.15 1861.34,1657.7 1861.02,1652.85C1860.77,1648.97 1863.28,1644.77 1862.63,1641.11C1861.81,1636.53 1860.66,1632.49 1859.09,1629.96C1858.53,1629.06 1856.98,1626.97 1854.63,1624.21C1852.04,1621.15 1844.72,1619.26 1840.75,1615.13C1837.55,1611.81 1837.86,1606.33 1834.3,1603.04C1828.16,1597.35 1821.84,1592.18 1816.56,1589.19C1814.53,1588.05 1812.54,1586.92 1810.58,1585.82C1804.45,1582.38 1801.15,1575.55 1795.59,1572.44C1788.88,1568.7 1780.01,1568.73 1773.8,1565.18C1773.11,1564.79 1772.42,1564.4 1771.74,1564.01C1770.8,1563.47 1769.26,1564.32 1769.41,1565.47C1769.51,1566.29 1769.61,1567.17 1769.7,1568.09C1770.01,1571.17 1767.99,1574.92 1768.21,1578.45C1768.53,1583.44 1771.08,1588.19 1771.4,1591.61C1771.53,1592.98 1771.66,1594.11 1771.81,1594.9C1772.68,1599.45 1774.51,1606.45 1776.56,1613.33C1777.55,1616.66 1780.12,1619.19 1781.13,1622.17C1782.17,1625.23 1781.66,1628.72 1782.54,1630.77C1783.37,1632.72 1784.09,1634.07 1784.61,1634.55C1787.93,1637.59 1792.78,1641.03 1798.16,1644.6C1801.83,1647.04 1807.63,1647.12 1811.48,1649.6C1815.39,1652.11 1817.36,1657.02 1820.79,1659.4C1825.98,1662.99 1830.25,1666.33 1832.48,1669.11C1833.48,1670.36 1832.53,1671.79 1831.13,1670.66C1828.15,1668.26 1824,1665.36 1819.4,1662.34C1815.75,1659.94 1813.69,1655.05 1809.83,1652.69C1805.69,1650.16 1799.76,1650.19 1796.21,1648.17C1794.11,1646.97 1792.19,1645.9 1790.55,1645.01C1789.09,1644.22 1787.64,1644.84 1788.16,1646.35C1788.8,1648.21 1789.57,1650.65 1790.41,1653.42C1791.48,1656.94 1790.25,1661.69 1791.42,1665.72C1792.76,1670.31 1796.5,1674.17 1797.64,1677.93C1799.01,1682.44 1800.11,1685.79 1800.66,1686.66C1802.13,1689 1804.36,1691.63 1806.91,1694.3C1809.1,1696.58 1812.8,1698.35 1815.17,1700.52C1818.14,1703.24 1819.77,1706.29 1822.07,1708.27C1823.87,1709.82 1825.29,1711.05 1826.08,1711.8C1827.07,1712.75 1825.8,1713.89 1824.79,1712.92C1823.9,1712.08 1822.53,1710.95 1820.87,1709.61C1818.51,1707.7 1816.81,1704.83 1813.77,1702.27C1810.15,1699.23 1805.58,1696.23 1802.29,1693.02C1801.5,1692.25 1800.44,1692.67 1800.55,1693.7C1800.63,1694.58 1800.71,1695.47 1800.77,1696.38C1800.93,1698.63 1799.75,1701.31 1799.72,1703.6C1799.69,1706.11 1800.78,1708.23 1800.5,1710.5C1800.16,1713.12 1799.64,1715.48 1798.92,1717.34C1798.52,1718.37 1797.25,1718.61 1797.48,1717.48C1797.92,1715.3 1798.22,1712.96 1798.39,1710.57C1798.57,1708.15 1797.38,1706.03 1797.32,1703.59C1797.27,1701.29 1798.36,1698.67 1798.13,1696.53C1797.77,1693.12 1797.2,1690.02 1796.5,1687.58C1795.75,1684.97 1794.88,1682.27 1793.92,1679.5C1792.59,1675.64 1788.67,1672.36 1787.04,1668.29C1785.44,1664.26 1786.54,1657.87 1784.78,1653.74C1781.69,1646.49 1778.05,1640.75 1775.02,1633.66C1773.85,1630.93 1774.24,1627.46 1773.15,1624.81C1771.99,1621.98 1769.36,1619.98 1768.34,1617.29C1767.9,1616.15 1767.49,1615.03 1767.08,1613.92C1766.66,1612.76 1764.85,1612.89 1764.36,1614.07C1762.4,1618.81 1760.69,1623.4 1759.21,1627.84C1756.97,1634.58 1759.45,1641.04 1758.19,1647.12C1756.88,1653.47 1751.87,1659.4 1751.46,1665.06C1750.91,1672.74 1752.84,1678.82 1753.61,1685.27C1753.92,1687.89 1752.6,1691.4 1753.08,1693.83C1754.3,1699.94 1756.01,1705.43 1758,1710.32C1760.06,1715.39 1764.7,1718.17 1767.12,1721.98C1770.25,1726.89 1771.2,1732.41 1774,1735.31C1777.81,1739.27 1780.83,1741.4 1781.7,1741.85C1788.01,1745.09 1793.49,1748.17 1798.25,1751.05C1801.98,1753.3 1804.46,1757.56 1807.37,1759.56C1812.71,1763.23 1817.57,1764.3 1820.67,1766.95C1825.75,1771.29 1828.3,1774.14 1829.8,1775.07C1832.27,1776.61 1835.53,1779.71 1838.86,1783.22C1840.86,1785.32 1843.74,1786.72 1845.65,1788.86C1847.38,1790.8 1848.16,1793.5 1849.59,1795.08C1851.48,1797.18 1853.01,1798.8 1853.91,1799.5C1854.59,1800.03 1853.6,1801.16 1852.83,1800.51C1851.86,1799.71 1850.38,1798.2 1848.61,1796.35C1847.06,1794.73 1846.13,1791.98 1844.29,1790.07C1842.37,1788.09 1839.53,1786.93 1837.62,1785.15C1836.39,1784 1835.19,1782.95 1834.07,1782.07C1833.27,1781.43 1832.41,1782.01 1832.68,1782.81C1833.05,1783.89 1833.38,1784.98 1833.68,1786.09C1834.31,1788.41 1833.62,1791.15 1834.17,1793.54C1834.69,1795.76 1836.44,1797.63 1837.14,1799.85C1837.77,1801.87 1838.52,1803.87 1839.49,1805.83C1839.86,1806.58 1838.93,1806.94 1838.41,1806.3C1836.93,1804.5 1835.88,1802.59 1835.06,1800.57C1834.19,1798.46 1832.37,1796.58 1831.77,1794.19C1831.19,1791.89 1831.83,1789.09 1831.07,1786.49C1830.29,1783.85 1829.3,1781.05 1827.89,1778.06C1827.62,1777.49 1823.71,1774.12 1818.14,1769.91C1814.5,1767.15 1809.35,1766.16 1804.86,1763.24C1801.5,1761.05 1798.87,1756.83 1795.58,1755.08C1793.5,1753.98 1791.49,1753.01 1789.6,1752.23C1788.65,1751.84 1787.42,1752.96 1787.69,1753.81C1788.23,1755.52 1788.72,1757.17 1789.18,1758.77C1790.44,1763.1 1789.39,1767.43 1790.16,1770.94C1791.35,1776.33 1794.09,1780.34 1794.54,1783.79C1795.28,1789.37 1795.36,1792.44 1795.78,1793.06C1796.69,1794.4 1797.77,1795.86 1798.9,1797.36C1799.92,1798.73 1801.98,1799.56 1803,1800.96C1804.31,1802.75 1804.56,1805.1 1805.53,1806.73C1806.45,1808.26 1807.14,1809.67 1807.46,1810.85C1807.76,1811.98 1806.56,1812.45 1806.17,1811.53C1805.72,1810.45 1805.04,1809.3 1804.21,1808.08C1803.14,1806.51 1802.81,1804.25 1801.43,1802.53C1800.3,1801.11 1798.14,1800.24 1797.03,1798.78C1796.52,1798.11 1796.02,1797.44 1795.54,1796.77C1795.06,1796.09 1793.84,1796.35 1793.64,1797.26C1793.31,1798.71 1792.92,1800.32 1792.5,1802.01C1792.02,1803.89 1790.27,1805.96 1789.76,1807.93C1789.07,1810.6 1789.64,1813.16 1789.1,1815.51C1788.38,1818.6 1787.9,1821.17 1787.9,1822.62C1787.9,1823.78 1786.51,1823.55 1786.52,1822.69C1786.55,1820.91 1786.9,1818.32 1787.47,1815.16C1787.88,1812.87 1787.15,1810.38 1787.73,1807.59C1788.13,1805.67 1789.8,1803.57 1790.25,1801.48C1790.8,1798.88 1791.38,1796.16 1791.96,1793.39C1792.12,1792.63 1791.77,1789.27 1790.91,1784.52C1790.24,1780.78 1787.22,1776.6 1785.9,1771.74C1784.84,1767.82 1785.6,1763.32 1784.12,1759.37C1782.82,1755.89 1781.35,1752.52 1779.72,1749.47C1778.77,1747.7 1774.79,1744.38 1769.78,1739.24C1766.7,1736.08 1765.5,1730.6 1762.11,1726C1759.36,1722.28 1754.38,1719.69 1751.97,1714.94C1751.36,1713.74 1750.77,1712.5 1750.2,1711.22C1749.73,1710.18 1747.88,1710.54 1747.44,1711.8C1745.44,1717.47 1744,1723.16 1743,1728.73C1741.75,1735.72 1744.68,1743.31 1744.59,1749.61C1744.44,1759.79 1742.02,1767.89 1743.3,1774.33C1744.22,1778.93 1745.24,1782.27 1746.03,1783.92C1747.47,1786.97 1749.53,1790.53 1751.84,1794.17C1753.47,1796.76 1756.84,1798.66 1758.58,1801.18C1760.62,1804.13 1761.04,1807.67 1762.84,1810.1C1765.21,1813.3 1767.19,1815.86 1768.31,1817.23C1769.01,1818.08 1767.65,1818.92 1766.76,1817.78C1765.65,1816.37 1763.82,1814.15 1761.62,1811.49C1759.67,1809.13 1759.04,1805.69 1756.75,1802.89C1754.68,1800.37 1750.97,1798.49 1749.02,1796C1747.05,1793.5 1745.23,1791.1 1743.73,1789.01C1743.73,1791.93 1743.43,1795.48 1742.98,1799.23C1742.66,1801.85 1740.75,1804.53 1740.34,1807.2C1739.78,1810.86 1740.69,1814.49 1740.17,1817.62C1739.56,1821.28 1739.07,1824.33 1738.9,1826.19C1738.79,1827.33 1737.29,1827.41 1737.36,1826.33C1737.45,1824.72 1737.79,1821.44 1738.2,1817.36C1738.5,1814.34 1737.33,1810.83 1737.65,1807.27C1737.91,1804.46 1739.68,1801.62 1739.87,1798.86C1740.26,1793.42 1740.48,1788.41 1740.27,1785.09C1740.22,1784.23 1739.06,1780.74 1737.87,1775.03C1736.57,1768.78 1738.72,1760.66 1738.77,1749.61C1738.8,1743.19 1735.81,1735.24 1737.06,1727.47C1738.45,1718.76 1740.79,1709.28 1744.46,1699.17C1744.64,1698.69 1744.43,1697.29 1744.1,1694.98C1743.8,1692.92 1745.12,1689.15 1744.8,1685.65C1744.28,1680.05 1742.23,1673.61 1742.85,1664.45C1743.23,1658.74 1748.16,1652.41 1749.46,1645.37C1750.58,1639.23 1747.93,1632.53 1750,1625.4C1752.56,1616.57 1755.93,1606.97 1760.34,1596.65C1760.64,1595.95 1760.68,1594.39 1760.53,1592.25C1760.29,1588.95 1757.32,1584.44 1756.42,1579.32C1755.81,1575.85 1757.38,1571.99 1756.66,1568.41C1755.02,1560.32 1753.29,1552.74 1752.36,1549.15C1752,1547.75 1749.87,1545.49 1748.34,1542.82C1745.46,1537.78 1745.22,1529.27 1740.64,1521.12C1738.06,1516.54 1731.62,1513.7 1729.3,1508.6C1727.53,1504.69 1726.51,1500.2 1725.18,1496.18C1724.72,1499.61 1723.71,1503.22 1722.35,1506.86C1720.38,1512.12 1713.41,1516.87 1710.54,1521.9C1706.42,1529.14 1706.21,1536.34 1703.12,1541.19C1701.27,1544.09 1699.91,1546.36 1699.41,1547.76C1697.14,1554.01 1695.72,1561.69 1694.88,1569.63C1694.49,1573.45 1696.98,1578.07 1696.83,1581.89C1696.64,1586.82 1693.87,1590.9 1693.99,1595.35C1694.27,1605.63 1695.23,1613.9 1696.17,1616.76C1697.48,1620.77 1698.62,1624.62 1699.6,1628.32C1701.51,1635.45 1699.01,1643.15 1699.94,1649.1C1701.12,1656.69 1705.49,1662.17 1705.67,1667.83C1706.08,1680.36 1704.83,1688.11 1705.48,1691.03C1707.8,1701.46 1709.36,1711.09 1710.38,1719.83C1711.31,1727.87 1708.17,1735.91 1708.34,1742.41C1708.55,1750.55 1711.89,1756.67 1711.49,1762.18C1710.82,1771.2 1709.76,1776.54 1709.73,1777.71C1709.65,1780.64 1709.85,1787.05 1710.14,1794.29C1710.27,1797.31 1712.54,1799.99 1712.68,1803.11C1712.84,1806.54 1710.88,1810.39 1711.04,1813.43C1711.39,1820.25 1711.69,1825.47 1711.75,1826.17C1711.78,1826.65 1711,1826.78 1710.96,1826.33C1710.82,1824.96 1710.33,1819.89 1709.75,1813.61C1709.46,1810.57 1711.28,1806.76 1710.98,1803.43C1710.69,1800.17 1708.27,1797.41 1708.01,1794.4C1707.81,1792.07 1707.62,1789.88 1707.47,1787.97C1707.27,1785.5 1705.78,1785.29 1704.86,1787.4C1704.25,1788.82 1703.55,1790.39 1702.81,1792.05C1701.45,1795.07 1697.06,1797.12 1695.53,1800.47C1693.91,1803.99 1695.16,1808.82 1693.69,1812.04C1690.79,1818.37 1688.5,1823.44 1688.14,1824.62C1688,1825.09 1687.15,1824.99 1687.29,1824.51C1688.39,1820.61 1690.15,1816.24 1692.27,1811.23C1693.63,1808.01 1692.26,1803.25 1693.84,1799.45C1695.07,1796.5 1699.21,1794.64 1700.49,1791.29C1702.19,1786.83 1703.89,1781.99 1705.53,1776.71C1705.86,1775.64 1706.44,1770.11 1706.81,1762.26C1707.08,1756.45 1703.62,1750.12 1703.46,1742.66C1703.3,1735.57 1706.46,1727.38 1705.56,1720.34C1704.88,1714.95 1703.93,1709.8 1702.64,1705.22C1702.2,1703.68 1700.4,1704 1699.96,1705.49C1699.69,1706.44 1699.4,1707.35 1699.11,1708.25C1697.44,1713.38 1692.52,1716.17 1690.55,1719.89C1687.2,1726.24 1686.67,1732.28 1683.71,1735.42C1680.34,1739 1677.75,1740.87 1677.09,1741.88C1673.69,1747.09 1670.81,1752.62 1668.41,1758.04C1666.86,1761.54 1668.59,1766.23 1667.44,1769.53C1666.32,1772.71 1662.3,1774.52 1661.53,1777.3C1659.27,1785.47 1658.47,1791.47 1658.87,1792.72C1660.26,1796.98 1661.43,1800.98 1662.41,1804.64C1663,1806.84 1665.24,1808.27 1665.7,1810.21C1666.33,1812.84 1665.14,1815.86 1665.57,1817.9C1666.53,1822.49 1667.02,1825.48 1667.26,1826.33C1667.51,1827.21 1666.06,1827.57 1665.83,1826.62C1665.44,1825.06 1664.81,1822.16 1663.99,1818.68C1663.47,1816.45 1664.58,1813.32 1663.92,1810.8C1663.38,1808.74 1661.09,1807.3 1660.48,1805.29C1659.87,1803.29 1659.24,1801.37 1658.58,1799.63C1658.04,1798.19 1656.01,1798.06 1655.38,1799.4C1654.93,1800.33 1654.44,1801.3 1653.93,1802.28C1653.15,1803.76 1651.3,1804.41 1650.48,1805.86C1649.68,1807.29 1649.91,1809.52 1649.2,1810.74C1648.16,1812.54 1647.3,1814 1646.86,1814.83C1646.36,1815.75 1644.95,1815.52 1645.41,1814.5C1645.87,1813.49 1646.72,1811.86 1647.74,1809.9C1648.46,1808.51 1648.24,1806.08 1649.03,1804.44C1649.69,1803.09 1651.37,1802.55 1651.98,1801.14C1652.84,1799.16 1653.6,1797.19 1654.12,1795.38C1655.19,1791.7 1655.92,1784.56 1657.6,1776.13C1658.23,1772.95 1662.08,1770.79 1663.05,1767.35C1663.88,1764.42 1661.78,1760.23 1662.95,1757.27C1663.96,1754.72 1665.12,1752.17 1666.44,1749.7C1667.2,1748.29 1666.28,1746.83 1664.56,1747.8C1663.57,1748.36 1662.5,1748.98 1661.37,1749.65C1657.29,1752.08 1648.55,1752.23 1643.66,1755.43C1637.55,1759.44 1635.3,1766.58 1630.92,1769.75C1627.27,1772.39 1624.81,1774.35 1624.51,1774.94C1622.85,1778.2 1621.78,1782.88 1620.77,1789.47C1620.45,1791.52 1622.86,1793.59 1622.55,1796.03C1622.2,1798.65 1619.13,1801.66 1618.75,1804.76C1618.54,1806.41 1618.33,1808.14 1618.1,1809.94C1617.96,1811.04 1616.4,1810.97 1616.47,1809.77C1616.54,1808.57 1616.63,1806.72 1616.76,1804.48C1616.89,1802.05 1619.79,1799.01 1620.05,1795.97C1620.24,1793.7 1617.75,1791.5 1618.04,1789.19C1618.32,1786.88 1618.65,1784.62 1619.05,1782.53C1619.34,1781.02 1618.02,1779.84 1617.05,1780.61C1616.05,1781.4 1615.08,1782.19 1614.12,1782.98C1612.36,1784.45 1609.13,1784.6 1607.55,1786C1605.45,1787.85 1605.07,1790.91 1603.4,1792.42C1601.41,1794.22 1599.76,1795.68 1598.59,1796.58C1597.56,1797.37 1596.19,1796.39 1597.16,1795.38C1598.78,1793.67 1600.46,1791.94 1602.22,1790.16C1603.78,1788.59 1603.86,1785.67 1605.55,1784.03C1607.24,1782.4 1610.53,1782.05 1612.37,1780.35C1617.03,1776.05 1622.24,1771.52 1628.21,1766.68C1633.16,1762.68 1634.8,1755.51 1640.91,1751.07C1645.23,1747.94 1653.7,1747.65 1658.69,1744.28C1663.17,1741.25 1667.94,1738.12 1673.03,1734.89C1673.91,1734.33 1675.57,1732.67 1677.62,1730C1679.9,1727.03 1680.87,1720.93 1683.58,1715.59C1685.52,1711.78 1689.8,1709.46 1691.48,1704.56C1693.01,1700.11 1694.94,1695.04 1695.95,1689.78C1697.18,1683.33 1696.75,1676.29 1696.71,1668.73C1696.67,1662.77 1692.31,1657.63 1691.17,1651.05C1690.13,1645.07 1692.42,1637.69 1690.26,1631.26C1689.23,1628.19 1688.06,1625.07 1686.74,1621.9C1686.05,1620.26 1682.46,1619.48 1680.95,1621.47C1680.58,1621.96 1680.19,1622.48 1679.8,1623.01C1677.93,1625.51 1674.08,1626.35 1672.13,1629.12C1670.34,1631.66 1670.44,1636.15 1669.18,1638.09C1668.39,1639.32 1667.76,1640.36 1667.36,1641.09C1666.46,1642.77 1663.94,1647.49 1661.52,1654.22C1660.58,1656.84 1661.99,1659.12 1661.17,1662.28C1660.57,1664.62 1657.69,1667.73 1657.26,1670.32C1656.94,1672.2 1656.68,1674.13 1656.49,1676.12C1656.29,1678.23 1656.4,1682.35 1656.65,1687.08C1656.78,1689.57 1658.37,1691.68 1658.55,1694.31C1658.73,1696.82 1657.48,1699.85 1657.66,1702.13C1658.05,1707.34 1658.38,1711.47 1658.38,1712.4C1658.38,1713.13 1657.32,1713.13 1657.25,1712.53C1657,1710.67 1656.36,1706.97 1655.63,1702.63C1655.25,1700.34 1656.26,1697.32 1655.88,1694.85C1655.46,1692.17 1653.64,1690.03 1653.33,1687.58C1653.12,1685.9 1652.96,1684.34 1652.85,1682.95C1652.73,1681.41 1651.07,1681.09 1650.14,1682.04C1648.26,1683.99 1646.15,1685.86 1644.02,1687.88C1641.71,1690.07 1640.96,1692.96 1638.85,1695.79C1637.11,1698.12 1633.93,1700.25 1632.63,1703.38C1631.49,1706.13 1630.57,1709.26 1629.98,1712.86C1629.86,1713.55 1628.98,1713.18 1629.02,1712.53C1629.29,1708.58 1629.97,1705.24 1630.92,1702.35C1632.12,1698.71 1635.36,1696.3 1637.23,1693.74C1639.17,1691.09 1639.75,1688.32 1641.89,1686.11C1645.53,1682.36 1649.1,1678.72 1651.36,1673.39C1651.6,1672.81 1652.02,1671.17 1652.56,1668.89C1653.03,1666.92 1655.94,1663.84 1656.58,1661.2C1657.27,1658.36 1655.71,1655.93 1656.54,1653C1656.93,1651.62 1657.33,1650.27 1657.74,1648.98C1658.17,1647.62 1657.17,1645.92 1656.17,1646.29C1653.91,1647.13 1651.47,1647.93 1648.91,1648.79C1644.78,1650.17 1637.94,1649.33 1633.41,1651.31C1628.5,1653.46 1625.89,1658.5 1621.08,1662.16C1616.91,1665.34 1612.89,1669.25 1609.21,1674.17C1608.53,1675.08 1607.34,1674.41 1607.85,1673.52C1611.2,1667.63 1615.1,1663.18 1619.34,1659.64C1624.06,1655.7 1626.8,1650.54 1632.08,1648.09C1636.24,1646.16 1642.89,1646.81 1647.09,1644.97C1651.76,1642.93 1656.36,1640.71 1660.7,1637.82C1661.14,1637.53 1662.19,1636.18 1663.6,1634.17C1665,1632.16 1665,1627.43 1666.86,1624.47C1668.56,1621.74 1672.11,1620.83 1673.8,1617.91C1677.03,1612.34 1679.85,1606.95 1680.92,1603.81C1681.38,1602.44 1681.64,1598.88 1681.78,1594.27C1681.88,1590.64 1684.67,1587.1 1684.67,1582.72C1684.67,1578.88 1681.89,1574.24 1681.86,1570.62C1681.86,1569.42 1681.85,1568.25 1681.84,1567.12C1681.83,1565.4 1679.23,1564.57 1677.75,1565.67C1676.51,1566.61 1675.19,1567.53 1673.82,1568.43C1669.16,1571.51 1661.42,1571.66 1656.27,1574.24C1650.22,1577.27 1646.81,1582.6 1642.45,1584.48C1639.11,1585.91 1636.64,1586.94 1635.61,1587.43C1625.35,1592.38 1616.85,1598.28 1609.82,1604.67C1605.63,1608.48 1604.98,1613.46 1601.78,1617.53C1599.3,1620.69 1594.08,1622.89 1592.12,1626.11C1587.71,1633.37 1584.57,1640.67 1582.37,1647.52C1580.8,1652.37 1582.27,1657.49 1581.54,1661.72C1580.35,1668.63 1577.55,1673.98 1577.77,1677.98C1577.92,1680.89 1578.32,1682.82 1578.75,1683.49C1582.09,1688.55 1585.1,1694.33 1587.72,1700.88C1589.47,1705.25 1588.32,1711.28 1589.7,1716.35C1591.04,1721.23 1594.91,1725.14 1595.88,1730.68C1597.23,1738.47 1598.2,1746.91 1598.75,1756.06C1598.78,1756.59 1597.22,1756.76 1597.16,1756.23C1596.2,1748.18 1594.68,1739.79 1592.77,1731.7C1591.53,1726.43 1587.41,1722.59 1585.9,1717.76C1584.32,1712.71 1585.35,1706.68 1583.6,1702.5C1582.06,1698.82 1580.48,1695.56 1578.9,1692.84C1577.69,1690.78 1574.95,1691.48 1574.79,1693.22C1574.59,1695.38 1574.4,1697.37 1574.22,1699.21C1573.84,1703.16 1571.16,1705.59 1570.86,1708.3C1570.17,1714.66 1572.06,1718.85 1571.81,1721C1571.6,1722.8 1571.52,1723.76 1571.56,1724.94C1571.81,1732.42 1572,1739.15 1572.11,1745.17C1572.18,1749.18 1575,1753.04 1574.98,1756.44C1574.97,1761.19 1572.08,1765.19 1571.85,1768.8C1571.5,1774.38 1570.86,1778.64 1569.85,1781.72C1569.4,1783.09 1567.56,1783.15 1567.76,1781.64C1568.13,1778.85 1568.35,1774.24 1568.45,1768.85C1568.53,1764.9 1571.32,1760.71 1571.29,1756.34C1571.26,1752.55 1568.42,1748.59 1568.32,1745.08C1568.22,1741.42 1568.1,1738.06 1567.95,1735.3C1567.78,1732.26 1566.2,1733 1565.41,1735.22C1564.89,1736.69 1564.31,1738.19 1563.67,1739.69C1562.08,1743.49 1557.66,1745.23 1555.55,1748.99C1553.53,1752.57 1553.83,1758.17 1551.51,1761.37C1548.63,1765.33 1545.59,1768.88 1542.54,1771.71C1541.29,1772.87 1539.91,1772.18 1540.97,1770.95C1543.63,1767.88 1546.49,1764.12 1549.32,1759.88C1551.53,1756.56 1551.2,1750.82 1553.26,1747.03C1555.15,1743.54 1559.45,1742.02 1561.03,1738.29C1563.07,1733.48 1564.78,1728.54 1565.96,1723.66C1566.11,1723.06 1566.31,1721.71 1566.56,1719.78C1566.92,1717.04 1565.02,1712.3 1565.52,1707.72C1565.85,1704.67 1568.54,1702.17 1568.9,1698.67C1569.56,1692.21 1570.26,1685.22 1570.91,1678.6C1571.57,1671.92 1574.73,1666.11 1575.22,1661.12C1575.66,1656.51 1574.03,1651.46 1575.29,1647C1575.54,1646.13 1575.8,1645.26 1576.08,1644.39C1576.67,1642.5 1574.4,1641.02 1572.51,1642.43C1564.9,1648.12 1556.58,1656.86 1548.97,1665.99C1544.46,1671.4 1543.61,1677.5 1539.88,1682.62C1536.37,1687.45 1529.92,1691.35 1527.61,1694.97C1524.5,1699.85 1522.7,1703.2 1522.82,1703.89C1523.77,1709.31 1524.02,1714.14 1523.7,1718.6C1523.46,1721.94 1520.79,1725.15 1519.95,1728.16C1518.97,1731.7 1519.73,1735 1518.09,1738.35C1516.77,1741.03 1515.28,1743.7 1513.64,1746.43C1513.05,1747.42 1511.68,1746.79 1512.16,1745.91C1513.75,1743 1515.1,1740.3 1516.23,1737.76C1517.82,1734.17 1516.85,1730.98 1517.59,1727.86C1518.34,1724.71 1520.8,1721.63 1520.8,1718.6C1520.8,1716.87 1520.69,1715.13 1520.47,1713.35C1520.25,1711.54 1517.89,1710.62 1516.78,1712.26C1516.22,1713.08 1515.62,1713.92 1514.99,1714.78C1512.99,1717.5 1509.74,1719.09 1507.55,1721.69C1505.63,1723.96 1504.75,1727.31 1503.26,1728.95C1502.25,1730.07 1501.4,1730.99 1500.81,1731.62C1499.93,1732.55 1498.38,1731.16 1499.37,1730.14C1500.16,1729.33 1500.95,1728.47 1501.73,1727.57C1503.4,1725.65 1504.09,1722.28 1505.72,1720.01C1507.7,1717.27 1510.61,1715.56 1512.56,1712.43C1516.32,1706.42 1520.08,1699.83 1523.95,1693.13C1526.55,1688.64 1532.62,1684.65 1535.37,1680.21C1539.11,1674.14 1539.62,1667.7 1543.8,1662.35C1545.13,1660.66 1546.48,1659.02 1547.86,1657.44C1548.76,1656.42 1547.4,1655.13 1545.32,1655.58C1544.56,1655.74 1543.78,1655.92 1542.96,1656.1C1538.5,1657.08 1533.71,1660.26 1528.8,1661.43C1524.18,1662.54 1519.41,1661.66 1516.45,1662.52C1514.45,1663.11 1513.06,1663.59 1512.58,1663.9C1506.65,1667.81 1501.5,1673.87 1497.05,1680.43C1494.34,1684.42 1494.45,1689.04 1492.25,1693.01C1489.54,1697.88 1484.62,1701.99 1482.6,1705.57C1481.28,1707.9 1480.1,1709.82 1479.05,1711.11C1478.13,1712.24 1476.86,1711.48 1477.55,1710.21C1478.36,1708.72 1479.4,1706.52 1480.65,1703.88C1482.35,1700.27 1486.99,1696.29 1489.39,1691.64C1491.48,1687.58 1491.25,1682.91 1493.79,1678.96C1495.88,1675.71 1498.11,1672.64 1500.45,1669.98C1501.7,1668.56 1500.55,1667.16 1498.65,1667.9C1497.52,1668.35 1496.38,1668.84 1495.25,1669.37C1490.74,1671.48 1487.5,1675.98 1483.33,1678.79C1478.93,1681.77 1473.64,1683.06 1470.32,1685.63C1467.65,1687.69 1465.45,1689.43 1463.9,1690.51C1462.87,1691.23 1461.71,1690.54 1462.42,1689.77C1464.45,1687.62 1466.53,1685.6 1468.65,1683.7C1472.43,1680.32 1477.58,1679.12 1481.54,1676.47C1485.98,1673.51 1489.25,1669.2 1493.76,1667.01C1501.27,1663.37 1508.74,1660.68 1515.77,1658.6C1519.75,1657.42 1524.06,1658.4 1527.68,1657.53C1532.98,1656.27 1537.33,1653.29 1541.46,1652.35C1546.89,1651.11 1551.11,1649.97 1553.56,1648.46C1554.63,1647.8 1556.03,1646.89 1557.48,1645.81C1558.49,1645.05 1557.68,1643.6 1556.35,1643.72C1554.21,1643.91 1552.2,1644.06 1550.31,1644.15C1546.76,1644.34 1543.85,1642 1541.04,1641.9C1536.72,1641.74 1532.95,1643.66 1529.96,1643.03C1525.35,1642.05 1522.04,1640.62 1519.16,1639.15C1518.29,1638.7 1518.39,1637.48 1519.46,1637.86C1522.87,1639.08 1526.69,1639.95 1530.68,1640.54C1534.13,1641.04 1537.95,1638.97 1541.49,1639.08C1544.57,1639.18 1547.37,1641.52 1550.27,1641.39C1555.96,1641.13 1561.1,1640.48 1564.86,1639.64C1566.12,1639.36 1577.77,1634.34 1581.7,1628.57C1582.14,1627.93 1583.27,1625.26 1585.36,1621.47C1587,1618.49 1592.23,1615.83 1595.17,1611.9C1598.12,1607.96 1598.77,1602.74 1603.29,1598.7C1605.83,1596.41 1608.65,1594.18 1611.76,1592.08C1613.48,1590.91 1612.88,1589.02 1610.78,1589.13C1606.03,1589.37 1601.46,1589.48 1597.11,1589.48C1589.79,1589.49 1583.12,1585.88 1577.14,1585.46C1568.84,1584.87 1561.91,1587.37 1556.75,1586.72C1550.87,1585.99 1547.24,1585.51 1546.31,1585.92C1536.72,1590.2 1528.1,1594.39 1520.35,1598.7C1511.52,1603.6 1507.31,1609.97 1500.54,1615.47C1496.47,1618.78 1489.24,1620.94 1485.81,1624.64C1478.68,1632.33 1472.87,1641.01 1468.04,1651.25C1467.55,1652.28 1465.96,1651.67 1466.3,1650.44C1469.08,1640.36 1473.97,1630.99 1482.33,1621.76C1485.7,1618.04 1493.14,1615.66 1497.71,1611.96C1504.17,1606.74 1508.4,1600.18 1517.68,1594.81C1521.94,1592.35 1526.51,1589.86 1531.43,1587.34C1533.12,1586.47 1533.09,1584.05 1530.49,1583.66C1529.72,1583.55 1528.91,1583.43 1528.08,1583.32C1524.46,1582.81 1519.81,1580.46 1515.89,1580.03C1511.62,1579.56 1508.11,1581.03 1505.34,1580.88C1503.7,1580.8 1502.5,1580.79 1501.93,1580.88C1496.87,1581.72 1488.06,1587.05 1478.52,1594.61C1473.77,1598.38 1471.38,1605.4 1466.65,1610.01C1461.97,1614.56 1454.94,1616.68 1451,1621.51C1445.31,1628.5 1440.78,1635.5 1438.51,1641.7C1438.02,1643.02 1436.15,1642.39 1436.4,1640.78C1437.52,1633.41 1441.86,1625.51 1447.78,1617.87C1451.64,1612.9 1458.71,1610.73 1463.45,1606.2C1468.41,1601.45 1471.06,1594.37 1475.97,1590.61C1480.25,1587.33 1484.31,1584.51 1487.81,1582.33C1489.51,1581.27 1489.34,1579.56 1487.46,1579.52C1485.6,1579.48 1483.55,1579.44 1481.33,1579.46C1474.24,1579.51 1466.28,1583.59 1456.86,1586.36C1451.32,1587.99 1444.75,1586.91 1438.94,1590.37C1432.6,1594.15 1426.23,1599.2 1420.09,1605.97C1419.37,1606.76 1417.76,1605.6 1418.42,1604.56C1423.51,1596.49 1429.56,1590.29 1436.38,1585.57C1441.79,1581.83 1448.49,1582.49 1454.8,1580.44C1463.1,1577.73 1471.3,1572.87 1480.77,1572.34C1488.88,1571.88 1497.35,1572.06 1506.04,1572.61C1509.97,1572.85 1513.46,1571.33 1517.48,1571.7C1521.3,1572.06 1525.65,1574.29 1529.53,1574.71C1539.08,1575.74 1548.76,1576.9 1558.4,1577.88C1565,1578.55 1571.62,1575.8 1578.13,1576.18C1584.76,1576.57 1591.28,1580.08 1597.72,1579.96C1611.17,1579.7 1624.1,1578.09 1636.04,1574.11C1636.94,1573.81 1637.9,1573.48 1638.9,1573.12C1643.38,1571.5 1646.28,1566.52 1651.93,1563.52C1656.45,1561.13 1663.62,1560.99 1668.29,1557.53C1675.34,1552.31 1682.25,1545.77 1688.12,1537.64C1689.06,1536.34 1690.43,1534.52 1692.05,1532.28C1695.19,1527.95 1695.01,1521.46 1698.74,1514.65C1701.17,1510.21 1707.71,1505.97 1709.49,1500.94C1711.53,1495.16 1712.9,1489.12 1713.08,1483.08C1713.19,1479.08 1713.76,1455.4 1713.77,1443.51C1713.78,1440.81 1710.96,1440.78 1709.52,1442.53C1706.59,1446.11 1701.58,1448.12 1698.29,1451.87C1695.61,1454.93 1694.7,1459.8 1691.84,1462.32C1685.61,1467.81 1679.05,1473.24 1672.69,1478.9C1669.43,1481.8 1668.53,1486.41 1665.44,1489.47C1661.76,1493.12 1655.95,1495.26 1652.74,1499.25C1651.95,1500.24 1651.18,1501.23 1650.43,1502.24C1646.1,1508.04 1643.99,1515.52 1641.99,1522.79C1641.03,1526.25 1642.43,1529.92 1641.3,1533.09C1640.01,1536.69 1634.15,1539.76 1631.63,1543.3C1626.76,1550.16 1622.11,1556.69 1619.81,1559.53C1619.41,1560.03 1617.8,1559.24 1618.1,1558.68C1619.77,1555.58 1623.83,1548.51 1628.21,1541.52C1630.31,1538.16 1635.82,1535.41 1636.95,1532.24C1638.45,1528.01 1636.86,1524.88 1637.57,1521.85C1638.17,1519.31 1638.75,1516.66 1639.75,1513.02C1640.33,1510.91 1638.24,1510.01 1636.29,1511.48C1634.23,1513.03 1632.05,1514.48 1629.85,1515.84C1626.49,1517.91 1621.91,1517.78 1618.78,1519.43C1615.22,1521.3 1613.19,1524.91 1610.82,1526.29C1607.06,1528.48 1601.24,1531.04 1598.96,1531.74C1598.26,1531.95 1596.57,1530.9 1597.16,1530.46C1599.49,1528.74 1603.7,1526.34 1608.76,1523.42C1611.6,1521.78 1613.54,1517.99 1616.74,1516.05C1619.8,1514.2 1624.1,1514.23 1627.16,1512.16C1632.96,1508.23 1638.48,1503.95 1642.6,1499.51C1644.23,1497.75 1646.03,1495.86 1647.94,1493.88C1651.03,1490.69 1656.72,1488.93 1660.16,1485.51C1663.22,1482.47 1664.01,1477.76 1667,1474.82C1668.58,1473.27 1670.12,1471.74 1671.61,1470.27C1673.51,1468.39 1672.74,1466.78 1669.52,1467.95C1668.49,1468.32 1667.4,1468.7 1666.26,1469.1C1661.06,1470.9 1653.94,1470.99 1647.77,1472.88C1642.62,1474.46 1638.4,1477.9 1634.02,1479.12C1628.55,1480.65 1624.18,1481.76 1622.22,1482.06C1616.91,1482.88 1608.64,1486.34 1601.09,1490.03C1597.31,1491.88 1596.26,1494.62 1593.3,1496.3C1589.59,1498.4 1584.36,1499.29 1583.61,1500.04C1577.61,1506.07 1573.16,1511.68 1568.89,1518.43C1566.92,1521.55 1568.3,1526.61 1566.27,1530.36C1564.39,1533.86 1559.11,1536 1556.95,1540.31C1554.24,1545.7 1551.24,1551.82 1547.73,1558.92C1547.5,1559.39 1545.95,1559.15 1546.18,1558.68C1548.01,1554.82 1550.77,1547.62 1554.4,1539.26C1556.06,1535.46 1561.21,1533.11 1563.22,1529.03C1565,1525.44 1563.6,1520.13 1565.65,1516.63C1567.13,1514.09 1568.69,1511.6 1570.33,1509.23Z"/>
        </g>
    </g>
</svg>
