<?xml version="1.0" encoding="UTF-8" standalone="no"?>
<!DOCTYPE svg PUBLIC "-//W3C//DTD SVG 1.1//EN" "http://www.w3.org/Graphics/SVG/1.1/DTD/svg11.dtd">
<svg width="100%" height="100%" viewBox="0 0 323 441" version="1.1" xmlns="http://www.w3.org/2000/svg" xmlns:xlink="http://www.w3.org/1999/xlink" xml:space="preserve" xmlns:serif="http://www.serif.com/" style="fill-rule:evenodd;clip-rule:evenodd;stroke-linejoin:round;stroke-miterlimit:2;">
    <g transform="matrix(1,0,0,1,-3746.67,1997.39)">
        <g transform="matrix(0.6016,0,0,0.6016,3602.03,-2088.89)">
            <path d="M509.249,155.118C509.187,150.992 517.516,151.116 517.783,155.392C518.131,160.98 518.644,172.223 519.199,185.595C520.333,212.932 521.641,249.166 522.064,264.169C522.112,265.879 523.654,266.105 524.535,264.8C539.109,243.2 578.227,196.477 594.544,182.075C597.771,179.227 602.718,183.072 600.222,185.966C584.12,204.633 524.9,279.542 524.69,289.332C524.052,318.986 522.4,381.322 522.983,410.976C523.009,412.322 524.48,413.138 525.24,412.149C536.576,397.39 555.329,375.321 564.246,363.024C567.452,358.602 573.288,337.778 575.829,324.665C578.873,308.955 581.206,278.268 582.508,268.764C583.059,264.745 589.017,264.714 589.47,268.747C590.34,276.491 589.088,303.548 588.066,316.013C587.305,325.292 585.243,336.875 583.337,343.539C596.072,330.629 611.736,317.832 623.76,308.218C628.085,304.76 633.611,281.246 636.451,267.227C639.807,250.661 642.886,219.007 643.898,208.821C644.148,206.307 649.561,206.151 649.491,209.148C649.164,223.204 647.774,252.627 641.566,293.013C641.494,293.479 642.179,294.282 642.566,294.013C659.348,282.361 699.816,258.499 711.748,253.426C714.754,252.149 717.623,256.252 715.037,257.979C695.743,270.858 660.766,293.487 614.876,333.217C584.286,359.7 559.87,388.734 528.324,439.559C525.9,443.464 527.002,451.608 527.228,456.509C527.309,458.272 529.478,459.24 530.827,458.101C542.223,448.483 555.475,439.854 567.569,432.903C584.244,423.319 610.901,411.774 626.429,405.886C632.807,403.468 648.086,382.281 656.945,369.625C663.686,359.996 674.025,345.909 677.292,340.826C678.747,338.561 682.77,340.061 681.566,343.013C679.422,348.268 670.259,362.691 664.117,372.227C658.478,380.984 651.91,389.553 645.797,398.638C645.046,399.755 646.297,401.512 647.647,401.275C658.29,399.413 668.487,398.134 683.185,396.844C691.218,396.14 713.673,382.94 728.328,361.136C738.538,345.946 742.792,326.894 744.066,319.013C744.663,315.321 749.003,316.016 749.066,319.013C749.256,328.133 743.443,350.776 736.844,361.215C727.973,375.245 718.606,386.146 706.077,395.041C703.864,396.612 704.24,399.98 706.809,400.257C731.208,402.893 765.7,406.722 774.269,407.92C777.913,408.429 777.991,414.209 774.418,414.243C766.026,414.324 708.727,407.103 684.379,408.358C665.193,409.348 627.983,423.176 627.688,423.323C625.753,424.284 626.017,427.092 628.188,427.588C648.238,432.168 664.824,439.509 683.785,453.531C697.479,463.659 707.071,475.367 708.566,477.013C710.102,478.705 707.634,481.592 706.066,480.013C695.11,468.985 675.521,454.456 658.785,447.254C642.204,440.12 612.349,434.19 605.649,436.806C575.014,448.765 558.829,469.42 539.354,492.538C536.928,495.419 538.122,563.12 539.397,582.596C539.941,590.905 596.533,624.497 612.599,630.736C621.396,634.152 648.365,623.88 688.86,624.136C702.98,624.225 714.266,630.543 729.231,633.486C742.209,636.039 758.658,636.668 771,642.5C774.723,644.259 772.452,648.622 769.783,647.768C757.024,643.687 740.878,645.704 728.46,643.519C713.943,640.963 703.159,634.572 688.206,634.927C672.668,635.295 656.633,637.327 639.554,641.217C638.134,641.54 637.846,642.663 639.145,642.859C651.315,644.687 664.023,645.292 673.855,648.998C687.682,654.209 695.871,667.713 705.924,674.58C723.218,686.394 736.42,695.654 743.133,707.217C745.268,710.896 740.453,714.165 738,711.5C725.088,697.473 711.515,690.737 698.71,682.426C688.64,675.891 681.904,663.745 670.42,659.914C660.355,656.555 647.463,656.788 635.104,655.335C634.233,655.232 633.455,656.189 634.084,657.299C637.223,662.844 642.662,676.039 647.247,682.973C652.498,690.916 662.204,698.37 665.514,704.933C668.864,711.575 673.863,729.996 675.843,733.151C678.989,738.164 697.698,740.77 714.923,757.724C717.777,760.532 714.379,765.478 711.133,763.136C695.586,751.922 677.299,743.741 678.527,748.752C679.408,752.345 680.641,785.566 680.75,789.466C680.896,794.687 673.563,796.261 673.04,791.208C670.198,763.768 663.005,728.663 656.094,713.02C651.901,703.528 642.425,697.402 635.533,689.643C626.599,679.585 621.306,664.581 602.491,652.67C583.494,640.645 556.944,627.492 538.164,621.402C536.706,620.929 534.927,622.269 534.582,623.648C532.784,630.839 533.899,649.801 537.12,656.075C541.166,663.956 553.129,671.05 558.9,680.049C563.045,686.511 564.804,695.744 567.505,700.225C574.379,711.63 603.426,734.648 612.018,749.252C618.65,760.523 616.769,774.972 619.061,787.847C622.004,804.376 628.469,823.967 633.974,835.573C635.938,839.714 629.988,842.585 627.658,839.279C620.734,829.452 611.948,809.181 607.816,791.956C605.085,780.571 606.444,765.701 600.924,756.773C595.335,747.734 573.472,733.223 569.424,730.345C567.672,729.099 565.696,729.605 565.428,731.579C563.21,747.88 555.083,764.225 553.659,781.541C552.052,801.097 575.694,815.032 562.908,860.758C560.576,869.097 552.033,880.288 549.415,882.957C546.006,886.431 538.863,881.042 541.666,876.221C544.269,871.743 548.776,865.563 551.693,855.12C560.968,821.913 543.581,811.996 540.611,793.524C540.273,791.427 525.954,803.512 522.698,805.309C519.023,807.337 516.547,802.17 519.208,799.828C522.913,796.57 539.952,782.865 540.115,781.369C541.713,766.639 549.596,747.191 550.637,729.779C551.352,717.804 547.392,701.512 542.065,690.154C536.844,679.022 523.185,675.453 518.675,661.631C516.241,654.174 515.341,644.19 513.87,637.397C513.529,635.823 511.625,636.032 511.06,637.447C503.593,656.157 494.68,678.024 486.42,695.782C485.889,697.522 493.503,706.967 505.744,709.296C508.769,709.871 509.305,714.514 505.212,714.14C490.573,712.803 484.606,704.432 482.61,705.688C479.925,707.375 475.058,748.909 475.967,772.064C476.375,782.441 483.77,802.039 485.554,817.045C488.894,845.135 478.85,862.15 480.262,873.496C480.943,878.961 473.136,880.328 471.476,875.09C467.942,863.938 475.725,842.192 472.776,818.594C471.488,808.288 463.194,786.047 462.17,773.763C460.459,753.224 465.409,724.755 462,722.5C459.689,720.972 452.761,727.902 450.298,731.622C445.917,738.238 443.784,747.67 440.202,756.718C433.859,772.737 420.615,775.747 415.927,791.984C409.507,814.219 408.425,838.231 407.607,846.486C407.148,851.116 398.097,851.151 398.42,845.449C399.447,827.292 398.153,811.739 403.544,789.094C407.505,772.458 421.192,765.28 426.855,751.584C429.807,744.445 431.054,731.823 435.832,723.854C446.685,705.754 456.839,705.454 463.102,693.749C473.149,674.971 481.831,649.363 489.347,625.708C489.644,624.774 489.18,624.126 488.368,624.494C471.188,632.301 453.147,640.577 435.818,645.978C430.27,647.708 420.622,676.006 409.929,689.102C402.548,698.143 384.991,704.562 376.466,716.375C371.899,722.704 366.224,732.348 361.153,759.708C357.06,776.032 348.177,790.197 338.2,801.353C334.278,805.739 327.131,801.448 330.818,797.062C340.385,785.679 347.604,775.438 351.067,756.589C352.641,748.025 355.76,735.844 354.043,734.462C352.326,733.079 336.769,738.674 328.636,743.893C315.384,752.398 308.69,764.862 299.996,768.505C295.739,770.288 292.135,765.03 296.611,762.482C305.009,757.702 312.283,744.827 323.298,736.49C333.946,728.43 348.41,724.895 352.461,720.762C355.534,717.628 360.064,709.619 364.969,705.072C372.094,698.467 388.775,688.601 395.21,681.13C402.125,673.101 406.971,660.449 409.135,651.732C409.325,650.967 408.784,650.208 407.629,650.219C397.354,650.322 385.491,649.284 382.653,650.516C376.142,653.344 361.157,666.385 354.025,672.752C326.067,697.71 310.305,679.063 289.709,704.378C286.445,708.39 281.334,703.857 283.875,700.089C300.392,675.596 325.406,681.423 340.408,667.264C352.035,656.291 357.826,649.252 363.277,644.857C344.497,641.761 319.619,651.661 300.938,652.062C284.358,652.419 253.656,648.806 243.739,648.916C240.742,648.949 238.627,642.607 242.687,641.768C252.536,639.733 279.945,641.961 299.529,639.908C319.831,637.78 343.373,626.384 364.5,629C385.166,631.559 406.5,631.003 426.881,627.218C446.771,623.524 458.67,613.856 470.315,606.199C480.595,599.44 487.597,591.38 488.75,581.776C491.494,558.919 494.224,497.951 491.118,491.662C484.991,479.254 437.309,435.212 423.688,433.941C412.466,432.894 388.756,440.153 372.612,447.117C354.425,454.963 335.874,465.456 314.566,481.013C312.269,482.69 309.408,479.104 311.56,477.057C327.921,461.489 369.203,433.427 404.038,426.322C405.56,426.011 405.85,424.303 404.481,423.736C394.878,419.756 368.269,411.107 332.714,410.168C304.382,409.419 274.062,411.105 245.233,416.197C241.172,416.915 240.325,410.691 244.566,409.513C257.409,405.946 300.026,398.616 319.436,397.368C320.639,397.291 320.962,395.552 319.969,394.732C289.795,369.808 277.299,332.39 273.884,316.449C273.131,312.934 278.491,311.215 279.566,315.013C281.105,320.451 292.639,349.93 303.112,363.517C313.557,377.067 335.795,396.166 342.405,396.537C358.919,397.465 375.978,400.625 390.235,403.048C391.643,403.288 392.522,401.365 391.569,400.248C369.889,374.865 353.093,356.277 341.304,346.153C337.649,343.014 343.807,338.197 346.874,340.442C353.714,345.449 372.194,362.36 383.555,374.997C395.964,388.8 409.072,400.982 421.408,411.707C425.824,415.547 457.249,427.591 495.743,459.259C496.921,460.229 499.089,459.453 499.114,458.1C499.286,449.065 498.908,439.445 498.479,433.397C498.154,428.805 464.963,383.392 426.601,345.887C384.264,304.495 337.74,272.182 318.074,257.93C314.686,255.475 317.737,250.985 321.089,252.741C332.166,258.544 363.206,276.577 384.422,292.719C385.406,293.467 386.733,292.763 386.453,291.689C376.716,254.289 372.779,232.199 370.056,200.164C369.697,195.948 376.775,194.756 377.417,198.978C380.484,219.13 393.951,278.518 401.986,301.172C404.394,307.962 420.274,316.717 439.934,335.1C440.773,335.884 442.003,335.065 441.78,333.814C437.649,310.742 435.65,281.28 436.173,266.75C436.319,262.69 442.584,262.73 442.923,266.443C448.434,326.828 456.504,350.759 460.521,355.848C469.8,367.601 488.158,390.689 498.746,404.078C499.569,405.118 501.144,404.627 501.181,403.434C501.926,379.628 502.195,326.743 502.199,302.935C502.2,296.717 473.471,244.034 413.409,184.519C410.211,181.35 414.98,176.734 418.643,179.483C442.848,197.648 492.402,254.971 504.359,272.374C505.062,273.397 506.24,273.538 506.344,271.843C507.411,254.392 509.525,173.379 509.249,155.118Z" style="fill:rgb(10,12,10);"/>
        </g>
    </g>
</svg>
