<svg width="212" height="22" viewBox="0 0 212 22" fill="none" xmlns="http://www.w3.org/2000/svg">
  <title>Logotipo Espacio Sutil</title>
  <path
    d="M0 21.2787H0.40649C0.948476 21.2787 1.41229 21.0934 1.79794 20.7227C2.18358 20.352 2.38682 19.9062 2.40767 19.3852V2.55465C2.34513 2.07377 2.12625 1.66803 1.75103 1.33743C1.37581 1.00683 0.92763 0.841531 0.40649 0.841531H0.0312684L0 0.540985H9.16165C9.80787 0.540985 10.5114 0.480876 11.2723 0.360657C12.0331 0.240439 12.5699 0.120219 12.8826 0V3.78689H12.5699V3.2459C12.5699 2.76503 12.3979 2.35428 12.054 2.01366C11.71 1.67304 11.2983 1.49271 10.8189 1.47268H4.44012V10.7596H9.72448C10.1414 10.7395 10.4958 10.5893 10.7876 10.3087C11.0794 10.0282 11.2254 9.6776 11.2254 9.25683V8.83607H11.5381V13.5847H11.2254V13.1339C11.2254 12.7332 11.0847 12.3925 10.8032 12.112C10.5218 11.8315 10.1727 11.6812 9.75575 11.6612H4.44012V20.6475H8.9115C10.4541 20.6475 11.6319 20.3169 12.4448 19.6557C13.2578 18.9945 13.9353 18.0128 14.4773 16.7104H14.79L12.9764 21.5792H0V21.2787ZM17.9794 20.5874C17.9168 20.347 17.8855 19.8561 17.8855 19.1148C17.8855 18.3734 18.021 17.622 18.292 16.8607H18.6673C18.6464 17.041 18.636 17.2213 18.636 17.4016C18.636 18.4836 19.006 19.3702 19.746 20.0615C20.486 20.7527 21.5127 21.0984 22.826 21.0984C24.2018 21.0984 25.2753 20.7928 26.0466 20.1817C26.8179 19.5706 27.2035 18.7791 27.2035 17.8074C27.2035 16.8356 26.8283 16.0291 26.0779 15.388L19.8242 10.7596C18.8236 9.93807 18.3233 8.83607 18.3233 7.45355C18.3233 6.67213 18.5474 5.95082 18.9956 5.28962C19.4438 4.62842 20.0691 4.10246 20.8717 3.71175C21.6742 3.32104 22.6175 3.12568 23.7015 3.12568C24.7854 3.12568 25.7443 3.21585 26.5782 3.39618H27.61L27.6726 6.67213H27.3286C27.3286 5.8306 27.0264 5.17942 26.4218 4.71858C25.8173 4.25774 24.9522 4.02732 23.8265 4.02732C22.7009 4.02732 21.7733 4.30282 21.0437 4.85383C20.3141 5.40483 19.9493 6.11612 19.9493 6.98771C19.9493 7.85929 20.3558 8.61567 21.1687 9.25683L27.485 13.9454C28.4439 14.7067 28.9233 15.7687 28.9233 17.1311C28.9233 18.4936 28.3865 19.6457 27.313 20.5874C26.2394 21.5291 24.9314 22 23.3888 22C22.3674 22 21.3459 21.8798 20.3245 21.6393C19.303 21.3989 18.5213 21.0483 17.9794 20.5874ZM37.7723 13.3443V13.0437C38.2517 13.1639 38.6895 13.224 39.0855 13.224C39.4816 13.224 39.8047 13.214 40.0549 13.194C40.305 13.174 40.6594 13.1088 41.118 12.9986C41.5766 12.8884 41.9935 12.7131 42.3687 12.4727C43.2442 11.9517 43.8905 11.1302 44.3074 10.0082C44.4533 9.60747 44.5262 9.06648 44.5262 8.38525C44.5262 7.16302 44.0885 6.20128 43.213 5.5C42.3375 4.79873 41.1284 4.44809 39.5858 4.44809H36.5528V19.6557C36.5736 20.2969 36.8759 20.7678 37.4596 21.0683C37.7306 21.2086 38.0328 21.2787 38.3664 21.2787H38.8041V21.5792H32.3316V21.2787H32.7693C33.2696 21.2787 33.6917 21.1234 34.0357 20.8128C34.3796 20.5023 34.562 20.1266 34.5829 19.6858V5.43989C34.562 4.97905 34.3796 4.59836 34.0357 4.29781C33.6917 3.99727 33.2696 3.847 32.7693 3.847H32.3316V3.54645H39.6484C41.8372 3.54645 43.5726 4.00729 44.8546 4.92896C46.1366 5.85064 46.7776 7.0929 46.7776 8.65574C46.7776 9.77778 46.5066 10.7596 45.9646 11.6011C44.9015 13.2441 43.2547 14.0656 41.0242 14.0656C39.9194 14.0656 38.8354 13.8251 37.7723 13.3443ZM66.8206 21.2787H67.0708V21.5792H60.6608V21.2787H60.9109C61.307 21.2787 61.6092 21.1485 61.8177 20.888C62.0262 20.6275 62.1304 20.3821 62.1304 20.1516C62.1304 19.9212 62.0887 19.6958 62.0053 19.4754L60.2855 15.4781H52.3746L50.6549 19.3852C50.5506 19.6457 50.4985 19.8912 50.4985 20.1216C50.4985 20.352 50.6028 20.6025 50.8112 20.873C51.0197 21.1434 51.3323 21.2787 51.7493 21.2787H51.9994V21.5792H46.0271V21.2787H46.2773C46.715 21.2787 47.158 21.1334 47.6062 20.8429C48.0544 20.5524 48.4244 20.1166 48.7162 19.5355C53.2814 10.1585 55.6578 5.24955 55.8454 4.80874C56.1998 3.96721 56.3874 3.40619 56.4083 3.12568H56.6897L64.413 19.5355C65.0175 20.6976 65.8201 21.2787 66.8206 21.2787ZM56.4083 6.34153L52.7811 14.5765H59.9103L56.4083 6.34153ZM78.3274 22C75.1381 21.98 72.6209 21.1284 70.7761 19.4454C68.9313 17.7623 68.0089 15.4631 68.0089 12.5478C68.0089 9.63251 68.9313 7.33333 70.7761 5.65027C72.6209 3.96721 75.1381 3.12568 78.3274 3.12568C79.6199 3.12568 80.9227 3.28598 82.236 3.60656C83.5493 3.92714 84.6853 4.36794 85.6442 4.92896L86.3322 9.19672H86.0507C85.1544 5.75046 82.5695 4.02732 78.2962 4.02732C75.8155 4.02732 73.856 4.78871 72.4177 6.31148C70.9793 7.83424 70.2602 9.91803 70.2602 12.5628C70.2602 14.286 70.5833 15.7837 71.2295 17.056C71.8757 18.3283 72.8138 19.3151 74.0437 20.0164C75.2736 20.7177 76.7015 21.0683 78.3274 21.0683C79.9534 21.0683 81.3761 20.8329 82.5956 20.362C83.815 19.8912 84.8261 19.1148 85.6286 18.0328C86.4312 16.9508 86.8846 15.6084 86.9888 14.0055H87.2702L86.9263 18.123C86.1133 19.3251 84.9355 20.2719 83.3929 20.9631C81.8503 21.6544 80.1618 22 78.3274 22ZM90.2094 21.2787H90.6472C91.21 21.2787 91.6999 21.1184 92.1168 20.7978C92.5337 20.4772 92.7422 20.0965 92.7422 19.6557V5.46995C92.7422 5.02915 92.5337 4.64845 92.1168 4.32787C91.6999 4.00729 91.1996 3.847 90.6159 3.847H90.2094V3.54645H97.2761V3.847H96.8696C96.3068 3.847 95.8221 3.99727 95.4156 4.29781C95.0091 4.59836 94.785 4.96904 94.7434 5.40984V19.6858C94.7642 20.1266 94.9831 20.5023 95.4 20.8128C95.8169 21.1234 96.3068 21.2787 96.8696 21.2787H97.2761L97.3074 21.5792H90.2094V21.2787ZM105.343 4.31284C106.948 3.5214 108.715 3.12568 110.643 3.12568C112.572 3.12568 114.338 3.5214 115.943 4.31284C117.548 5.10428 118.825 6.22131 119.774 7.66394C120.722 9.10656 121.196 10.7395 121.196 12.5628C121.196 14.3862 120.722 16.0191 119.774 17.4617C118.825 18.9044 117.548 20.0214 115.943 20.8128C114.338 21.6043 112.691 22 111.003 22C109.314 22 107.824 21.7696 106.532 21.3087C105.239 20.8479 104.119 20.2067 103.17 19.3852C102.222 18.5638 101.471 17.5619 100.919 16.3798C100.366 15.1976 100.09 13.8101 100.09 12.2172C100.09 10.6243 100.564 9.10656 101.513 7.66394C102.461 6.22131 103.738 5.10428 105.343 4.31284ZM104.765 18.709C106.339 20.3019 108.293 21.0984 110.628 21.0984C112.962 21.0984 114.922 20.3019 116.506 18.709C118.09 17.1161 118.883 15.0674 118.883 12.5628C118.883 10.0583 118.09 8.00956 116.506 6.41667C114.922 4.82377 112.962 4.02732 110.628 4.02732C108.293 4.02732 106.339 4.82377 104.765 6.41667C103.191 8.00956 102.404 10.0583 102.404 12.5628C102.404 15.0674 103.191 17.1161 104.765 18.709ZM132.453 20.347C132.391 20.0665 132.359 19.5255 132.359 18.724C132.359 17.9226 132.516 17.071 132.828 16.1694H133.11C133.089 16.3898 133.078 16.6102 133.078 16.8306C133.078 18.0528 133.464 19.0697 134.235 19.8811C135.007 20.6926 136.028 21.0984 137.3 21.0984C138.613 21.0984 139.692 20.7177 140.536 19.9563C141.38 19.1949 141.802 18.2382 141.802 17.0861C141.802 15.934 141.396 14.9973 140.583 14.276L134.579 8.92623C133.454 7.92441 132.891 6.7122 132.891 5.28962C132.891 3.86703 133.386 2.64982 134.376 1.63798C135.366 0.62614 136.706 0.120219 138.394 0.120219C139.186 0.120219 140.083 0.220401 141.083 0.420765H142.303V4.11749H142.021C142.021 3.17578 141.682 2.42441 141.005 1.86339C140.328 1.30237 139.457 1.02186 138.394 1.02186C137.331 1.02186 136.44 1.36248 135.721 2.04372C135.001 2.72496 134.642 3.5765 134.642 4.59836C134.642 5.62022 135.059 6.50182 135.893 7.24317L142.053 12.7131C143.095 13.6348 143.616 14.8971 143.616 16.5C143.616 18.1029 143.084 19.4203 142.021 20.4522C140.958 21.4841 139.541 22 137.769 22C136.852 22 135.877 21.8648 134.845 21.5943C133.813 21.3238 133.016 20.908 132.453 20.347ZM166.192 3.54645V3.847H165.723C165.16 3.847 164.733 4.05738 164.441 4.47814C164.316 4.65847 164.243 4.86885 164.222 5.10929V15.2377C164.222 17.3215 163.529 18.9695 162.142 20.1817C160.756 21.3939 158.854 22 156.436 22C154.018 22 152.111 21.3989 150.714 20.1967C149.317 18.9945 148.619 17.3515 148.619 15.2678V5.13934C148.619 4.77869 148.473 4.47313 148.181 4.22268C147.889 3.97222 147.535 3.847 147.118 3.847H146.649V3.54645H152.59V3.847H152.121C151.704 3.847 151.35 3.97222 151.058 4.22268C150.766 4.47313 150.62 4.77869 150.62 5.13934V14.9071C150.62 16.8506 151.136 18.3834 152.168 19.5055C153.2 20.6275 154.659 21.1885 156.545 21.1885C158.432 21.1885 159.943 20.6576 161.079 19.5956C162.215 18.5337 162.783 17.0811 162.783 15.2377V5.13934C162.763 4.75865 162.612 4.44809 162.33 4.20765C162.049 3.96721 161.699 3.847 161.283 3.847H160.814V3.54645H166.192ZM183.014 4.41803H177.355V19.6858C177.375 20.3069 177.688 20.7678 178.293 21.0683C178.564 21.2086 178.866 21.2787 179.199 21.2787H179.543V21.5792H173.102V21.2787H173.477C173.978 21.2787 174.405 21.1184 174.759 20.7978C175.114 20.4772 175.301 20.0965 175.322 19.6557V4.41803H169.663C169.183 4.41803 168.803 4.56831 168.521 4.86885C168.24 5.1694 168.099 5.53006 168.099 5.95082V6.43169H167.755V3.03552C168.172 3.19581 168.761 3.31603 169.522 3.39618C170.283 3.47632 170.851 3.51639 171.226 3.51639H181.419C182.92 3.51639 184.088 3.3561 184.922 3.03552V6.43169H184.578V5.95082C184.578 5.53006 184.432 5.1694 184.14 4.86885C183.848 4.56831 183.473 4.41803 183.014 4.41803ZM187.079 21.2787H187.517C188.08 21.2787 188.57 21.1184 188.986 20.7978C189.403 20.4772 189.612 20.0965 189.612 19.6557V5.46995C189.612 5.02915 189.403 4.64845 188.986 4.32787C188.57 4.00729 188.069 3.847 187.486 3.847H187.079V3.54645H194.146V3.847H193.739C193.176 3.847 192.692 3.99727 192.285 4.29781C191.879 4.59836 191.655 4.96904 191.613 5.40984V19.6858C191.634 20.1266 191.853 20.5023 192.27 20.8128C192.687 21.1234 193.176 21.2787 193.739 21.2787H194.146L194.177 21.5792H187.079V21.2787ZM197.585 21.2787H198.023C198.523 21.2787 198.945 21.1234 199.289 20.8128C199.633 20.5023 199.816 20.1266 199.837 19.6858V5.46995C199.816 5.02915 199.623 4.64845 199.258 4.32787C198.893 4.00729 198.461 3.847 197.96 3.847H197.585V3.54645H204.058V3.847H203.683C203.182 3.847 202.75 4.00729 202.385 4.32787C202.02 4.64845 201.838 5.02915 201.838 5.46995V20.6475H206.716C207.675 20.6475 208.488 20.4873 209.155 20.1667C209.822 19.8461 210.327 19.4654 210.671 19.0246C211.015 18.5838 211.354 18.0027 211.687 17.2814H212L210.28 21.5792H197.585V21.2787Z"
    fill="white" />
</svg>
