<svg viewBox="0 0 50 50" fill="none" xmlns="http://www.w3.org/2000/svg">
  <path
    d="M25.2038 36.4206C31.6282 36.4206 36.8363 31.2126 36.8363 24.7881C36.8363 18.3637 31.6282 13.1556 25.2038 13.1556C18.7793 13.1556 13.5713 18.3637 13.5713 24.7881C13.5713 31.2126 18.7793 36.4206 25.2038 36.4206Z"
    fill="url(#paint0_radial_209_2)" />
  <path
    d="M18.7988 3.99331C19.44 4.25087 20.0061 4.45966 20.53 4.64105C22.106 3.15322 23.6421 2.93731 24.3934 2.93731C24.5479 2.93731 24.6521 2.94717 24.6647 2.94881L24.9052 2.96854C24.9507 2.96854 29.4427 3.0217 31.3887 7.56082C33.5889 12.6951 35.2817 14.7265 40.188 17.3975C40.2751 17.1679 40.3579 16.9449 40.4543 16.7054C40.7782 15.8938 40.9086 15.1359 40.9196 14.4487C37.1531 12.3153 35.9168 10.674 34.086 6.40398C31.5531 0.489916 25.9169 0.0630205 25.0187 0.0334282C24.8872 0.0180841 24.6734 0 24.3918 0C23.0639 0 20.1135 0.405524 17.5231 3.56422C17.9522 3.68643 18.3774 3.82562 18.7988 3.99331Z"
    fill="url(#paint1_linear_209_2)" />
  <path
    d="M5.56699 14.2276C6.19227 13.9602 6.74904 13.7103 7.25978 13.4631C7.34253 10.6327 8.90105 9.39913 8.97942 9.34049L9.15862 9.18979C9.1767 9.17061 11.161 7.26903 14.1186 7.26903C15.0667 7.26903 16.0344 7.46412 16.9945 7.84663C19.7209 8.93771 21.8981 9.61394 24.3236 9.61394C26.1303 9.61394 27.9859 9.23198 30.1746 8.58479C30.0727 8.35682 29.974 8.14091 29.8721 7.90253C29.523 7.09257 29.0758 6.47169 28.5942 5.97684C26.8022 6.47004 25.5122 6.67664 24.3241 6.67664C22.6127 6.67664 20.9215 6.25468 18.0862 5.12031C16.7775 4.59587 15.442 4.33228 14.1197 4.33228C10.2557 4.33228 7.6538 6.578 7.16717 7.0312C6.57697 7.50193 3.89887 9.94275 4.37453 14.8134C4.74937 14.6057 5.14393 14.409 5.56699 14.2276Z"
    fill="url(#paint2_linear_209_2)" />
  <path
    d="M3.99174 31.0643C4.24656 30.4275 4.45535 29.8625 4.64222 29.3255C2.70503 27.2661 2.933 25.2938 2.94505 25.1968L2.96478 24.9557C2.96478 24.9102 3.01794 20.4176 7.55706 18.4728C12.6913 16.2736 14.7217 14.5809 17.3937 9.67566C17.1647 9.58853 16.9378 9.50249 16.7022 9.40769C15.9421 9.10464 15.1847 8.94901 14.4488 8.93695C12.3137 12.7072 10.6719 13.9435 6.40077 15.775C0.476291 18.315 0.058711 23.9698 0.0302147 24.8494C-0.054178 25.6018 -0.218579 29.223 3.56539 32.3302C3.68486 31.9148 3.81967 31.4945 3.99174 31.0643Z"
    fill="url(#paint3_linear_209_2)" />
  <path
    d="M14.2381 44.0051C13.9685 43.3766 13.7158 42.8214 13.4676 42.3069C10.6382 42.2181 9.39099 40.647 9.35098 40.5927L9.19371 40.408C9.16192 40.3751 6.02295 37.1627 7.85767 32.577C9.93132 27.3907 10.1703 24.7598 8.59145 19.4019C8.36896 19.5022 8.14757 19.6008 7.91192 19.6995C7.10416 20.0458 6.48327 20.4919 5.98952 20.9741C7.14088 25.1412 6.85427 27.1743 5.13025 31.4854C2.73164 37.4773 6.4482 41.7726 7.04443 42.4082C7.48119 42.9508 9.57621 45.2579 13.7005 45.2579C14.0677 45.2579 14.4419 45.2381 14.8217 45.1992C14.6151 44.8271 14.4195 44.4298 14.2381 44.0051Z"
    fill="url(#paint4_linear_209_2)" />
  <path
    d="M31.0523 46.0072C30.4155 45.7519 29.8478 45.5392 29.3239 45.3573C27.7484 46.8484 26.209 47.0638 25.4566 47.0638C25.3021 47.0638 25.198 47.0539 25.1843 47.0523L24.9442 47.032C24.8987 47.032 20.4073 46.9788 18.4613 42.4397C16.2622 37.3055 14.5694 35.2746 9.66476 32.6041C9.57763 32.8321 9.49269 33.0557 9.39788 33.2935C9.07182 34.1073 8.94414 34.8657 8.93701 35.5529C12.6991 37.6858 13.9354 39.327 15.7641 43.5949C18.2986 49.5095 23.9332 49.9359 24.833 49.966C24.964 49.9808 25.1782 50 25.461 50C26.7894 50 29.7393 49.5928 32.328 46.4347C31.9 46.3147 31.4743 46.176 31.0523 46.0072Z"
    fill="url(#paint5_linear_209_2)" />
  <path
    d="M46.318 17.6392C46.1991 18.0524 46.0627 18.4749 45.8906 18.904C45.6396 19.5331 45.4231 20.1041 45.2368 20.6384C47.1806 22.6989 46.951 24.6744 46.9378 24.7714L46.9175 25.012C46.9175 25.0575 46.8644 29.5495 42.3253 31.4944C37.191 33.6941 35.1618 35.3863 32.488 40.2909C32.7177 40.3781 32.9429 40.4646 33.178 40.5589C33.9397 40.8636 34.6981 41.0192 35.4341 41.0302C37.5686 37.2599 39.2104 36.0242 43.4816 34.1927C49.4066 31.6533 49.8236 26.0001 49.8521 25.1194C49.9371 24.3659 50.102 20.7442 46.318 17.6392Z"
    fill="url(#paint6_linear_209_2)" />
  <path
    d="M36.0826 7.38685C38.9136 7.47399 40.1625 9.04676 40.2031 9.10046L40.3609 9.28569C40.3927 9.31802 43.5322 12.5304 41.6975 17.1156C39.6222 22.3013 39.3838 24.9334 40.9632 30.2923C41.1851 30.191 41.4065 30.0934 41.6411 29.9931C42.4488 29.6468 43.0708 29.2018 43.5646 28.7196C42.4126 24.5515 42.6998 22.5178 44.4238 18.2083C46.8213 12.2148 43.1059 7.92061 42.5091 7.28547C42.0729 6.7424 39.9779 4.4342 35.853 4.4342C35.4859 4.4342 35.111 4.45558 34.7318 4.49284C34.9384 4.86877 35.1368 5.26608 35.3176 5.69078C35.5851 6.31496 35.836 6.87556 36.0826 7.38685Z"
    fill="url(#paint7_linear_209_2)" />
  <path
    d="M44.0046 35.3226C43.3783 35.5906 42.8231 35.8416 42.3124 36.0887C42.2291 38.9186 40.6717 40.1505 40.5917 40.2097L40.413 40.3599C40.3944 40.3791 38.4106 42.2812 35.453 42.2812C34.505 42.2812 33.5389 42.0855 32.576 41.7014C29.8491 40.6125 27.6725 39.9357 25.2481 39.9357C23.4424 39.9357 21.5869 40.3171 19.402 40.9643C19.5012 41.1879 19.6009 41.4115 19.7001 41.6477C20.0453 42.4544 20.4881 43.0824 20.9698 43.5756C22.764 43.0813 24.0584 42.8736 25.2481 42.8736C26.959 42.8736 28.6507 43.2955 31.4866 44.4299C32.7947 44.9538 34.1307 45.2185 35.4519 45.2185H35.4536C39.3176 45.2185 41.9189 42.9722 42.4056 42.519C42.9947 42.0483 45.6755 39.6058 45.1982 34.7319C44.8206 34.939 44.4304 35.1407 44.0046 35.3226Z"
    fill="url(#paint8_linear_209_2)" />
  <path
    d="M25.2024 13.2409C18.8629 13.2409 13.7051 18.3985 13.7051 24.7379C13.7051 31.0774 18.8629 36.2355 25.2024 36.2355C31.5418 36.2355 36.6996 31.0774 36.6996 24.7379C36.6996 18.3985 31.5418 13.2409 25.2024 13.2409ZM34.4919 29.9458C34.2583 29.6902 34.0468 29.3959 33.8691 29.0955C33.6883 28.7852 33.5349 28.4611 33.4141 28.1239C33.2943 27.7868 33.2011 27.4394 33.1309 27.0831C33.1183 27.019 33.1093 26.9534 33.098 26.8885C33.1553 26.8215 33.2124 26.7525 33.2713 26.6867C33.5131 26.4194 33.7544 26.1571 34.025 25.9249C34.2944 25.6923 34.5836 25.4825 34.894 25.3034C35.1946 25.1272 35.5242 24.9754 35.8532 24.8674C35.8309 26.7097 35.3393 28.4401 34.4919 29.9458ZM14.5513 24.8604C14.5525 24.8599 14.5537 24.8602 14.5549 24.8597C14.8918 24.9643 15.2305 25.1172 15.541 25.292C15.853 25.4699 16.1476 25.6739 16.4206 25.9056C16.6932 26.1375 16.9476 26.3921 17.186 26.6654C17.2293 26.7147 17.2697 26.7673 17.3121 26.8179C17.2961 26.9048 17.2816 26.9926 17.2632 27.0785C17.1877 27.4312 17.1092 27.7793 16.9911 28.1155C16.874 28.4517 16.7287 28.778 16.5491 29.0883C16.3732 29.3974 16.1585 29.7011 15.9222 29.9625C15.068 28.4512 14.5723 26.7123 14.5513 24.8604ZM15.9225 19.5136C16.1619 19.7726 16.379 20.0744 16.5603 20.3811C16.7413 20.6914 16.8945 21.0152 17.0151 21.3522C17.1356 21.6896 17.2283 22.0369 17.2983 22.393C17.3111 22.4574 17.3198 22.5232 17.3312 22.5881C17.2738 22.6551 17.2172 22.7241 17.1584 22.7897C16.9166 23.0569 16.6748 23.3193 16.4044 23.5514C16.1348 23.7838 15.8455 23.9939 15.5352 24.1728C15.228 24.3526 14.8904 24.5082 14.5547 24.6164L14.551 24.6176C14.5719 22.7652 15.0676 21.0257 15.9225 19.5136ZM25.2186 34.5837C25.1815 34.4552 25.1399 34.3279 25.0905 34.2027C24.9378 33.8329 24.7296 33.4846 24.4772 33.1736C24.3736 33.0465 24.2625 32.9257 24.1465 32.81C24.4924 32.8553 24.8444 32.8809 25.2024 32.8809C25.5879 32.8809 25.9665 32.8521 26.3376 32.7998C26.2085 32.9225 26.0849 33.0516 25.9711 33.1895C25.7182 33.4972 25.5035 33.8397 25.3502 34.2081C25.2997 34.3315 25.2568 34.4569 25.2186 34.5837ZM25.2106 14.8924C25.2476 15.0209 25.2892 15.1482 25.3389 15.2739C25.4914 15.6435 25.6998 15.9915 25.952 16.3031C26.0565 16.4313 26.1689 16.5533 26.2862 16.6698C25.9314 16.6223 25.57 16.5954 25.2024 16.5954C24.8267 16.5954 24.4576 16.623 24.0952 16.6727C24.223 16.5514 24.345 16.4234 24.4578 16.2871C24.711 15.9792 24.9255 15.6367 25.0787 15.2683C25.1295 15.1451 25.1721 15.0195 25.2106 14.8924ZM29.9891 28.1675C30.1162 28.4638 30.2711 28.7477 30.4579 29.0096C30.6095 29.2216 30.777 29.4175 30.9711 29.5946C30.6942 29.9228 30.3902 30.2269 30.0622 30.504C29.8814 30.3147 29.6887 30.146 29.4772 29.995C29.2182 29.8064 28.9352 29.6503 28.6414 29.5186C28.4908 29.4523 28.3361 29.394 28.1786 29.3446C28.2575 29.0273 28.362 28.7153 28.4966 28.4117L28.5075 28.3871C28.5114 28.3783 28.5141 28.3689 28.5155 28.3587C28.524 28.2987 28.4823 28.2433 28.4223 28.2348L28.4218 28.2346C28.0166 28.1467 27.6136 27.9828 27.2404 27.7827C27.2024 27.7621 27.1654 27.7388 27.1278 27.7171C27.5425 27.4484 27.8978 27.0965 28.1696 26.6835C28.1887 26.7167 28.2093 26.7489 28.2277 26.7823C28.4303 27.1512 28.5993 27.5484 28.7111 27.9451C28.7125 27.9533 28.715 27.9625 28.7183 27.9705C28.7418 28.0266 28.8064 28.0535 28.8628 28.03L28.888 28.0191C29.1678 27.9022 29.4488 27.7979 29.7381 27.7224C29.7652 27.7151 29.7935 27.7103 29.8204 27.7035C29.8686 27.8616 29.9247 28.0167 29.9891 28.1675ZM27.6194 31.0588C27.6453 31.3214 27.6935 31.5782 27.7746 31.8312C27.3755 31.9766 26.9599 32.0875 26.5324 32.1635C26.4704 31.9059 26.3865 31.6612 26.278 31.4221C26.1473 31.1292 25.9815 30.8521 25.7922 30.5916C25.6952 30.4583 25.5901 30.3307 25.478 30.2092C25.7051 29.9737 25.9513 29.7561 26.2194 29.5605L26.2415 29.5448C26.2492 29.5392 26.2565 29.5319 26.2625 29.524C26.3 29.4765 26.2916 29.4075 26.2439 29.37L26.2436 29.3698C25.9367 29.0912 25.67 28.7477 25.4466 28.3875C25.4243 28.3522 25.4057 28.3154 25.3844 28.2798C25.8919 28.2539 26.371 28.1225 26.8011 27.9044C26.8011 27.9414 26.8028 27.9785 26.802 28.0153C26.7929 28.4359 26.7408 28.8649 26.6392 29.264V29.2645C26.636 29.2722 26.6341 29.2809 26.6329 29.2897C26.6249 29.3502 26.6675 29.4056 26.7277 29.4138L26.7556 29.4175C27.0562 29.4574 27.352 29.5063 27.6395 29.5857C27.6669 29.5929 27.6935 29.6026 27.7206 29.6106C27.6833 29.7708 27.6548 29.9328 27.6349 30.0957C27.5957 30.4154 27.5892 30.739 27.6194 31.0588ZM22.7882 30.0964C22.7705 29.9323 22.7436 29.7691 22.7076 29.6079C22.7349 29.5997 22.7613 29.5895 22.7887 29.582C23.0772 29.5053 23.3727 29.4528 23.6736 29.4172L23.7017 29.4141C23.7111 29.4131 23.7203 29.4104 23.7293 29.4068C23.7852 29.3843 23.8125 29.3209 23.7898 29.2645L23.7895 29.264C23.6632 28.8692 23.6036 28.4384 23.5903 28.015C23.5891 27.9765 23.5908 27.9373 23.5906 27.8988C24.0185 28.1177 24.4958 28.2508 25.0017 28.2791C24.9843 28.3094 24.9683 28.3403 24.9501 28.3701C24.7318 28.7298 24.4726 29.0752 24.1848 29.3703C24.1782 29.3753 24.1717 29.3821 24.1664 29.3891C24.1294 29.4378 24.1388 29.5068 24.1872 29.5443L24.209 29.5607C24.4503 29.7447 24.6812 29.9357 24.8908 30.1484C24.9109 30.168 24.9288 30.1903 24.9484 30.2102C24.8359 30.3305 24.7299 30.4566 24.6314 30.5878C24.4377 30.8451 24.2702 31.1224 24.1366 31.4146C24.027 31.6564 23.9401 31.9043 23.8837 32.1659C23.456 32.0904 23.0401 31.9798 22.6405 31.8355C22.7172 31.5785 22.7671 31.3226 22.793 31.0585C22.8269 30.7395 22.8221 30.4164 22.7882 30.0964ZM20.3469 30.5076C20.0184 30.2305 19.7137 29.9262 19.4365 29.5978C19.6314 29.4141 19.8032 29.217 19.9577 29.0009C20.1465 28.7419 20.3023 28.4587 20.434 28.1651C20.5003 28.0143 20.5587 27.8594 20.608 27.7018C20.9254 27.781 21.2374 27.8853 21.5407 28.0199L21.5651 28.0308C21.5741 28.0349 21.5837 28.0373 21.5939 28.0387C21.6539 28.0472 21.7094 28.0056 21.7178 27.9456V27.9451C21.8057 27.5401 21.9698 27.1371 22.17 26.7639C22.1874 26.731 22.2075 26.7 22.2254 26.668C22.4931 27.0795 22.8429 27.4324 23.2524 27.7025C23.2246 27.7183 23.198 27.7357 23.1699 27.751C22.801 27.9535 22.4038 28.1227 22.0073 28.2346C21.9988 28.2358 21.9899 28.2382 21.9819 28.2416C21.9258 28.2653 21.8991 28.3297 21.9226 28.3861L21.933 28.4113C22.0499 28.6913 22.1545 28.9721 22.2298 29.2616C22.2373 29.2884 22.2419 29.3168 22.2489 29.3439C22.0913 29.3916 21.9364 29.4477 21.7856 29.5123C21.4896 29.6392 21.2054 29.7943 20.9435 29.9812C20.7269 30.1363 20.5274 30.3082 20.3469 30.5076ZM20.4401 21.3091C20.313 21.0128 20.1578 20.7287 19.9712 20.467C19.8161 20.2501 19.644 20.05 19.444 19.8696C19.7217 19.5419 20.0264 19.2376 20.3553 18.9615C20.5393 19.1558 20.7361 19.3274 20.9518 19.4816C21.211 19.6704 21.4939 19.8263 21.7875 19.958C21.9383 20.0243 22.0932 20.0826 22.2508 20.132C22.1717 20.4493 22.0676 20.7613 21.933 21.0646L21.9221 21.0891C21.9182 21.098 21.9156 21.1077 21.9139 21.1176C21.9054 21.1777 21.9473 21.2331 22.0071 21.2416H22.0076C22.4125 21.3294 22.8153 21.4935 23.1888 21.6937C23.2226 21.7116 23.2551 21.7324 23.2885 21.7516C22.8753 22.0171 22.5197 22.3639 22.2474 22.7723C22.2324 22.7459 22.216 22.7205 22.2012 22.6938C21.9991 22.325 21.8294 21.9278 21.7178 21.531C21.7164 21.5228 21.714 21.5136 21.7106 21.5056C21.6871 21.4492 21.6225 21.4226 21.5661 21.4461L21.5409 21.4565C21.2611 21.5734 20.9801 21.678 20.6911 21.7535C20.6637 21.761 20.6359 21.7653 20.6085 21.7726C20.5608 21.6148 20.5044 21.4599 20.4401 21.3091ZM22.8097 18.4176C22.7838 18.1523 22.7347 17.8931 22.6519 17.637C23.052 17.493 23.4681 17.3831 23.8958 17.3078C23.9577 17.5673 24.042 17.8134 24.1514 18.054C24.2821 18.3467 24.4479 18.6238 24.6369 18.8845C24.734 19.0176 24.8393 19.1452 24.9509 19.2667C24.7238 19.502 24.4777 19.7198 24.2095 19.9151L24.1877 19.9309C24.1797 19.9367 24.1727 19.9435 24.1664 19.9514C24.1291 19.9991 24.1373 20.0681 24.185 20.1056L24.1853 20.1059C24.4922 20.3845 24.7592 20.7279 24.9823 21.0879C25.0039 21.1227 25.0228 21.159 25.0436 21.1944C24.5367 21.2169 24.0582 21.3452 23.6278 21.5591C23.6278 21.5262 23.6264 21.4933 23.6271 21.4604C23.6363 21.0397 23.6881 20.611 23.7898 20.2116C23.7927 20.2039 23.7948 20.1949 23.7961 20.1862C23.8043 20.1257 23.7617 20.0703 23.7012 20.0623L23.6733 20.0587C23.3727 20.0185 23.0772 19.9696 22.7889 19.8904C22.7618 19.8832 22.7354 19.8733 22.7083 19.8658C22.7456 19.7055 22.7741 19.5433 22.794 19.3807C22.8334 19.0612 22.8397 18.7373 22.8097 18.4176ZM27.641 19.38C27.6587 19.5438 27.6858 19.7072 27.7216 19.8684C27.6945 19.8764 27.6679 19.8866 27.6405 19.8941C27.352 19.971 27.0564 20.0236 26.7556 20.0589L26.7277 20.0623C26.7183 20.0633 26.7089 20.0657 26.6999 20.0693C26.6442 20.0918 26.6166 20.1557 26.6394 20.2116V20.2121C26.7657 20.6072 26.8253 21.038 26.8384 21.4613C26.8398 21.5039 26.8379 21.5468 26.8381 21.5891C26.4107 21.3662 25.9331 21.2299 25.4265 21.198C25.4439 21.1675 25.4601 21.136 25.4785 21.106C25.6971 20.7461 25.9563 20.4009 26.2439 20.1061C26.2509 20.1008 26.2574 20.0943 26.2625 20.087C26.2996 20.0386 26.2901 19.9691 26.2417 19.9321L26.2197 19.9154C25.9786 19.7317 25.7477 19.5404 25.5378 19.3279C25.5177 19.3081 25.4998 19.2863 25.4802 19.2662C25.5928 19.1459 25.6988 19.0198 25.7973 18.8886C25.9914 18.6313 26.1587 18.3539 26.2925 18.0618C26.4015 17.8212 26.4884 17.5748 26.5443 17.3146C26.972 17.3915 27.3873 17.5026 27.7867 17.6486C27.7112 17.9027 27.6616 18.1567 27.6359 18.4183C27.6025 18.7368 27.6076 19.06 27.641 19.38ZM30.0719 18.9808C30.3996 19.2582 30.7034 19.563 30.9796 19.8917C30.7903 20.0722 30.622 20.2647 30.4713 20.4752C30.2827 20.7345 30.1268 21.0174 29.9949 21.3113C29.9286 21.4623 29.87 21.617 29.8206 21.7745C29.5033 21.6954 29.1915 21.5913 28.888 21.4567L28.8636 21.4458C28.8544 21.442 28.8449 21.4393 28.8348 21.4379C28.7747 21.4294 28.7191 21.471 28.7108 21.531V21.5315C28.623 21.9365 28.4589 22.3392 28.2587 22.7127C28.2379 22.7522 28.2134 22.7899 28.1914 22.8289C27.9244 22.4126 27.5752 22.0546 27.1639 21.7808C27.1956 21.7624 27.2266 21.7428 27.2588 21.7252C27.6279 21.5228 28.0251 21.3534 28.4221 21.2418C28.4303 21.2403 28.4393 21.2379 28.4472 21.2348C28.5034 21.2111 28.53 21.1464 28.5066 21.09L28.4959 21.0649C28.3792 20.7851 28.2747 20.504 28.1991 20.215C28.1919 20.1877 28.1873 20.1598 28.1805 20.1325C28.3376 20.0848 28.4925 20.0287 28.6433 19.9643C28.9398 19.8372 29.224 19.6823 29.4854 19.4957C29.6979 19.3429 29.8945 19.1752 30.0719 18.9808ZM32.7477 24.7379C32.7477 25.0899 32.7216 25.436 32.6749 25.7751C32.4684 25.6807 32.2622 25.5791 32.0639 25.4706C31.8013 25.3261 31.5467 25.169 31.3044 24.9945C31.1911 24.9132 31.0819 24.827 30.9757 24.7375C31.0817 24.6469 31.1897 24.5593 31.301 24.476C31.5404 24.2972 31.795 24.1384 32.0572 23.991C32.2561 23.8821 32.4652 23.7843 32.6741 23.6954C32.7211 24.0365 32.7477 24.3843 32.7477 24.7379ZM31.8984 23.6746C31.6055 23.8053 31.3283 23.9714 31.0679 24.1604C30.9348 24.2575 30.8072 24.3625 30.6859 24.4743C30.4504 24.2473 30.2326 24.0009 30.037 23.733L30.0213 23.7114C30.0157 23.7037 30.0087 23.6964 30.0007 23.6901C29.9533 23.6528 29.8843 23.6611 29.8468 23.7088L29.8463 23.709C29.5679 24.0159 29.2245 24.2829 28.8643 24.5061C28.8253 24.5303 28.7847 24.5516 28.7452 24.5743C28.7217 24.0648 28.5915 23.5836 28.3749 23.1518C28.4141 23.1518 28.4528 23.1499 28.4918 23.1508C28.9125 23.1603 29.3411 23.2118 29.7405 23.3135C29.7483 23.3164 29.757 23.3188 29.7657 23.3198C29.8262 23.3278 29.8816 23.2854 29.8896 23.2249L29.8937 23.1971C29.9334 22.8964 29.9823 22.6007 30.0617 22.3126C30.0687 22.2855 30.0787 22.2589 30.0864 22.232C30.2466 22.2693 30.4086 22.2981 30.5715 22.3177C30.8912 22.3569 31.2151 22.363 31.5348 22.333C31.795 22.3075 32.0492 22.2601 32.3004 22.1802C32.4447 22.5798 32.555 22.9954 32.6303 23.4229C32.3767 23.4849 32.1348 23.5674 31.8984 23.6746ZM29.8942 25.4895C29.5953 25.2383 29.2782 25.0248 28.941 24.8381C28.8793 24.8047 28.8161 24.774 28.7534 24.7428C28.7534 24.7413 28.7537 24.7399 28.7537 24.7384C28.7537 24.7232 28.7515 24.7082 28.7513 24.6927C28.8084 24.6644 28.8662 24.637 28.9224 24.607C29.2605 24.4242 29.5808 24.2173 29.8915 23.9796C30.038 24.2529 30.2205 24.507 30.4291 24.7392C30.4057 24.7648 30.3795 24.7876 30.3565 24.8139C30.1791 25.0223 30.0213 25.2479 29.8942 25.4895ZM25.3459 28.4459C25.5286 28.784 25.7358 29.104 25.9735 29.4148C25.7 29.5615 25.4459 29.7435 25.214 29.9524C25.1883 29.9291 25.1658 29.9028 25.1397 29.8802C24.931 29.7023 24.7049 29.5448 24.4636 29.4175C24.7151 29.1188 24.9286 28.8017 25.115 28.4643C25.1462 28.4067 25.1748 28.3478 25.2043 28.2888C25.2251 28.2888 25.2452 28.2859 25.266 28.2856C25.2924 28.3394 25.3181 28.3936 25.3459 28.4459ZM20.5376 25.4968C20.3909 25.2235 20.2089 24.9691 20.0003 24.7375C20.0235 24.7118 20.0499 24.6893 20.0724 24.6631C20.2503 24.4545 20.4076 24.2284 20.5349 23.9871C20.8336 24.2384 21.1507 24.4521 21.4881 24.6385C21.5419 24.6677 21.5971 24.6941 21.6518 24.7217C21.6518 24.7273 21.651 24.7326 21.651 24.7382C21.651 24.7575 21.6537 24.7764 21.6539 24.7955C21.605 24.82 21.5554 24.8437 21.5068 24.8691C21.1686 25.0519 20.8489 25.2593 20.5376 25.4968ZM25.0833 21.0302C24.9008 20.6921 24.6936 20.3721 24.4559 20.0611C24.7289 19.9144 24.9833 19.7326 25.2154 19.5237C25.2411 19.547 25.2636 19.5736 25.29 19.5961C25.4989 19.7738 25.7247 19.9311 25.966 20.0587C25.7148 20.3574 25.501 20.6744 25.3147 21.0119C25.2832 21.0697 25.2546 21.129 25.2251 21.1881C25.2174 21.1881 25.2101 21.1869 25.2026 21.1869C25.189 21.1869 25.1762 21.1885 25.1629 21.1888C25.1365 21.1358 25.1111 21.0825 25.0833 21.0302ZM26.4213 24.2708C26.1698 24.3042 25.9249 24.3715 25.6891 24.4618C25.8832 24.3013 26.0609 24.121 26.211 23.9181C26.2809 23.8245 26.3443 23.7264 26.4032 23.626C26.6646 23.4788 26.9453 23.367 27.2356 23.2905C27.4778 23.2256 27.7264 23.1879 27.9767 23.1678C27.8349 23.3701 27.6778 23.5621 27.5025 23.7363C27.3031 23.9322 27.0797 24.103 26.8405 24.2463C26.7004 24.2466 26.5605 24.2521 26.4213 24.2708ZM26.6014 24.3754C26.552 24.3996 26.5041 24.4257 26.4535 24.447C26.1306 24.5842 25.7838 24.6583 25.4338 24.6801C25.7494 24.5264 26.087 24.4204 26.4351 24.3848C26.4903 24.379 26.546 24.3785 26.6014 24.3754ZM26.1422 23.8666C25.9309 24.1471 25.6676 24.3846 25.3754 24.5784C25.572 24.2877 25.8113 24.0268 26.095 23.822C26.14 23.7894 26.1877 23.7613 26.2342 23.731C26.2035 23.776 26.1751 23.823 26.1422 23.8666ZM26.0258 23.7301C25.8249 23.8847 25.6465 24.0653 25.487 24.2613C25.5746 24.0251 25.639 23.7802 25.6673 23.5296C25.6814 23.4137 25.6869 23.297 25.6879 23.1804C25.8406 22.9226 26.0277 22.6851 26.241 22.4741C26.4182 22.2966 26.6147 22.1396 26.8214 21.9967C26.7999 22.2432 26.7599 22.4879 26.6951 22.7263C26.62 22.9957 26.5121 23.2556 26.3765 23.4991C26.2555 23.5696 26.1371 23.6444 26.0258 23.7301ZM25.5821 23.5195C25.5395 23.868 25.4301 24.2052 25.274 24.5191C25.2987 24.1694 25.3757 23.8235 25.5187 23.5045C25.5412 23.4536 25.5686 23.4052 25.5937 23.3556C25.5904 23.4103 25.5889 23.4653 25.5821 23.5195ZM25.4132 23.4594C25.3166 23.6937 25.252 23.9397 25.2123 24.189C25.1704 23.9406 25.1031 23.6964 25.0027 23.4653C24.9564 23.3578 24.9032 23.2539 24.8456 23.1525C24.849 22.8526 24.8925 22.5535 24.9717 22.264C25.0368 22.0217 25.1283 21.7871 25.236 21.5603C25.3406 21.7847 25.4279 22.0166 25.4911 22.2557C25.5608 22.5263 25.5976 22.8052 25.602 23.0838C25.5318 23.2053 25.4667 23.3295 25.4132 23.4594ZM24.9235 23.4991C25.061 23.822 25.1348 24.1686 25.1566 24.5186C25.0029 24.2035 24.8969 23.8656 24.8613 23.5173C24.8553 23.4619 24.8548 23.4064 24.8519 23.351C24.8758 23.4006 24.9022 23.4486 24.9235 23.4991ZM24.7473 23.5313C24.7807 23.7826 24.8478 24.0278 24.938 24.2638C24.7776 24.0694 24.5975 23.8915 24.3946 23.7417C24.301 23.6717 24.2029 23.6083 24.1025 23.5495C23.9553 23.2883 23.8435 23.0073 23.7673 22.7173C23.7024 22.4748 23.6646 22.2262 23.6445 21.9759C23.8469 22.1178 24.0388 22.2749 24.2131 22.4503C24.4089 22.6498 24.5798 22.873 24.7229 23.1121C24.7229 23.2523 24.7284 23.3922 24.7473 23.5313ZM24.3428 23.8107C24.6236 24.0217 24.8611 24.2851 25.0547 24.5772C24.764 24.3809 24.5031 24.1413 24.2983 23.8576C24.2656 23.8126 24.2376 23.7649 24.2073 23.7184C24.2526 23.7494 24.2993 23.7777 24.3428 23.8107ZM24.2063 23.9266C24.361 24.1277 24.5418 24.3064 24.7381 24.4656C24.5019 24.3775 24.2567 24.3136 24.0062 24.2848C23.8902 24.271 23.7735 24.2652 23.6571 24.2647C23.3991 24.112 23.1616 23.9247 22.9506 23.7114C22.7734 23.534 22.6163 23.3375 22.4735 23.131C22.7199 23.1525 22.9644 23.1927 23.203 23.2573C23.4724 23.3324 23.7322 23.4401 23.9759 23.5756C24.0458 23.6971 24.1209 23.8155 24.2063 23.9266ZM23.996 24.3705C24.3445 24.4131 24.6817 24.5225 24.9956 24.6784C24.6459 24.6539 24.3 24.577 23.981 24.4337C23.9302 24.4112 23.8817 24.3838 23.8324 24.3584C23.8868 24.3625 23.9415 24.3637 23.996 24.3705ZM23.9357 24.5397C24.17 24.6363 24.4159 24.7009 24.6655 24.7404C24.4169 24.7825 24.1727 24.8495 23.9415 24.95C23.8341 24.996 23.7302 25.0492 23.629 25.1071C23.3291 25.1034 23.0297 25.0601 22.7405 24.981C22.4982 24.9158 22.2639 24.8244 22.0371 24.7166C22.2612 24.6123 22.4931 24.5247 22.7323 24.4615C23.0029 24.3918 23.2817 24.3553 23.5603 24.3507C23.6818 24.4209 23.806 24.486 23.9357 24.5397ZM23.9754 25.0291C24.2983 24.8921 24.6449 24.8178 24.9952 24.796C24.6798 24.9497 24.3421 25.0555 23.9941 25.0916C23.9386 25.0974 23.8832 25.0979 23.8275 25.1008C23.8769 25.0766 23.9251 25.0507 23.9754 25.0291ZM24.0078 25.2056C24.2593 25.1719 24.5043 25.1049 24.7403 25.0146C24.5459 25.1753 24.368 25.3554 24.2179 25.5582C24.148 25.6522 24.0846 25.7499 24.026 25.8504C23.7646 25.9973 23.4836 26.1094 23.1936 26.1859C22.9513 26.2507 22.7025 26.2885 22.4522 26.3088C22.594 26.1062 22.7511 25.9143 22.9264 25.74C23.1261 25.5444 23.3492 25.3731 23.5884 25.23C23.7288 25.2298 23.8687 25.224 24.0078 25.2056ZM24.2869 25.61C24.498 25.3295 24.7611 25.0921 25.0535 24.8984C24.8574 25.1889 24.6178 25.4498 24.3341 25.6543C24.2893 25.6873 24.2414 25.7153 24.195 25.7453C24.2257 25.7003 24.254 25.6531 24.2869 25.61ZM24.4031 25.7461C24.604 25.5916 24.7826 25.4108 24.9419 25.2148C24.854 25.4513 24.7901 25.696 24.7616 25.9465C24.7478 26.0627 24.742 26.1793 24.7413 26.2955C24.5888 26.5535 24.4014 26.7907 24.1882 27.0021C24.0108 27.1792 23.8142 27.3366 23.6077 27.4791C23.6293 27.2327 23.6692 26.9883 23.7341 26.7496C23.8091 26.4804 23.9168 26.2205 24.0524 25.977C24.1734 25.9068 24.292 25.832 24.4031 25.7461ZM24.847 25.9567C24.8896 25.6083 24.9988 25.2712 25.1549 24.9572C25.1305 25.3068 25.0535 25.6524 24.9102 25.9714C24.8877 26.0222 24.8603 26.0707 24.8352 26.1203C24.839 26.0656 24.8403 26.0111 24.847 25.9567ZM25.016 26.0169C25.1126 25.7824 25.1769 25.5367 25.2169 25.2871C25.259 25.5357 25.3258 25.7797 25.4265 26.0111C25.4725 26.1183 25.5257 26.2222 25.5831 26.3234C25.5799 26.623 25.5369 26.9227 25.4575 27.2122C25.3921 27.4544 25.3009 27.6887 25.1932 27.9155C25.0886 27.6914 25.001 27.4593 24.9378 27.2204C24.8681 26.9498 24.8318 26.6709 24.8272 26.3921C24.8974 26.2711 24.9625 26.1464 25.016 26.0169ZM25.5056 25.9775C25.3682 25.6541 25.2943 25.3075 25.2725 24.9575C25.4262 25.2726 25.5325 25.6105 25.5678 25.9586C25.5739 26.014 25.5744 26.0697 25.5773 26.1251C25.5533 26.0757 25.5267 26.0281 25.5056 25.9775ZM25.6819 25.945C25.6484 25.6938 25.5814 25.4486 25.4909 25.2126C25.6516 25.407 25.8317 25.5849 26.0343 25.7347C26.1279 25.8044 26.226 25.8681 26.3264 25.9269C26.4736 26.188 26.5857 26.4691 26.6619 26.759C26.727 27.0016 26.7648 27.2499 26.7851 27.5002C26.5825 27.3584 26.3906 27.2015 26.2163 27.026C26.0202 26.8266 25.8493 26.6034 25.7065 26.364C25.7063 26.2244 25.7005 26.0842 25.6819 25.945ZM26.0861 25.6657C25.8055 25.4546 25.5678 25.1915 25.3742 24.8994C25.6651 25.0952 25.9256 25.3351 26.1308 25.6188C26.1638 25.6635 26.1918 25.7115 26.2219 25.7577C26.1764 25.7272 26.1299 25.6989 26.0861 25.6657ZM26.2228 25.5498C26.0679 25.3486 25.8871 25.17 25.691 25.0105C25.9273 25.0986 26.1722 25.1627 26.423 25.1913C26.5389 25.2051 26.6554 25.2107 26.7716 25.2114C27.0298 25.3641 27.2675 25.5517 27.4786 25.7647C27.6555 25.9424 27.8131 26.1387 27.9556 26.3454C27.7092 26.3234 27.4648 26.2834 27.2261 26.2188C26.957 26.1438 26.697 26.0363 26.4535 25.9007C26.3835 25.7792 26.3083 25.6609 26.2228 25.5498ZM26.4334 25.1059C26.0849 25.0633 25.7474 24.9538 25.4333 24.798C25.7833 24.8224 26.1289 24.8996 26.4479 25.0429C26.499 25.0652 26.5469 25.0928 26.5963 25.118C26.5423 25.1136 26.4876 25.1126 26.4334 25.1059ZM26.4934 24.9367C26.2589 24.8401 26.0132 24.7757 25.7634 24.736C26.012 24.6939 26.2562 24.6268 26.4874 24.5264C26.5946 24.4802 26.6987 24.4269 26.8001 24.3693C27.0998 24.3727 27.3992 24.4163 27.6884 24.4954C27.9307 24.5605 28.165 24.652 28.3916 24.7597C28.1677 24.8643 27.9358 24.9517 27.6969 25.0151C27.4263 25.0848 27.1472 25.1211 26.8686 25.1257C26.7473 25.0555 26.6232 24.9904 26.4934 24.9367ZM27.7252 24.3541C27.4854 24.2945 27.2387 24.2601 26.9916 24.2495C27.1944 24.1152 27.3842 23.9617 27.5565 23.791C27.7538 23.5989 27.9295 23.3863 28.0917 23.1639C28.3294 23.5986 28.4685 24.0934 28.4877 24.6186C28.2405 24.5111 27.9869 24.4196 27.7252 24.3541ZM27.1968 23.1501C26.9594 23.2186 26.7282 23.312 26.5087 23.4268C26.6171 23.2089 26.705 22.9809 26.7689 22.7471C26.8439 22.4816 26.8897 22.2097 26.919 21.9358C27.3532 22.2027 27.7201 22.5663 27.9903 22.9979C27.7223 23.0284 27.4565 23.076 27.1968 23.1501ZM26.1371 22.3719C25.9658 22.5498 25.8128 22.7461 25.6797 22.955C25.6647 22.7122 25.6267 22.4712 25.5652 22.2366C25.4967 21.9677 25.3994 21.7075 25.2873 21.4541C25.2876 21.4533 25.2878 21.4524 25.2883 21.4517C25.8174 21.4655 26.3165 21.6022 26.7553 21.8382C26.5358 21.9997 26.3269 22.1756 26.1371 22.3719ZM24.8306 22.2274C24.771 22.4673 24.7367 22.7137 24.7258 22.9611C24.5914 22.7585 24.438 22.5682 24.2673 22.3961C24.0737 22.1974 23.8597 22.0207 23.6356 21.8576C23.6353 21.8532 23.6349 21.8491 23.6346 21.845C24.0727 21.6068 24.5716 21.4686 25.1005 21.4521C24.9906 21.7031 24.8971 21.9614 24.8306 22.2274ZM23.6266 22.7561C23.6951 22.9935 23.7886 23.2242 23.903 23.444C23.6852 23.3355 23.4574 23.2477 23.2234 23.1838C22.9564 23.1085 22.6826 23.0625 22.4069 23.0332C22.4045 23.0293 22.4019 23.0259 22.3994 23.0223C22.6684 22.5844 23.0358 22.2153 23.4722 21.944C23.5025 22.218 23.5506 22.4903 23.6266 22.7561ZM22.8482 23.8155C23.0263 23.9869 23.2224 24.1398 23.4313 24.273C23.1885 24.288 22.9472 24.326 22.7129 24.3875C22.4437 24.456 22.1838 24.5528 21.9304 24.6653C21.9253 24.6629 21.9202 24.6605 21.9153 24.6581C21.9284 24.1258 22.0657 23.624 22.3036 23.1825C22.4679 23.4074 22.6475 23.6214 22.8482 23.8155ZM22.7039 25.1223C22.9438 25.1816 23.1905 25.2162 23.4378 25.2269C23.235 25.3612 23.045 25.5147 22.8729 25.6856C22.6739 25.8792 22.4972 26.0934 22.3341 26.3173C22.3285 26.3175 22.3227 26.3183 22.3171 26.3185C22.0753 25.8792 21.9345 25.3784 21.917 24.8471C22.1714 24.9594 22.4338 25.0548 22.7039 25.1223ZM23.2323 26.3263C23.47 26.2578 23.7004 26.1641 23.9202 26.0498C23.8118 26.2674 23.7239 26.4957 23.66 26.7295C23.5847 26.9967 23.5388 27.27 23.5095 27.5457C23.5071 27.5474 23.5046 27.5491 23.5022 27.5508C23.0619 27.2836 22.6897 26.9171 22.4159 26.4809C22.6916 26.4509 22.9653 26.4025 23.2323 26.3263ZM24.292 27.1042C24.4634 26.9263 24.6164 26.73 24.7495 26.5213C24.7645 26.7641 24.8025 27.0054 24.864 27.24C24.9325 27.5087 25.0293 27.7689 25.1418 28.022C25.1411 28.0233 25.1406 28.0247 25.1399 28.0259C24.6076 28.016 24.1061 27.8802 23.6639 27.6454C23.8873 27.482 24.0993 27.3034 24.292 27.1042ZM25.5988 27.2487C25.6581 27.0086 25.6927 26.7622 25.7034 26.5148C25.838 26.7179 25.9912 26.9079 26.1621 27.0802C26.3555 27.2785 26.5692 27.4547 26.7926 27.6176C26.3557 27.8596 25.8583 28.0024 25.3292 28.0228C25.4391 27.7723 25.5323 27.5145 25.5988 27.2487ZM26.8025 26.7203C26.7343 26.4829 26.6406 26.2522 26.5261 26.0324C26.744 26.1408 26.9717 26.229 27.2055 26.2926C27.4696 26.3672 27.74 26.4127 28.0125 26.442C27.747 26.8774 27.3854 27.246 26.955 27.5181C26.925 27.2492 26.8773 26.9817 26.8025 26.7203ZM27.5807 25.6609C27.4031 25.4893 27.2063 25.3363 26.9974 25.2029C27.2404 25.1879 27.4817 25.1501 27.7163 25.0884C27.9823 25.0209 28.2393 24.9255 28.4896 24.8147C28.4773 25.3404 28.3429 25.8364 28.111 26.2735C27.9506 26.0561 27.7756 25.8492 27.5807 25.6609ZM29.7054 22.2323C29.6558 22.5019 29.633 22.7764 29.6427 23.0489C29.2584 22.9807 28.8769 22.954 28.4913 22.9613C28.4206 22.9632 28.3497 22.9683 28.2793 22.9724C28.2713 22.9584 28.2623 22.9448 28.2541 22.9308C28.2897 22.8776 28.326 22.8248 28.3601 22.7703C28.5615 22.4431 28.7321 22.1013 28.8825 21.7402C29.1463 21.9038 29.4312 22.0335 29.7279 22.1304C29.7207 22.1647 29.7119 22.1984 29.7054 22.2323ZM27.8506 20.3227C27.9426 20.581 28.0592 20.8303 28.2047 21.0612C27.8378 21.1944 27.4943 21.3621 27.1639 21.5608C27.1049 21.5971 27.0475 21.6361 26.9894 21.6743C26.9741 21.6651 26.9591 21.6552 26.9436 21.6463C26.9478 21.5848 26.9524 21.5231 26.9548 21.4613C26.9657 21.077 26.9461 20.696 26.896 20.3077C27.2046 20.3167 27.5151 20.2869 27.8191 20.2228C27.83 20.2562 27.8392 20.2898 27.8506 20.3227ZM25.9471 17.8887C25.8024 18.1513 25.6458 18.406 25.4713 18.648C25.3897 18.7613 25.3035 18.8705 25.214 18.9772C25.1234 18.8714 25.0361 18.7635 24.9526 18.6519C24.7737 18.4125 24.6151 18.1576 24.4675 17.8957C24.3564 17.6922 24.2564 17.4787 24.1661 17.2654C24.505 17.2187 24.8504 17.1926 25.2021 17.1926C25.5601 17.1926 25.9113 17.2192 26.256 17.2679C26.1606 17.4775 26.0578 17.6871 25.9471 17.8887ZM22.7088 20.2472C22.9784 20.2968 23.2529 20.3196 23.5254 20.3097C23.4572 20.694 23.4306 21.0758 23.4378 21.4611C23.4395 21.5255 23.4444 21.5899 23.448 21.6542C23.4289 21.6651 23.4107 21.6772 23.3918 21.6884C23.3437 21.6564 23.296 21.6235 23.2471 21.5928C22.9198 21.3911 22.5783 21.2207 22.2169 21.0702C22.3808 20.8066 22.5103 20.5215 22.6071 20.2245C22.641 20.232 22.6746 20.2407 22.7088 20.2472ZM20.7993 22.102C21.0575 22.0103 21.3068 21.8934 21.5377 21.7482C21.6709 22.1151 21.8386 22.4586 22.0373 22.7887C22.0705 22.8425 22.1061 22.8947 22.1407 22.9475C22.1288 22.9676 22.1155 22.9872 22.1039 23.0078C22.0485 23.0044 21.9933 22.9998 21.9379 22.9976C21.5537 22.987 21.1727 23.0063 20.7843 23.0567C20.7932 22.7478 20.7634 22.4375 20.6993 22.1333C20.7327 22.1229 20.7663 22.1134 20.7993 22.102ZM20.3706 22.3124C20.4478 22.6009 20.5003 22.8964 20.5354 23.1973L20.5386 23.2254C20.5398 23.2348 20.5422 23.244 20.5458 23.253C20.5683 23.3091 20.6322 23.3362 20.6882 23.3137L20.6886 23.3135C21.0834 23.1871 21.5143 23.1276 21.9376 23.1145C21.9742 23.1133 22.011 23.1148 22.0475 23.1148C21.8275 23.5403 21.6931 24.0157 21.6619 24.5191C21.6358 24.5039 21.6084 24.4898 21.5825 24.4741C21.2226 24.2558 20.8774 23.9965 20.5826 23.7088C20.5773 23.7022 20.5705 23.6957 20.5635 23.6904C20.5151 23.6533 20.4456 23.6625 20.4086 23.7112L20.3921 23.733C20.2082 23.9743 20.0172 24.2052 19.8044 24.4148C19.7846 24.4349 19.7628 24.4528 19.7427 24.4724C19.6224 24.3599 19.4966 24.2538 19.3654 24.1551C19.1081 23.9615 18.8307 23.794 18.5385 23.6603C18.2938 23.5495 18.0428 23.4616 17.7773 23.4055C17.8538 22.978 17.9644 22.5622 18.1101 22.1626C18.3693 22.2405 18.6281 22.2908 18.8948 22.317C19.2136 22.3501 19.5367 22.3453 19.857 22.3117C20.0208 22.294 20.184 22.2671 20.3452 22.231C20.3529 22.2584 20.3631 22.285 20.3706 22.3124ZM17.657 24.7379C17.657 24.3824 17.6834 24.0331 17.7313 23.6906C17.9455 23.7874 18.1595 23.893 18.3655 24.0055C18.6281 24.15 18.8827 24.3069 19.1248 24.4814C19.2381 24.5629 19.3472 24.6491 19.454 24.7387C19.3482 24.8292 19.24 24.9168 19.1284 25.0001C18.889 25.179 18.6341 25.3375 18.3722 25.4851C18.1655 25.5982 17.9487 25.6994 17.732 25.7906C17.6836 25.4464 17.657 25.0952 17.657 24.7379ZM17.7751 26.0598C18.0382 25.9976 18.287 25.9124 18.5308 25.8017C18.8234 25.6708 19.1008 25.505 19.3613 25.316C19.4944 25.2189 19.6222 25.1136 19.7437 25.0015C19.979 25.2286 20.197 25.475 20.3924 25.7432L20.4081 25.7649C20.4139 25.7727 20.4207 25.78 20.4287 25.7862C20.4764 25.8235 20.5454 25.8151 20.5826 25.7676L20.5829 25.7674C20.8615 25.4605 21.2047 25.1937 21.5649 24.9701C21.5958 24.9509 21.6285 24.9342 21.66 24.9154C21.6852 25.42 21.8149 25.8966 22.0298 26.3248C21.9991 26.3246 21.9681 26.3263 21.9371 26.3255C21.5164 26.3163 21.0878 26.2643 20.6884 26.1629C20.6807 26.1597 20.6719 26.1576 20.6632 26.1563C20.6027 26.1484 20.5473 26.1907 20.5393 26.2515L20.5354 26.2791C20.4952 26.5797 20.4466 26.8752 20.3672 27.1635C20.3599 27.1906 20.35 27.217 20.3425 27.2441C20.1823 27.2068 20.0201 27.178 19.8575 27.1582C19.5375 27.1192 19.2136 27.1129 18.8941 27.1432C18.6264 27.1693 18.3647 27.2189 18.1065 27.3034C17.9615 26.9033 17.8511 26.4877 17.7751 26.0598ZM20.7237 27.2441C20.7734 26.9745 20.7961 26.7002 20.7862 26.4277C21.1706 26.4957 21.5523 26.5226 21.9376 26.5151C22.0005 26.5136 22.0635 26.5088 22.1262 26.5054C22.1378 26.5252 22.1504 26.5446 22.1622 26.5642C22.131 26.6114 22.0991 26.6579 22.0688 26.7058C21.8674 27.033 21.6968 27.3748 21.5462 27.7357C21.2826 27.5721 20.9975 27.4423 20.7007 27.3458C20.7085 27.3116 20.7172 27.278 20.7237 27.2441ZM22.5786 29.1536C22.4868 28.8951 22.3699 28.6456 22.2247 28.4149C22.5916 28.2815 22.9351 28.1138 23.2652 27.9153C23.3204 27.8814 23.3739 27.8449 23.4279 27.8093C23.447 27.8204 23.4652 27.8332 23.4845 27.8439C23.4812 27.901 23.4766 27.9579 23.4744 28.0148C23.4635 28.3994 23.4831 28.7799 23.5334 29.1686C23.2246 29.1594 22.9145 29.1892 22.6103 29.2533C22.5994 29.2202 22.5902 29.1865 22.5786 29.1536ZM24.482 31.5872C24.6265 31.3248 24.7834 31.0699 24.9579 30.8276C25.0392 30.7146 25.1256 30.6054 25.2152 30.4992C25.3055 30.6047 25.3933 30.7129 25.4766 30.8247C25.6557 31.0639 25.8143 31.3187 25.9617 31.5809C26.0725 31.7832 26.1718 31.9957 26.2616 32.2078C25.9152 32.2567 25.562 32.2835 25.2024 32.2835C24.8526 32.2835 24.5091 32.2576 24.172 32.2114C24.2678 32.0006 24.3714 31.79 24.482 31.5872ZM27.7206 29.2294C27.451 29.1798 27.1763 29.1568 26.9035 29.1667C26.972 28.7823 26.9986 28.4006 26.9913 28.015C26.9894 27.9458 26.9846 27.8766 26.9802 27.8073C26.9952 27.7986 27.0102 27.7892 27.0255 27.7802C27.0775 27.8149 27.1293 27.8504 27.1821 27.8838C27.5096 28.0852 27.8511 28.2556 28.2122 28.4062C28.0484 28.67 27.9189 28.9549 27.8223 29.2519C27.7884 29.2444 27.7547 29.2357 27.7206 29.2294ZM29.6299 27.3743C29.3716 27.4663 29.1223 27.583 28.8916 27.7282C28.7583 27.3613 28.5905 27.0178 28.3918 26.6879C28.355 26.6274 28.3153 26.5688 28.2759 26.5095C28.2839 26.4952 28.2933 26.4817 28.3013 26.4674C28.3647 26.4715 28.4276 26.4763 28.4908 26.4787C28.8752 26.4896 29.2559 26.47 29.6444 26.4199C29.6357 26.7283 29.6657 27.0388 29.7296 27.3426C29.6965 27.3533 29.6628 27.3627 29.6299 27.3743ZM30.0583 27.164C29.9813 26.8755 29.9286 26.5802 29.8937 26.2791L29.8903 26.251C29.8889 26.2418 29.8865 26.2326 29.8831 26.2234C29.8606 26.1675 29.7967 26.1401 29.7405 26.1629L29.74 26.1631C29.3455 26.2892 28.9149 26.349 28.4913 26.3623C28.4465 26.3635 28.4017 26.3618 28.3567 26.3621C28.5787 25.9324 28.7137 25.4525 28.7428 24.9439C28.7774 24.9638 28.8125 24.9819 28.8464 25.0023C29.2063 25.2206 29.5517 25.4801 29.8465 25.7679H29.8468C29.8521 25.7741 29.8589 25.7807 29.8656 25.7862C29.9141 25.823 29.9833 25.8136 30.0206 25.7652L30.037 25.7434C30.221 25.5023 30.4122 25.2712 30.6247 25.0613C30.6446 25.0415 30.6666 25.0236 30.6869 25.0037C30.8067 25.1165 30.9328 25.222 31.064 25.3208C31.3213 25.5147 31.5987 25.6819 31.8909 25.8158C32.1281 25.9235 32.3713 26.0097 32.6284 26.0661C32.5524 26.4933 32.4418 26.9084 32.2965 27.308C32.045 27.2339 31.7938 27.1843 31.5351 27.1591C31.2163 27.126 30.8931 27.1311 30.5729 27.1647C30.4088 27.1824 30.2457 27.2092 30.0842 27.2451C30.0765 27.2177 30.0661 27.1913 30.0583 27.164ZM31.5123 21.9481C31.2129 21.9541 30.9135 21.9457 30.6167 21.9157C30.4783 21.9016 30.3403 21.8815 30.2038 21.8573C30.2498 21.7261 30.2996 21.5962 30.3543 21.4681C30.4732 21.1939 30.6133 20.9286 30.7668 20.6701C30.8844 20.4764 31.0163 20.2876 31.1526 20.1066C31.5779 20.6519 31.9301 21.2563 32.1944 21.9065C31.9681 21.9278 31.7389 21.9428 31.5123 21.9481ZM29.2736 19.1728C29.0173 19.3284 28.7537 19.469 28.4819 19.5925C28.3545 19.6489 28.2248 19.7 28.0941 19.7476C28.0689 19.6114 28.0469 19.4744 28.0307 19.3364C27.9953 19.0396 27.9854 18.7398 27.9888 18.4389C27.9939 18.2092 28.014 17.9768 28.0421 17.749C28.6927 18.0146 29.2978 18.3682 29.8434 18.7952C29.6585 18.9271 29.4672 19.0551 29.2736 19.1728ZM22.3808 17.7418C22.4033 17.9734 22.4188 18.2087 22.4244 18.4401C22.4304 18.74 22.4219 19.0389 22.3922 19.3359C22.3781 19.4746 22.358 19.6123 22.3338 19.7491C22.2027 19.7029 22.0727 19.6532 21.9446 19.5983C21.6704 19.4794 21.4051 19.3398 21.1464 19.1858C20.9476 19.0648 20.7538 18.9295 20.5686 18.7894C21.1173 18.3609 21.7263 18.0068 22.3808 17.7418ZM19.2615 20.0945C19.3971 20.2843 19.5285 20.4806 19.6493 20.679C19.8052 20.9354 19.9456 21.1992 20.069 21.4708C20.1252 21.5981 20.1765 21.7276 20.2242 21.8585C20.0879 21.8837 19.9511 21.9057 19.8132 21.922C19.5162 21.9573 19.2165 21.9672 18.9156 21.9638C18.6806 21.9583 18.4424 21.9377 18.2096 21.9084C18.4756 21.2532 18.8314 20.6437 19.2615 20.0945ZM17.1373 25.8453C17.0194 25.7221 16.8955 25.604 16.7636 25.4951C16.4557 25.2419 16.1132 25.0272 15.7448 24.8742C15.6214 24.8234 15.496 24.7805 15.3689 24.7423C15.4974 24.7053 15.6248 24.6636 15.7501 24.6143C16.12 24.4615 16.4681 24.2531 16.7793 24.0009C16.902 23.9012 17.0187 23.794 17.1305 23.6824C17.0855 24.0283 17.0599 24.3802 17.0599 24.7382C17.0599 25.1138 17.0877 25.483 17.1373 25.8453ZM18.9166 27.5283C19.2163 27.5222 19.5154 27.5309 19.8122 27.5607C19.9509 27.5747 20.0886 27.5948 20.2254 27.619C20.1791 27.7502 20.1295 27.88 20.0746 28.008C19.956 28.2825 19.8158 28.5475 19.6621 28.806C19.5409 29.0052 19.4051 29.1996 19.2644 29.3855C18.8341 28.8368 18.4778 28.2278 18.211 27.5726C18.4451 27.5496 18.6826 27.5336 18.9166 27.5283ZM21.1556 30.3036C21.4119 30.1477 21.6757 30.0073 21.9473 29.8839C22.0746 29.8277 22.2041 29.7764 22.3348 29.7287C22.3602 29.865 22.382 30.002 22.3982 30.14C22.4336 30.437 22.4435 30.7366 22.4401 31.0375C22.4348 31.2698 22.4142 31.5056 22.3856 31.7363C21.7309 31.4715 21.1219 31.1181 20.5729 30.6901C20.762 30.5551 20.9578 30.4241 21.1556 30.3036ZM28.0474 31.7249C28.0254 31.4966 28.0101 31.265 28.0048 31.036C27.9987 30.7364 28.0072 30.4372 28.0375 30.1404C28.0513 30.0018 28.0716 29.8643 28.0956 29.7273C28.2267 29.7733 28.3567 29.8234 28.4845 29.8781C28.7588 29.9969 29.024 30.1366 29.2828 30.2905C29.4769 30.4084 29.6662 30.5408 29.8477 30.6773C29.3024 31.1048 28.6978 31.4591 28.0474 31.7249ZM31.1565 29.3647C31.0248 29.1802 30.8977 28.9895 30.7803 28.7968C30.6242 28.5408 30.4836 28.2772 30.3606 28.0051C30.3042 27.8778 30.2532 27.7483 30.205 27.6173C30.3415 27.5922 30.4788 27.5704 30.6165 27.5539C30.9137 27.5186 31.2134 27.5084 31.514 27.5118C31.741 27.5169 31.971 27.537 32.1961 27.5646C31.9327 28.2147 31.5813 28.8196 31.1565 29.3647ZM33.2642 23.603C33.3899 23.7368 33.5235 23.8641 33.6658 23.9815C33.9734 24.2345 34.3162 24.4492 34.6846 24.6024C34.8083 24.653 34.9336 24.6958 35.0605 24.7341C34.932 24.7713 34.8046 24.813 34.6795 24.8624C34.3094 25.0151 33.9613 25.2232 33.6501 25.4757C33.5172 25.5839 33.3908 25.7003 33.271 25.8221C33.3182 25.4672 33.3453 25.1059 33.3453 24.7379C33.3451 24.3526 33.316 23.974 33.2642 23.603ZM32.7337 21.6467C32.4485 20.9547 32.0702 20.3106 31.6152 19.7295C31.7919 19.783 31.9724 19.8265 32.1552 19.8573C32.5483 19.9226 32.952 19.9372 33.3478 19.8858C33.4802 19.8682 33.6101 19.8425 33.7391 19.812C33.6464 19.9084 33.5569 20.0083 33.4729 20.1139C33.2291 20.4309 33.0319 20.7853 32.8881 21.1595C32.8278 21.3185 32.7768 21.4817 32.7337 21.6467ZM28.2672 17.1962C28.4422 17.1546 28.6152 17.1037 28.7844 17.0406C29.1579 16.9004 29.5147 16.7114 29.8318 16.4689C29.9375 16.3873 30.0373 16.2999 30.1338 16.2094C30.1016 16.3394 30.0741 16.4706 30.0542 16.6037C30.0014 17.0002 30.008 17.4058 30.0707 17.8016C30.0978 17.97 30.1353 18.1368 30.1806 18.3009C29.5999 17.851 28.9575 17.4777 28.2672 17.1962ZM29.5716 16.0838C29.2613 16.2651 28.9376 16.418 28.6002 16.5386C28.2631 16.6589 27.9155 16.7516 27.5597 16.8215C27.4953 16.8343 27.4294 16.8431 27.3646 16.8544C27.2975 16.7971 27.2285 16.7407 27.1632 16.6819C26.8957 16.4401 26.6336 16.1982 26.4017 15.9279C26.1689 15.6582 25.9588 15.3692 25.7801 15.0587C25.602 14.7544 25.4475 14.4199 25.3394 14.0871C27.1852 14.1106 28.9185 14.6056 30.426 15.4573C30.1697 15.6921 29.8732 15.9051 29.5716 16.0838ZM24.6609 15.0647C24.4827 15.3767 24.2787 15.6713 24.0471 15.9443C23.8152 16.2169 23.5608 16.471 23.2873 16.7097C23.2379 16.7528 23.1854 16.7934 23.135 16.8358C23.0481 16.8198 22.9603 16.8053 22.8741 16.7869C22.5217 16.7114 22.1736 16.6332 21.8372 16.5148C21.5012 16.3977 21.1747 16.2525 20.8644 16.0729C20.5567 15.8979 20.2542 15.6841 19.9935 15.4489C21.5041 14.5986 23.2408 14.106 25.0898 14.0866C24.9857 14.4209 24.8342 14.7566 24.6609 15.0647ZM20.3619 16.6049C20.3442 16.4727 20.3186 16.3427 20.2883 16.2137C20.3846 16.3064 20.4846 16.3958 20.5901 16.4797C20.9072 16.7237 21.2616 16.921 21.636 17.0645C21.7871 17.1221 21.9417 17.1706 22.0978 17.2122C21.4184 17.4937 20.7859 17.8647 20.2135 18.3101C20.2631 18.1421 20.3045 17.9715 20.3338 17.7979C20.3989 17.4044 20.4134 17.0006 20.3619 16.6049ZM17.6662 21.6593C17.6258 21.4933 17.5774 21.3287 17.5173 21.168C17.3772 20.7947 17.1879 20.438 16.9456 20.1209C16.8643 20.0151 16.7769 19.9154 16.6861 19.8188C16.8159 19.8508 16.9471 19.8783 17.0802 19.8984C17.4767 19.9512 17.8823 19.9447 18.2781 19.882C18.4371 19.8566 18.5947 19.8212 18.7501 19.7796C18.3098 20.3511 17.9438 20.9823 17.6662 21.6593ZM16.956 29.363C17.2 29.0457 17.3973 28.6913 17.5408 28.3171C17.597 28.1695 17.6444 28.0184 17.6856 27.8659C17.9675 28.541 18.3391 29.1696 18.7832 29.7386C18.6165 29.6895 18.4466 29.6481 18.2742 29.6193C17.8809 29.554 17.4774 29.5394 17.0814 29.5908C16.9492 29.6084 16.8193 29.6343 16.69 29.6648C16.783 29.568 16.8723 29.4683 16.956 29.363ZM22.147 32.2838C21.9771 32.3247 21.8088 32.3741 21.6445 32.4355C21.2715 32.5755 20.9145 32.7647 20.5974 33.0073C20.4916 33.0886 20.3919 33.1757 20.2953 33.2665C20.3275 33.1365 20.3551 33.0056 20.375 32.8722C20.4277 32.4755 20.4212 32.0703 20.3585 31.6743C20.3326 31.5141 20.297 31.3555 20.2549 31.1989C20.8302 31.6407 21.4656 32.0066 22.147 32.2838ZM20.8576 33.3924C21.1679 33.2116 21.4918 33.0581 21.8289 32.9376C22.1661 32.8173 22.5137 32.7243 22.8697 32.6546C22.9339 32.6418 22.9997 32.6328 23.0643 32.6217C23.1316 32.679 23.2004 32.7357 23.266 32.7945C23.5334 33.0361 23.7956 33.2776 24.0279 33.5482C24.2603 33.8179 24.4704 34.1071 24.6493 34.4174C24.8277 34.7219 24.9818 35.0564 25.09 35.3893C23.241 35.3701 21.5043 34.8778 19.994 34.0273C20.2517 33.7891 20.5524 33.5734 20.8576 33.3924ZM25.7683 34.4116C25.9464 34.0999 26.1505 33.8051 26.3821 33.5323C26.6137 33.2595 26.8684 33.0053 27.1419 32.7667C27.191 32.7233 27.244 32.6827 27.2944 32.6406C27.381 32.6565 27.4694 32.6715 27.5551 32.6897C27.9075 32.7652 28.2555 32.8434 28.5918 32.9615C28.928 33.0787 29.2542 33.2241 29.5648 33.4033C29.8688 33.5761 30.167 33.7869 30.4257 34.0188C28.9183 34.8708 27.1852 35.3653 25.3394 35.389C25.4437 35.055 25.5952 34.7195 25.7683 34.4116ZM30.0673 32.8715C30.0849 33.0036 30.1106 33.1336 30.1409 33.2626C30.0448 33.1697 29.9448 33.0806 29.8393 32.9966C29.5219 32.7526 29.1681 32.5556 28.7936 32.4121C28.6377 32.3528 28.4782 32.3029 28.317 32.2603C29.0052 31.9742 29.6447 31.5959 30.2227 31.1418C30.1699 31.3178 30.1266 31.4966 30.0958 31.6787C30.0302 32.0715 30.0157 32.4755 30.0673 32.8715ZM32.7533 27.7793C32.7952 27.9584 32.8477 28.1353 32.9118 28.3084C33.052 28.6814 33.241 29.0384 33.4835 29.3555C33.5651 29.4613 33.6525 29.5612 33.743 29.6576C33.6133 29.6254 33.4818 29.5978 33.3485 29.5779C32.952 29.5252 32.5466 29.5317 32.1508 29.5944C31.9811 29.6217 31.8129 29.6595 31.6476 29.705C32.0993 29.1207 32.4727 28.4739 32.7533 27.7793ZM34.8881 24.1844C34.5764 24.0062 34.2818 23.8022 34.0085 23.5705C33.736 23.3389 33.4816 23.0843 33.2432 22.8108C33.1999 22.7614 33.1592 22.7089 33.1171 22.6585C33.1331 22.5716 33.1478 22.4837 33.166 22.3976C33.2415 22.0452 33.3202 21.6973 33.438 21.3609C33.5552 21.0249 33.7007 20.6984 33.88 20.3881C34.0521 20.0855 34.2615 19.7885 34.4922 19.5308C35.3396 21.0365 35.8312 22.7669 35.8534 24.6092C35.5235 24.5051 35.1924 24.3555 34.8881 24.1844ZM34.3636 19.3071C34.0257 19.3817 33.6641 19.4177 33.3153 19.4216C32.9561 19.4233 32.5991 19.394 32.2469 19.3301C31.8947 19.2657 31.5472 19.1725 31.2039 19.0549C31.142 19.0338 31.0805 19.0087 31.0188 18.9862C30.9892 18.9029 30.9578 18.8194 30.9307 18.7356C30.8198 18.3927 30.7138 18.0521 30.6472 17.7018C30.5809 17.3523 30.5434 16.9968 30.5439 16.6383C30.5414 16.2883 30.5748 15.9245 30.6465 15.5847C32.1738 16.4962 33.4543 17.7788 34.3636 19.3071ZM19.7805 15.5718C19.8577 15.9146 19.8945 16.283 19.8984 16.6376C19.9001 16.9968 19.8708 17.3538 19.8066 17.7062C19.7422 18.0581 19.649 18.4057 19.5314 18.7489C19.5104 18.8109 19.4849 18.8726 19.4624 18.9346C19.3792 18.9641 19.2959 18.9951 19.2122 19.0227C18.8692 19.1336 18.5286 19.2396 18.1784 19.3057C17.8288 19.372 17.4733 19.4095 17.1148 19.409C16.7592 19.4114 16.3887 19.3773 16.044 19.303H16.0437C16.9575 17.7689 18.2449 16.4834 19.7805 15.5718ZM16.044 30.1736C16.3879 30.0954 16.758 30.0584 17.1143 30.0548C17.4735 30.0531 17.8305 30.0824 18.183 30.1465C18.5351 30.2109 18.8825 30.3041 19.2257 30.4215C19.2877 30.4425 19.3492 30.4677 19.4109 30.4905C19.4404 30.5737 19.4716 30.657 19.499 30.7407C19.6098 31.0837 19.7159 31.424 19.7819 31.7745C19.8485 32.124 19.8858 32.4798 19.8855 32.8381C19.888 33.1924 19.8541 33.5608 19.7805 33.9045C18.2449 32.9927 16.9577 31.7072 16.044 30.1736ZM30.6465 33.8917C30.571 33.5526 30.5347 33.1893 30.5308 32.8386C30.5291 32.4794 30.5584 32.1221 30.6223 31.7699C30.6872 31.418 30.7803 31.0702 30.8977 30.7269C30.919 30.665 30.9442 30.6035 30.9667 30.5418C31.05 30.5122 31.1333 30.4808 31.2168 30.4537C31.56 30.3428 31.9005 30.2368 32.2508 30.1707C32.6005 30.1044 32.9559 30.0669 33.3141 30.0671C33.6627 30.0649 34.0243 30.0981 34.3629 30.169C33.4538 31.6978 32.1733 32.9802 30.6465 33.8917Z"
    fill="url(#paint9_linear_209_2)" />
  <defs>
    <radialGradient id="paint0_radial_209_2" cx="0" cy="0" r="1" gradientUnits="userSpaceOnUse"
      gradientTransform="translate(25.2038 24.7881) scale(11.6325)">
      <stop offset="0.1919" stop-color="#AD6CAD" />
      <stop offset="0.5" stop-color="#E8E3E8" />
      <stop offset="0.5545" stop-color="white" />
      <stop offset="1" stop-color="#5D2E70" />
    </radialGradient>
    <linearGradient id="paint1_linear_209_2" x1="17.5231" y1="8.69875" x2="40.9196" y2="8.69875"
      gradientUnits="userSpaceOnUse">
      <stop stop-color="#010101" />
      <stop offset="1" stop-color="#7E7E7E" />
    </linearGradient>
    <linearGradient id="paint2_linear_209_2" x1="4.31824" y1="9.57284" x2="30.1746" y2="9.57284"
      gradientUnits="userSpaceOnUse">
      <stop stop-color="#A39889" />
      <stop offset="1" stop-color="#42075B" />
    </linearGradient>
    <linearGradient id="paint3_linear_209_2" x1="0" y1="20.6336" x2="17.3937" y2="20.6336"
      gradientUnits="userSpaceOnUse">
      <stop stop-color="#010101" />
      <stop offset="1" stop-color="#7E7E7E" />
    </linearGradient>
    <linearGradient id="paint4_linear_209_2" x1="4.33228" y1="32.3299" x2="14.8217" y2="32.3299"
      gradientUnits="userSpaceOnUse">
      <stop stop-color="#A39889" />
      <stop offset="1" stop-color="#42075B" />
    </linearGradient>
    <linearGradient id="paint5_linear_209_2" x1="8.93701" y1="41.3021" x2="32.328" y2="41.3021"
      gradientUnits="userSpaceOnUse">
      <stop stop-color="#010101" />
      <stop offset="1" stop-color="#7E7E7E" />
    </linearGradient>
    <linearGradient id="paint6_linear_209_2" x1="32.488" y1="29.3347" x2="49.8826" y2="29.3347"
      gradientUnits="userSpaceOnUse">
      <stop stop-color="#010101" />
      <stop offset="1" stop-color="#7E7E7E" />
    </linearGradient>
    <linearGradient id="paint7_linear_209_2" x1="34.7318" y1="17.3633" x2="45.2213" y2="17.3633"
      gradientUnits="userSpaceOnUse">
      <stop stop-color="#A39889" />
      <stop offset="1" stop-color="#42075B" />
    </linearGradient>
    <linearGradient id="paint8_linear_209_2" x1="19.402" y1="39.9752" x2="45.2548" y2="39.9752"
      gradientUnits="userSpaceOnUse">
      <stop stop-color="#A39889" />
      <stop offset="1" stop-color="#42075B" />
    </linearGradient>
    <linearGradient id="paint9_linear_209_2" x1="13.7051" y1="24.7382" x2="36.6996" y2="24.7382"
      gradientUnits="userSpaceOnUse">
      <stop />
      <stop offset="1" stop-color="#42075B" />
    </linearGradient>
  </defs>
</svg>
