<svg viewBox="0 0 107 164" fill="currentColor" xmlns="http://www.w3.org/2000/svg">
<path fill-rule="evenodd" clip-rule="evenodd" d="M53.5937 1.0079C53.5812 0.188364 55.2357 0.212995 55.2886 1.06232C55.4989 4.44095 56.0137 18.2306 56.1389 22.6683C56.1484 23.0079 56.4549 23.0526 56.6297 22.7936C59.5245 18.5033 67.2943 9.22287 70.5353 6.36226C71.1763 5.79657 72.1589 6.56029 71.6631 7.13511C68.465 10.8429 56.7024 25.7217 56.6605 27.6663C56.5338 33.5564 56.2056 45.9377 56.3214 51.828C56.3266 52.0951 56.6188 52.2574 56.7697 52.061C59.0213 49.1294 62.7462 44.746 64.5173 42.3034C65.1541 41.4251 66.3135 37.2887 66.818 34.6844C67.4226 31.5639 67.886 25.4687 68.1448 23.5808C68.2541 22.7825 69.4375 22.7763 69.5275 23.5774C69.7003 25.1157 69.4516 30.49 69.2486 32.9658C69.0975 34.8087 68.6879 37.1096 68.3093 38.4332C70.8388 35.869 73.9501 33.3271 76.3386 31.4175C77.1976 30.7307 78.295 26.0602 78.8591 23.2757C79.5257 19.9852 80.1373 13.6979 80.3385 11.6747C80.3881 11.1754 81.4631 11.1444 81.4492 11.7397C81.3843 14.5316 81.1082 20.3757 79.8751 28.3974C79.8608 28.49 79.9969 28.6495 80.0737 28.5961C83.4071 26.2817 91.4453 21.5421 93.8151 20.5344C94.4122 20.2808 94.982 21.0957 94.4684 21.4386C90.6361 23.9969 83.6887 28.4916 74.5738 36.3828C68.4978 41.6432 63.6481 47.4101 57.3823 57.5053C56.9008 58.2809 57.1197 59.8985 57.1646 60.872C57.1809 61.2222 57.6115 61.4143 57.8796 61.1882C60.1432 59.2776 62.7752 57.5637 65.1776 56.183C68.4895 54.2796 73.7842 51.9865 76.8685 50.817C78.1353 50.3365 81.1701 46.1284 82.9298 43.6146C84.2687 41.702 86.3223 38.904 86.9712 37.8942C87.2602 37.4445 88.0595 37.7424 87.8201 38.3287C87.3943 39.3725 85.5743 42.2373 84.3545 44.1314C83.2343 45.8706 81.9297 47.5728 80.7157 49.3771C80.5663 49.599 80.8148 49.948 81.0829 49.9011C83.1969 49.5313 85.2223 49.2772 88.1417 49.021C89.7375 48.881 94.1974 46.2593 97.1083 41.9282C99.1363 38.9111 99.9812 35.1271 100.234 33.5617C100.353 32.8284 101.215 32.9664 101.227 33.5617C101.265 35.3732 100.111 39.8705 98.7998 41.9439C97.038 44.7309 95.1773 46.8959 92.6887 48.6629C92.2491 48.9749 92.3238 49.6439 92.8343 49.6989C97.6803 50.2225 104.531 50.983 106.233 51.221C106.957 51.3221 106.973 52.4701 106.263 52.4769C104.596 52.4928 93.215 51.0587 88.3789 51.308C84.5682 51.5044 77.1774 54.2512 77.1186 54.2804C76.7342 54.4711 76.7867 55.029 77.2179 55.1275C81.2003 56.0371 84.4948 57.4954 88.2609 60.2805C90.9811 62.2922 92.8861 64.6177 93.1831 64.9446C93.4881 65.2807 92.9979 65.8542 92.6865 65.5405C90.5103 63.3501 86.6194 60.464 83.2952 59.0337C80.0018 57.6165 74.072 56.4389 72.7412 56.9585C66.6561 59.3339 63.4414 63.4365 59.5733 68.0283C59.0913 68.6006 59.3415 100.214 59.5948 104.082C59.7028 105.732 70.9435 112.405 74.1346 113.644C75.8819 114.322 81.2387 112.282 89.282 112.333C92.0866 112.351 94.3283 113.606 97.3008 114.19C99.8785 114.697 103.146 114.822 105.597 115.981C106.337 116.33 105.886 117.197 105.355 117.027C102.821 116.216 99.6142 116.617 97.1476 116.183C94.2642 115.675 92.1222 114.406 89.1521 114.476C86.0659 114.549 82.8809 114.953 79.4886 115.726C79.2065 115.79 79.1493 116.013 79.4073 116.052C81.8246 116.415 84.3488 116.535 86.3016 117.271C89.048 118.306 90.6746 120.989 92.6714 122.352C96.1064 124.699 98.7287 126.538 100.062 128.835C100.486 129.566 99.5298 130.215 99.0425 129.686C96.4779 126.9 93.7819 125.562 91.2385 123.911C89.2383 122.613 87.9004 120.2 85.6194 119.439C83.6202 118.772 81.0595 118.819 78.6047 118.53C78.4317 118.509 78.2771 118.7 78.4021 118.92C79.0256 120.021 80.1059 122.642 81.0166 124.02C82.0596 125.597 83.9874 127.078 84.6449 128.381C85.3103 129.701 86.3032 133.36 86.6965 133.986C87.3214 134.982 91.0375 135.5 94.4588 138.867C95.0257 139.425 94.3508 140.407 93.706 139.942C90.618 137.715 86.9857 136.09 87.2296 137.085C87.4046 137.799 87.6495 144.397 87.6712 145.172C87.7002 146.209 86.2436 146.522 86.1398 145.518C85.5753 140.068 84.1466 133.095 82.7738 129.988C81.941 128.102 80.0588 126.886 78.6899 125.344C76.9154 123.347 75.8641 120.366 72.1269 118.001C68.3536 115.612 63.0801 113 59.3499 111.79C59.0603 111.696 58.7069 111.962 58.6384 112.236C58.2813 113.664 58.5027 117.431 59.1425 118.677C59.9461 120.242 62.3223 121.651 63.4686 123.439C64.2919 124.722 64.6413 126.556 65.1778 127.446C66.5431 129.712 72.3126 134.284 74.0192 137.184C75.3365 139.423 74.9629 142.293 75.4181 144.85C76.0027 148.133 77.2868 152.025 78.3802 154.33C78.7703 155.152 77.5885 155.723 77.1257 155.066C75.7504 153.114 74.0053 149.088 73.1846 145.666C72.6421 143.405 72.9121 140.451 71.8156 138.678C70.7055 136.883 66.363 134.001 65.5589 133.429C65.2109 133.181 64.8184 133.282 64.7652 133.674C64.3247 136.912 62.7104 140.158 62.4276 143.598C62.1084 147.482 66.8043 150.25 64.2647 159.332C63.8015 160.989 62.1046 163.211 61.5846 163.742C60.9075 164.432 59.4887 163.361 60.0455 162.404C60.5625 161.514 61.4577 160.287 62.0371 158.212C63.8793 151.617 60.4258 149.647 59.8359 145.978C59.7688 145.561 56.9246 147.962 56.2779 148.319C55.548 148.721 55.0562 147.695 55.5847 147.23C56.3206 146.583 59.705 143.861 59.7374 143.564C60.0548 140.638 61.6206 136.775 61.8273 133.316C61.9694 130.938 61.1828 127.702 60.1247 125.446C59.0877 123.235 56.3746 122.526 55.4788 119.78C54.9954 118.299 54.8166 116.316 54.5244 114.967C54.4567 114.654 54.0785 114.696 53.9663 114.977C52.4832 118.693 50.7128 123.037 49.0722 126.564C48.9667 126.909 50.479 128.785 52.9104 129.248C53.5113 129.362 53.6177 130.284 52.8047 130.21C49.8971 129.945 48.7118 128.282 48.3154 128.531C47.7821 128.866 46.8154 137.116 46.9959 141.715C47.077 143.776 48.5458 147.669 48.9001 150.65C49.5636 156.229 47.5686 159.609 47.849 161.862C47.9843 162.948 46.4336 163.219 46.1039 162.179C45.4019 159.964 46.9479 155.645 46.3621 150.957C46.1063 148.91 44.4589 144.493 44.2555 142.053C43.9156 137.973 44.8988 132.319 44.2217 131.871C43.7627 131.567 42.3866 132.944 41.8974 133.683C41.0272 134.997 40.6035 136.87 39.8921 138.667C38.6322 141.849 36.0016 142.447 35.0704 145.672C33.7952 150.088 33.5803 154.858 33.4178 156.498C33.3267 157.417 31.5289 157.424 31.5931 156.292C31.797 152.685 31.54 149.596 32.6108 145.098C33.3976 141.794 36.1162 140.368 37.241 137.647C37.8273 136.23 38.075 133.722 39.0241 132.14C41.1797 128.544 43.1966 128.485 44.4406 126.16C46.4362 122.43 48.1607 117.344 49.6535 112.645C49.7125 112.46 49.6204 112.331 49.4591 112.404C46.0467 113.955 42.4633 115.599 39.0213 116.671C37.9193 117.015 36.003 122.636 33.879 125.237C32.413 127.033 28.9257 128.308 27.2324 130.654C26.3253 131.911 25.1981 133.827 24.1909 139.261C23.3779 142.504 21.6135 145.317 19.6318 147.533C18.8528 148.404 17.4332 147.552 18.1655 146.681C20.0658 144.42 21.4997 142.386 22.1875 138.642C22.5002 136.941 23.1197 134.521 22.7786 134.247C22.4376 133.972 19.3476 135.083 17.7321 136.12C15.0999 137.809 13.7703 140.285 12.0435 141.008C11.1979 141.363 10.4821 140.318 11.3711 139.812C13.0392 138.863 14.484 136.305 16.6719 134.649C18.7868 133.049 21.6598 132.346 22.4644 131.525C23.0748 130.903 23.9746 129.312 24.9488 128.409C26.364 127.097 29.6773 125.137 30.9555 123.653C32.329 122.059 33.2915 119.546 33.7213 117.814C33.7591 117.662 33.6516 117.512 33.4222 117.514C31.3813 117.534 29.025 117.328 28.4613 117.573C27.1681 118.134 24.1917 120.725 22.7751 121.989C17.2219 126.947 14.0911 123.243 10.0002 128.271C9.3519 129.068 8.33672 128.168 8.84143 127.419C12.1221 122.554 17.0906 123.712 20.0704 120.899C22.3798 118.72 23.53 117.322 24.6127 116.449C20.8825 115.834 15.9411 117.8 12.2306 117.88C8.93736 117.951 2.83915 117.233 0.86937 117.255C0.274088 117.262 -0.146007 116.002 0.660415 115.835C2.61668 115.431 8.06083 115.874 11.9507 115.466C15.9832 115.043 20.6593 112.78 24.8557 113.299C28.9605 113.807 33.198 113.697 37.2462 112.945C41.1968 112.211 43.5603 110.291 45.8733 108.77C47.9152 107.428 49.3059 105.827 49.535 103.919C50.08 99.3792 50.6091 69.1035 49.9924 67.8543C48.7754 65.3898 39.3043 56.6417 36.5988 56.3894C34.3699 56.1815 29.6604 57.6233 26.4538 59.0065C22.8414 60.5647 19.1567 62.6491 14.9244 65.7391C14.4681 66.0722 13.9 65.36 14.3273 64.9532C17.577 61.861 25.7769 56.2873 32.6958 54.8761C32.9981 54.8143 33.0557 54.4751 32.7838 54.3624C30.8764 53.5719 25.5914 51.854 18.529 51.6673C12.9015 51.5187 6.8794 51.8536 1.15301 52.865C0.346389 53.0076 0.17835 51.7714 1.02052 51.5374C3.57148 50.8289 12.0365 49.373 15.8917 49.1251C16.1306 49.1096 16.1948 48.7644 15.9975 48.6015C10.0042 43.6509 7.52215 36.2185 6.84384 33.0524C6.69448 32.3543 7.75892 32.0128 7.97244 32.7672C8.27812 33.8473 10.5691 39.7024 12.6493 42.4014C14.7239 45.0928 19.141 48.8863 20.4539 48.96C23.734 49.1443 27.1226 49.772 29.9542 50.2533C30.2341 50.3009 30.4086 49.9188 30.2192 49.6969C25.9131 44.6554 22.5768 40.9633 20.2352 38.9524C19.5094 38.3289 20.7326 37.3722 21.3416 37.8181C22.7002 38.8126 26.3708 42.1716 28.6274 44.6814C31.0921 47.4232 33.6957 49.8429 36.146 51.9732C37.0231 52.7359 43.2649 55.1281 50.9108 61.4182C51.145 61.6107 51.5754 61.4568 51.5806 61.1878C51.6146 59.3934 51.5395 57.4827 51.4543 56.2814C51.3897 55.3693 44.7971 46.3491 37.1774 38.8994C28.7682 30.6779 19.5273 24.2597 15.6211 21.429C14.9482 20.9414 15.5544 20.0496 16.2202 20.3984C18.4204 21.551 24.5857 25.1328 28.7996 28.3388C28.995 28.4876 29.2586 28.3478 29.203 28.1345C27.269 20.7058 26.487 16.318 25.9461 9.95521C25.875 9.1178 27.2807 8.88104 27.4082 9.71964C28.0174 13.7223 30.6923 25.5184 32.2883 30.018C32.7665 31.3667 35.9207 33.1055 39.8257 36.757C39.9924 36.9127 40.2369 36.7499 40.1924 36.5016C39.3718 31.9189 38.9748 26.0668 39.0787 23.1809C39.1077 22.3745 40.3521 22.3822 40.4194 23.1199C41.514 35.114 43.1169 39.8673 43.9148 40.8779C45.7579 43.2126 49.4043 47.7984 51.5073 50.4576C51.6708 50.6644 51.9836 50.5669 51.991 50.3299C52.1389 45.6014 52.1924 35.0971 52.1932 30.368C52.1934 29.133 46.487 18.6689 34.5572 6.8477C33.9219 6.21826 34.8692 5.3014 35.597 5.84742C40.4047 9.45546 50.2474 20.8411 52.6224 24.298C52.762 24.5012 52.9958 24.529 53.0165 24.1925C53.2284 20.7261 53.6485 4.63501 53.5937 1.0079Z" fill="currentColor"/>
</svg>
