<svg viewBox="0 0 282 556" fill="currentColor" xmlns="http://www.w3.org/2000/svg">
<path fill-rule="evenodd" clip-rule="evenodd" d="M72.327 406.934C72.7406 406.306 72.0797 405.772 71.2615 406.142C70.8928 406.311 70.5152 406.484 70.1331 406.667C68.9147 407.239 67.2468 407.108 65.9925 407.773C64.8056 408.401 64.0233 409.831 62.9084 410.525C61.3124 411.523 59.8378 412.578 58.6419 413.67C57.8282 414.41 56.5379 416.084 54.9643 418.132C53.8539 419.575 51.2418 420.166 49.9111 421.788C48.5084 423.499 48.3825 426.236 46.881 427.703C45.1816 429.362 43.4642 430.721 41.8457 431.452C41.1624 431.757 40.5195 431.068 41.3422 430.524C42.8663 429.521 44.3454 428.186 45.793 426.644C47.1507 425.2 47.1192 422.533 48.441 420.822C49.6099 419.308 52.132 418.769 53.3009 417.194C54.281 415.868 55.2656 414.546 56.2591 413.267C56.7447 412.639 56.0613 411.631 55.2296 411.79C54.1596 411.996 53.0851 412.24 52.0376 412.578C49.8257 413.295 48.0498 412.648 46.5932 413.234C44.1655 414.204 42.8303 416.201 41.014 417.049C39.5933 417.715 38.42 418.254 37.5882 418.525C36.6666 418.835 36.3833 417.916 36.9723 417.658C38.0018 417.208 39.1842 416.562 40.6363 415.802C42.2548 414.959 43.4012 412.962 45.8514 411.959C47.308 411.364 49.7537 411.771 51.597 411.186C54.1731 410.37 57.1628 409.587 60.6515 408.908C60.9617 408.847 61.4562 408.655 62.0946 408.359C63.1062 407.891 64.0773 406.405 65.6373 405.528C66.6353 404.97 68.11 405.106 69.225 404.45C71.6437 403.03 74.2332 401.455 76.553 400.021C77.596 399.374 79.7316 399.149 80.6217 398.587C82.2447 397.565 82.6133 396.304 84.1419 395.484C85.086 394.973 86.0346 394.481 87.0192 393.989C87.8149 393.586 87.7385 392.442 86.8843 392.297C85.0006 391.978 83.1843 391.706 81.422 391.481C77.8793 391.022 73.6982 392.367 70.6186 392.236C66.4196 392.053 63.5198 390.525 60.1075 390.839C51.7139 391.608 45.5862 393.679 41.0859 396.103C38.7976 397.331 37.8939 399.121 36.3608 400.405C34.6614 401.83 32.4046 402.739 31.411 403.902C31.0828 404.286 30.7861 404.647 30.5208 404.98C28.8664 407.028 26.9692 410.946 23.8581 415.198C22.2531 417.391 19.7265 418.418 17.3438 420.578C15.3432 422.392 13.6212 425.378 10.9013 426.897C9.11648 427.895 7.15633 428.804 5.00285 429.592C4.5263 429.765 4.18465 429.057 4.58028 428.832C6.60337 427.665 8.40168 426.573 10.0336 425.505C12.6322 423.794 14.1922 420.892 16.1029 419.125C18.135 417.241 20.4818 416.477 22.1767 414.082C23.1073 412.77 24.0155 411.35 24.9506 409.784C25.3822 409.058 24.6854 408.209 23.9076 408.537C22.7522 409.02 21.6148 409.451 20.5043 409.845C18.0991 410.698 15.4285 410.365 13.2706 410.89C10.7619 411.504 8.81975 412.929 6.73821 413.285C4.53079 413.66 2.59314 413.946 0.97916 414.26C0.331769 414.387 -0.077361 413.684 0.682424 413.37C1.94124 412.859 3.97332 412.428 6.46848 411.907C8.52304 411.476 10.5192 410 13.0368 409.362C15.1363 408.828 17.7079 409.184 19.9108 408.387C22.4465 407.473 24.9866 406.344 27.3873 404.928C27.8773 404.638 28.4618 403.588 29.5363 402.139C30.4265 400.94 32.6249 399.937 34.4142 398.395C35.9652 397.059 36.9768 395.203 39.5259 393.9C40.7712 393.262 42.1514 392.648 43.6845 392.067C44.3948 391.795 44.6286 391.083 43.6575 390.998C41.9896 390.844 39.7102 390.741 37.0263 390.792C33.8567 390.858 30.867 392.114 26.8928 392.817C24.5909 393.225 21.4619 392.798 19.0656 393.52C15.7118 394.532 12.3265 395.882 9.08055 397.682C8.56803 397.968 8.49158 396.96 9.11649 396.534C12.0522 394.528 15.2082 393.014 18.4272 391.879C20.8459 391.026 24.0469 391.359 26.4746 390.886C30.3545 390.131 33.4117 388.823 36.8554 388.716C43.9947 388.486 49.5829 389.222 51.1339 389.138C52.1635 389.077 54.9104 388.486 60.076 388.209C63.0477 388.05 65.943 389.62 70.6546 389.831C73.5813 389.967 77.7534 388.57 81.4354 388.95C85.1669 389.33 89.2985 389.855 93.8707 390.567C94.7609 390.708 97.0852 390.244 100.016 389.466C102.067 388.922 104.013 387.319 106.378 386.569C108.905 385.768 111.849 385.81 114.075 385.003C116.579 384.099 118.674 383.265 119.888 382.674C120.427 382.412 121.281 381.694 122.338 380.645C123.358 379.632 123.718 377.406 124.999 375.887C126.321 374.322 129.855 374.003 130.619 358.953C131.662 338.311 132.525 243.191 132.337 217.155C132.206 199.859 125.454 184.865 119.542 182.301C116.516 180.989 112.389 179.799 110.564 180.033C101.244 181.228 92.1668 187.743 91.5644 189.327C89.9504 193.588 90.6518 200.862 92.3422 207.584C92.4636 208.062 91.6768 208.399 91.4295 207.78C89.8245 203.731 88.3499 198.327 89.0513 192.336C89.1142 191.797 88.4264 191.273 87.9858 191.587C84.7219 193.907 81.341 197.295 80.0013 198.842C75.2178 204.364 72.5608 215.467 72.3 225.141C72.2866 225.68 71.5133 225.784 71.4548 225.226C71.1401 222.348 70.9648 219.343 71.8145 215.059C71.9089 214.595 71.3649 214.445 70.9558 214.863C67.3232 218.547 62.252 222.376 56.6863 225.202C56.2097 225.441 55.8545 224.809 56.3311 224.452C62.1306 220.093 68.3438 216.48 72.354 210.504C72.88 209.721 73.7252 205.709 76.4316 200.881C76.6654 200.469 76.09 199.981 75.537 200.234C70.6681 202.442 65.2686 208.076 62.1621 209.604C61.681 209.843 61.3573 209.121 61.7934 208.84C64.8685 206.852 67.7908 202.432 78.0861 197.141C79.9788 196.171 86.6325 185.868 102.395 179.47C103.051 179.203 102.88 178.688 102.107 178.683C92.4545 178.622 82.6088 178.364 73.3925 181.973C66.9276 184.5 61.0291 189.576 56.3625 194.591C50.8282 200.539 46.6517 212.35 33.0475 217.145C32.0404 217.501 31.8291 216.587 32.6743 216.142C41.0859 211.713 42.9696 210.222 49.2547 200.244C49.538 199.798 49.0209 199.353 48.441 199.587C41.1758 202.531 31.6403 203.9 24.8607 203.59C23.7457 203.539 24.1593 202.798 24.9191 202.732C33.4701 202.025 44.9253 200.454 52.0646 194.778C54.4159 192.908 56.1737 190.509 58.2822 188.399C60.1749 186.51 61.9553 184.856 64.4729 183.342C63.0972 183.103 56.7537 181.8 55.4724 181.636C50.8957 181.055 39.9575 180.549 38.3615 181.336C31.8471 184.561 22.5633 188.184 17.101 189.06C16.1479 189.215 15.8017 188.217 16.7728 187.996C21.1876 187.007 29.352 183.604 33.4206 181.781C34.4187 181.336 33.8747 180.853 33.052 180.853C21.862 180.881 12.7985 177.385 8.94565 173.077C8.63095 172.726 8.99961 172.201 9.40423 172.487C19.0746 179.311 30.5208 179.077 38.1007 179.077C40.9016 179.077 46.5618 178.828 51.8802 179.269C52.6805 179.335 52.7884 178.913 52.0601 178.603C37.5163 172.388 24.7573 163.79 23.449 162.996C22.9949 162.722 23.4895 161.975 24.0245 162.217C31.2087 165.475 54.299 180.3 67.7009 180.225C69.5397 180.211 73.4645 178.261 79.2685 176.893C79.8215 176.761 79.9653 176.021 79.5023 175.796C74.0849 173.124 72.5293 172.163 66.3567 167.856C58.3362 162.258 46.31 161.53 42.7269 159.385C42.1649 159.048 42.5471 158.313 43.0911 158.553C46.4943 160.057 57.2032 161.189 64.401 164.646C64.9629 164.918 65.5969 164.577 65.3406 164.005C64.2616 161.604 62.796 158.191 62.4858 156.974C62.2789 156.158 63.0388 155.901 63.3085 156.585C63.9784 158.253 66.0779 163.422 68.4696 166.853C69.5711 168.428 80.9094 175.444 86.4572 175.58C87.8734 175.618 90.3505 175.449 92.513 175.313C93.1604 175.271 93.4481 174.68 92.9491 174.357C88.5792 171.54 81.5523 165.733 79.7136 161.928C79.4079 161.292 79.8709 160.609 80.3744 161.239C83.1888 164.765 92.0814 172.773 98.425 175.088C100.228 175.744 111.215 174.629 122.306 179.878C122.806 180.117 122.999 179.859 122.594 179.48C102.44 160.582 82.1772 150.992 76.8812 148.994C70.3084 146.512 51.6779 144.229 49.3491 144.179C43.3653 144.048 35.709 148.024 33.2049 148.69C30.0893 149.518 26.3713 156.621 7.85321 156.973C7.20132 156.986 7.22826 156.029 8.10044 155.891C18.0855 154.303 22.1317 154.18 26.9872 150.442C27.3289 150.181 27.0861 149.705 26.6185 149.74C17.3752 150.427 8.62199 147.093 5.1018 143.517C4.70168 143.11 5.02533 142.254 5.56032 142.641C10.3618 146.113 19.3893 149.386 29.1856 147.74C33.8387 146.958 38.1097 144.413 42.6549 142.987C43.073 142.856 43.0865 142.258 42.6729 142.078C39.7237 140.812 36.7295 139.658 33.8387 138.258C31.3121 137.036 28.8035 135.414 26.079 134.67C23.6288 134 21.1876 134.309 18.7149 133.922C13.0368 133.036 4.55327 127.167 2.86286 125.238C2.74148 125.098 3.04269 124.688 3.20004 124.785C12.9334 130.845 16.4896 133.033 24.1324 132.957C24.51 132.954 24.8427 132.354 24.5999 132.041C19.6321 125.728 10.4697 112.703 7.84871 108.743C7.40363 108.069 8.23984 107.534 8.63097 108.11C11.6746 112.588 21.9969 127.463 28.9878 133.427C30.8221 134.992 41.6389 139.887 48.913 141.015C51.2059 141.371 63.268 142.893 68.1864 143.484C68.7754 143.555 69.2069 142.972 69.0091 142.62C66.7118 138.602 64.8281 133.733 63.4794 132.532C59.7389 129.204 34.1265 126.208 27.747 116.341C27.5806 116.082 28.2595 115.558 28.4798 115.771C37.6871 124.617 52.7704 126.131 60.0895 128.236C60.62 128.388 61.1595 127.887 60.9392 127.469C58.0754 121.94 53.3324 115.558 51.9881 114.482C48.396 111.605 37.4938 107.699 33.2543 106.161C24.3797 102.943 16.6784 93.3576 13.4235 90.5805C12.7896 90.0396 13.4639 89.4411 14.0573 89.8831C22.5319 96.1825 22.7207 98.9038 33.8387 104.066C37.8445 105.927 44.197 107.878 47.8566 109.426C48.4725 109.686 48.886 109.337 48.4365 108.702C44.4532 103.091 31.9685 86.641 21.817 75.9226C21.336 75.4164 22.2576 74.8652 22.7881 75.3297C30.2062 81.8372 44.0756 98.0156 55.4319 113.962C65.2642 127.763 71.7875 141.656 74.3186 144.433C75.2628 145.469 80.0463 146.915 87.4238 150.671C87.9498 150.938 88.4039 150.581 88.0577 150.07C86.4167 147.657 84.3757 144.552 82.5369 140.853C81.1522 138.077 80.1542 134.737 79.219 132.647C78.6391 131.344 66.6309 111.399 65.6013 109.487C65.2597 108.854 66.0105 108.285 66.4106 108.885C67.3592 110.29 71.8505 117.797 74.3591 122.024C74.7682 122.705 75.1773 122.447 75.0739 121.732C74.3636 116.778 73.8825 110.476 73.8511 108.981C73.8421 108.376 74.5929 108.262 74.7278 108.92C75.2987 111.725 75.1099 119.231 76.8767 125.564C77.0206 126.067 78.1041 128.145 79.1606 129.793C79.4438 130.236 80.0103 129.976 80.0418 129.478C80.3699 124.528 82.0603 120.223 83.5754 117.536C83.8811 116.989 84.8927 117.411 84.5016 118.021C83.1888 120.063 80.7386 126.49 81.3725 132.806C81.6512 135.589 87.8059 147.114 93.1784 152.983C94.8643 154.829 103.91 160.05 110.986 165.129C111.526 165.514 111.917 165.193 111.598 164.514C109.503 160.053 107.646 152.097 108.149 148.753C108.311 147.684 109.453 147.654 109.458 148.829C109.476 152.674 112.083 163.009 116.233 168.606C117.869 170.813 124.797 176.977 128.78 181.406C132.296 185.311 134.949 189.674 137.475 194.207C137.835 194.849 138.545 194.591 138.55 193.818C138.595 181.973 138.833 167.568 138.141 164.757C136.949 159.957 130.79 147.87 129.091 146.332C123.439 141.226 113.355 137.793 106.356 135.236C103.361 134.141 96.6087 130.853 95.0981 129.401C94.3203 128.651 95.0801 127.583 95.8848 128.276C99.9805 131.806 115.316 135.748 125.152 141.53C125.759 141.888 126.11 141.393 125.683 140.798C123.224 137.365 120.193 134.355 117.213 131.378C110.887 125.049 86.3403 105.04 85.3333 104.524C81.7996 102.708 73.2711 96.9113 71.4548 96.7665C60.9527 95.9313 55.9085 91.6112 53.9978 89.045C53.6786 88.6152 54.2675 88.0425 54.6407 88.387C56.7896 90.3705 62.0632 94.1727 67.3322 94.528C67.7998 94.5594 67.9436 93.9515 67.557 93.6529C59.4556 87.3539 55.8276 79.5326 54.3844 78.7044C43.0551 72.2001 35.6325 65.6631 30.93 60.5481C30.5388 60.1229 31.0739 59.5863 31.5099 60.0226C36.0147 64.5152 45.1546 71.296 52.8603 75.5003C53.3774 75.7825 54.0787 75.1966 53.9258 74.6318C52.2444 68.3853 50.7878 61.5267 48.0813 55.7564C45.2715 49.7631 40.8027 46.5229 39.6518 44.5103C39.4315 44.1213 39.953 43.7524 40.3621 44.1864C41.9806 45.8953 46.8405 49.7167 49.547 54.5931C51.7949 58.6427 55.5758 73.5683 56.8391 76.3102C61.9688 87.4758 71.5537 93.9557 81.9345 99.5352C82.447 99.8098 82.9011 99.4691 82.6268 99.021C79.5742 94.0396 77.4837 88.5791 76.0675 82.9026C74.9615 78.478 73.8466 70.6314 73.3116 69.91C70.0522 65.5435 61.9283 60.0011 59.4556 58.5017C59.1229 58.2987 59.3972 57.6824 59.8153 57.9017C63.4524 59.8248 69.679 64.2345 72.6372 67.3171C72.9205 67.6138 73.1677 67.4127 73.0508 67.0443C69.3643 55.1124 64.9809 48.8004 51.6825 38.8178C51.3273 38.5511 51.7589 38.103 52.0646 38.3055C60.8673 44.1339 72.9969 53.6365 75.3706 71.9625C75.5145 73.0893 79.0527 92.8748 89.3615 103.456C90.427 104.55 96.6177 109.899 101.082 113.565C101.572 113.968 102.017 113.666 101.806 113.104C99.2971 106.432 98.6048 96.0114 98.2946 95.1176C96.0826 88.7057 90.1213 84.7967 88.3859 82.7676C87.9813 82.298 88.5702 81.8283 88.9029 82.1274C90.5034 83.5564 95.2105 87.0033 97.8585 91.2672C98.1282 91.7026 98.5508 91.5385 98.4654 90.9339C97.4494 83.9591 90.98 70.75 88.1296 66.615C87.788 66.1168 88.4578 65.813 88.8085 66.2157C92.576 70.5475 100.817 85.0835 100.318 95.7564C100.255 97.0154 101.932 110.293 105.542 116.598C105.964 117.333 113.886 123.323 120.697 129.853C121.223 130.359 121.924 130.092 121.772 129.437C121.439 128.03 121.169 126.596 121.106 125.173C120.953 121.693 121.115 118.612 120.414 115.09C119.339 109.685 111.971 104.074 110.213 101.921C109.687 101.275 110.51 100.798 110.955 101.374C112.47 103.348 118.611 107.542 120.877 112.052C121.147 112.591 121.484 112.427 121.457 111.817C120.854 98.7346 114.821 90.5899 109.458 85.2297C108.873 84.6434 109.458 84.0514 110.109 84.5276C117.761 90.1376 124.37 103.298 122.886 116.92C122.837 117.401 122.414 125.044 124.087 130.603C125.471 135.196 129.059 138.438 131.784 142.236C134.769 146.396 136.859 150.774 138.932 155.422C138.936 144.957 140.047 125.633 140.218 115.136C140.299 110.109 133.321 92.6836 118.341 74.7588C113.675 69.1737 93.5606 53.1617 91.8162 52.7075C74.3187 48.1489 65.1248 39.9718 63.6996 25.5079C63.6502 25.0214 64.3695 25.0406 64.4729 25.5079C67.3637 38.3449 74.0489 45.9037 87.8195 49.06C88.3589 49.1838 88.8444 48.4596 88.5612 48.0026C84.9511 42.1714 84.6005 38.4016 83.7553 37.6404C78.8099 33.1797 76.4137 30.2625 74.9436 26.6717C74.7682 26.241 75.3841 25.911 75.5999 26.315C77.2094 29.3307 79.2954 31.8191 82.384 33.7811C82.7347 34.0033 83.3776 33.5777 83.3327 33.1165C82.8067 27.3692 83.0045 18.1164 83.0899 15.1256C83.1034 14.6681 83.7822 14.5814 83.8632 15.0375C84.9556 21.1644 83.4136 42.2581 94.4013 50.715C95.8444 51.8259 101.563 56.0583 106.126 60.0592C106.621 60.4942 106.967 60.1937 106.693 59.4738C104.013 52.3879 102.925 36.748 96.2715 28.6103C96.0107 28.2897 96.4738 27.8238 96.8919 28.196C102.79 33.4216 105.533 45.7186 106.666 50.7291C106.872 51.6412 107.345 51.3951 107.52 50.7005C108.415 47.2002 110.361 42.8393 111.004 41.2738C111.229 40.7208 111.948 40.9879 111.786 41.4079C110.941 43.5776 108.136 50.2416 108.311 54.9812C108.455 58.8246 110.842 62.9605 113.549 66.1093C114.223 66.8901 116.799 69.0978 118.773 70.9178C119.272 71.3799 119.883 71.0982 119.798 70.3966C119.276 66.0165 119.636 58.1216 120.782 54.5355C120.998 53.8615 122.059 53.7682 121.87 54.5931C120.926 58.6113 120.701 68.5133 122.653 74.6116C123.093 75.9896 132.988 86.1742 140.577 101.157C140.91 101.823 141.566 101.635 141.553 100.806C141.481 95.2695 141.175 88.2703 140.834 83.2907C139.831 68.5752 134.733 52.7446 125.791 41.0203C119.348 32.5704 111.179 27.5745 103.181 20.8255C100.677 18.7145 96.6536 14.431 95.3454 10.5468C95.251 10.266 95.6915 10.1024 95.7994 10.3232C97.1751 13.1242 104.018 19.8356 109.242 22.9863C109.57 23.186 109.705 22.9061 109.453 22.5621C107.7 20.167 106.346 17.3866 105.272 14.6499C104.867 13.6206 104.063 11.27 103.91 10.5613C103.829 10.2037 104.292 10.0462 104.418 10.3837C105.38 12.9906 109.084 20.6943 112.591 24.7903C113.648 26.024 122.032 30.5962 130.399 41.796C128.155 31.8111 126.407 21.8079 125.705 19.3458C123.552 11.7579 117.779 8.40011 114.826 5.64645C114.623 5.45897 114.915 5.14257 115.208 5.31881C119.51 7.91404 123.462 11.5447 125.561 15.1256C125.768 15.4851 126.141 15.2967 126.155 14.8012C126.272 10.3359 126.874 3.76037 127.063 1.52932C127.13 0.755487 128.137 0.782655 128.137 1.41166C128.133 2.24784 126.969 15.119 127.576 18.7782C127.814 20.1914 129.401 26.6103 131.496 35.2655C131.644 35.8804 132.202 35.8598 132.346 35.2125C133.128 31.6166 134.243 27.9255 135.74 24.6376C138.783 17.9566 140.397 10.6991 139.318 5.34224C139.116 4.34061 140.317 4.21172 140.595 5.34553C141.467 8.91521 141.67 14.7483 137.277 25.8778C135.322 30.8404 133.694 37.6522 133.991 41.4918C134.193 44.155 138.936 49.5105 143.086 70.8329C144.772 65.0045 147.029 60.946 149.402 55.3688C151.129 51.3042 154.51 41.4159 154.244 39.6502C152.792 29.9063 149.254 24.8855 148.944 23.9668C148.719 23.3003 149.443 23.0833 149.789 23.5689C151.736 26.2907 153.633 30.614 154.923 35.8228C155.027 36.2413 155.418 36.2498 155.512 35.834C158.434 22.6774 158.021 13.9206 155.472 6.18219C155.35 5.80441 155.827 5.67691 156.034 6.01297C157.306 8.0856 158.677 12.4821 159.118 17.1476C159.158 17.5708 159.63 17.5741 159.896 17.0538C161.649 13.6112 164.985 7.6858 167.885 5.69895C168.334 5.39007 168.955 5.78941 168.577 6.22015C164.239 11.1706 162.575 14.4474 159.491 21.8169C159.023 22.938 159.531 32.2822 155.562 45.6178C155.413 46.1123 155.746 46.492 156.2 46.05C159.334 42.9987 166.181 36.2849 167.215 34.8319C173.945 25.3889 176.098 19.6125 177.389 10.7783C177.456 10.3134 177.969 10.3391 177.96 10.7577C177.811 17.5436 176.287 23.1784 171.688 30.6023C171.382 31.0935 171.558 31.3504 172.048 30.87C177.775 25.2384 189.86 10.6012 190.148 10.0148C190.341 9.62766 190.97 9.9098 190.705 10.3185C184.82 19.4719 176.098 28.6619 168.842 36.3824C161.069 44.6471 155.544 49.6975 153.948 52.9269C151.219 58.4459 146.557 69.4216 145.199 75.3911C144.435 78.7546 146.17 94.7281 145.293 115.038C145.248 116.072 145.824 116.402 146.242 115.481C150.886 105.309 161.384 93.4026 162.503 91.3248C165.933 84.9574 166.01 79.6868 165.763 77.8157C165.255 73.9873 161.959 67.469 160.512 65.6185C160.287 65.3303 160.831 65.0003 161.136 65.3139C162.355 66.5555 164.535 70.5166 165.763 73.5369C166.064 74.2775 166.572 74.1214 166.63 73.3072C167.048 67.6626 167.853 58.8518 171.895 52.6541C172.16 52.2444 172.83 52.4085 172.587 52.978C166.644 67.0143 170.303 77.4098 167.408 85.944C167.237 86.4559 167.435 86.8407 167.745 86.5328C176.557 77.7815 185.319 69.9072 185.913 68.4153C188.893 60.9174 186.191 52.1807 180.513 45.4786C180.122 45.016 180.684 44.6579 181.017 45.0029C182.069 46.08 183.719 47.8915 184.969 49.839C185.193 50.1854 185.607 50.1066 185.629 49.69C185.917 44.9387 187.936 38.119 190.898 35.5908C191.168 35.3602 191.586 35.5997 191.321 35.9147C189.32 38.2863 185.98 46.4465 186.866 52.9367C187.131 54.8893 189.365 58.6235 188.633 65.0238C188.579 65.5046 189.118 65.8121 189.46 65.4634C206.018 48.536 205.82 33.3972 202.061 15.255C201.972 14.8345 202.444 14.7497 202.529 15.0375C203.059 16.7403 204.561 21.8708 204.925 25.5079C205.397 30.2442 205.667 35.9282 204.777 40.7733C204.691 41.2429 205.33 41.4782 205.829 41.1576C211.004 37.8054 215.922 31.7136 219.073 27.4067C219.379 26.9895 219.905 27.3321 219.649 27.7859C216.47 33.4858 210.019 40.2769 204.251 44.7517C203.163 45.5939 202.489 56.3489 181.839 77.2228C181.381 77.6892 181.529 78.149 182.127 77.9048C186.659 76.0553 192.791 74.2109 197.674 72.1673C202.664 70.0778 206.301 67.642 206.481 67.2558C210.005 59.5999 210.334 52.6649 210.675 49.1641C210.698 48.9401 211.107 48.9288 211.111 49.1805C211.26 54.4661 210.761 58.9793 208.697 64.9127C208.54 65.3753 208.985 65.7081 209.452 65.3598C213.301 62.5148 220.036 58.1539 220.791 57.2193C225.502 51.3801 229.189 43.3118 231.405 34.4152C231.495 34.0572 231.994 34.0965 231.94 34.4654C231.077 40.71 227.89 48.9977 223.754 55.06C223.407 55.5671 223.601 56.1103 224.05 55.8999C231.055 52.6049 237.47 49.3066 243.252 45.286C243.548 45.0779 244.056 45.5213 243.656 45.8325C237.551 50.5458 230.538 53.8835 223.861 57.5324C214.713 62.5321 209.511 69.11 198.393 73.8298C191.941 76.5671 181.619 79.856 178.306 82.1358C171.603 86.7474 165.066 93.5132 159.68 100.768C153.997 108.42 149.29 116.602 147.029 125.173C144.223 135.814 144.471 167.369 144.934 175.238C144.988 176.175 145.756 176.096 146.134 175.646C149.699 171.446 156.119 166.633 156.789 165.391C162.26 155.229 162.683 142.251 157.652 133.553C157.266 132.887 158.156 132.55 158.569 133.001C163.699 138.616 163.483 148.879 163.115 153.303C163.07 153.846 163.371 153.82 163.555 153.41C169.422 140.554 171.22 130.239 171.086 128.32C170.578 121.154 165.515 114.554 163.748 112.376C163.537 112.112 163.951 111.712 164.274 111.933C166.32 113.319 170.011 119.05 171.652 123.559C171.769 123.872 172.012 123.771 172.039 123.419C172.888 111.721 175.505 102.131 177.699 97.2305C177.888 96.8106 178.625 96.856 178.486 97.2516C176.845 102.007 175.869 106.422 174.799 113.083C174.75 113.383 175.114 113.487 175.361 113.234C178.54 109.999 183.489 107.054 184.38 106.023C188.844 100.848 195.785 88.3045 197.741 85.6478C197.975 85.3338 198.37 85.5011 198.357 85.7814C198.352 85.8456 190.386 99.844 187.275 104.286C187.01 104.66 187.288 104.852 187.675 104.677C190.166 103.552 193.735 102.333 198.029 102.018C198.442 101.988 198.573 102.519 198.258 102.576C191.658 103.762 182.631 106.662 174.956 116.141C174.911 116.194 174.871 116.246 174.831 116.299C174.43 116.797 173.725 125.645 172.915 131.836C172.87 132.195 173.28 132.32 173.558 132.026C176.678 128.771 182.172 124.609 185.854 123.234C186.263 123.082 186.654 123.564 186.263 123.798C182.406 126.109 175.883 130.97 172.578 135.849C171.742 137.083 170.141 146.477 164.158 159.539C163.919 160.066 164.274 160.492 164.751 160.165C168.694 157.467 174.403 154.754 175.064 154.084C186.699 142.268 191.375 136.275 198.397 127.685C207.946 116.004 210.648 79.5415 220.323 68.3281C220.696 67.8927 221.375 68.1102 221.146 68.5541C217.738 75.1056 215.845 80.8047 214.016 88.5262C213.908 88.9921 214.528 89.4256 214.955 89.1524C225.601 82.2825 236.602 69.7305 243.265 60.3315C243.611 59.8389 244.196 60.2884 243.998 60.6198C238.248 70.2723 227.391 83.6919 213.917 92.0044C211.804 93.307 209.785 111.709 204.372 122.458C204.031 123.137 204.408 123.466 205.253 122.859C209.556 119.777 218.125 114.701 218.583 114.067C222.625 108.461 223.929 103.612 224.217 97.6135C224.244 97.0857 225.012 97.1007 225.026 97.6393C225.116 102.775 224.091 107.615 221.461 111.926C221.173 112.396 221.614 112.791 222.153 112.523C227.98 109.612 233.806 106.306 234.408 105.716C239.457 100.769 242.986 93.7687 244.726 88.3321C246.776 81.9254 247.428 78.1157 249.555 71.7347C250.476 68.981 253.417 62.1735 253.97 60.7608C254.154 60.2954 254.617 60.5837 254.5 60.9C253.628 63.2605 251.771 68.2625 250.661 72.0328C249.321 76.599 247.99 84.1531 246.444 88.2965C246.295 88.7019 246.857 89.0943 247.284 88.8969C257.22 84.2947 260.133 80.8262 263.716 73.8003C263.968 73.3096 264.391 73.6991 264.238 74.1729C261.887 81.4848 256.006 86.9321 245.855 90.971C245.072 91.2836 245.117 95.7565 239.066 103.328C238.675 103.818 239.008 104.207 239.817 103.901C242.681 102.817 247.194 101.851 252.009 101.436C262.763 100.511 267.808 94.1268 270.833 92.7117C271.233 92.5256 271.598 92.993 271.197 93.2948C269.592 94.5195 264.746 98.9521 261.478 100.354C256.609 102.442 252.747 102.92 246.74 104.009C243.139 104.662 239.727 105.634 236.27 107.67C232.507 109.884 209.47 122.661 202.92 128.698C200.942 130.518 193.394 140.993 183.894 151.248C183.561 151.608 183.908 152.156 184.487 152.077C187.527 151.665 191.595 151.378 192.607 151.155C200.74 149.366 211.975 144.758 212.361 144.278C217.455 137.984 218.413 133.351 220.17 126.987C220.278 126.607 220.912 126.823 220.822 127.274C219.361 134.445 218.547 137.094 215.409 142.586C215.261 142.85 215.616 143.058 215.944 142.885C226.15 137.556 232.624 130.972 239.907 119.861C240.073 119.605 240.662 119.897 240.523 120.174C232.965 135.23 221.15 144.917 200.389 152.015C207.402 151.985 218.655 154.025 220.049 153.785C234.71 151.263 248.624 142.883 253.619 131.89C254.536 129.869 257.036 112.107 257.207 110.471C257.234 110.178 257.809 110.329 257.786 110.562C257.674 111.85 256.096 126.322 255.287 130.181C255.255 130.334 255.444 130.439 255.579 130.339C260.614 126.555 270.429 120.735 275.037 107.821C275.199 107.365 275.81 107.547 275.644 108.046C272.658 116.926 268.833 121.584 258.91 129.016C258.69 129.181 258.722 129.255 258.982 129.135C263.51 127.045 271.89 126.929 281.173 122.445C281.632 122.224 282.014 122.7 281.479 122.969C269.287 129.128 263.042 127.043 256.865 131.528C253.754 133.788 249.703 147.708 224.513 155.007C224.14 155.115 224.05 155.41 224.473 155.482C229.018 156.264 239.646 159.29 241.143 159.045C262.264 155.576 273.229 144.187 279.42 140.728C279.667 140.589 279.933 140.917 279.703 141.073C276.071 143.529 271.971 148.262 260.331 154.291C259.971 154.478 259.958 154.863 260.331 154.876C264.018 155.014 267.951 155.747 271.562 155.355C273.755 155.116 277.847 153.331 279.101 152.894C279.551 152.739 279.726 153.342 279.317 153.483C278.022 153.929 274.201 155.843 271.562 156.13C267.205 156.603 262.035 155.913 257.661 156.154C256.168 156.236 251.25 159.039 245.036 160.501C244.704 160.579 244.663 160.898 244.96 160.988C251.133 162.853 253.174 165.503 258.578 167.367C262.696 168.784 271.247 168.282 273.333 168.164C273.922 168.131 273.854 169.032 273.22 169.075C270.667 169.229 262.777 170.064 257.989 168.47C252.94 166.789 248.449 164.052 243.252 162.741C178.625 146.433 169.746 160.211 148.337 181.364C145.356 184.308 146.48 196.358 146.525 200.183C146.534 200.82 147.173 200.947 147.492 200.384C153.12 190.401 162.242 185.596 173.167 182.484C176.588 181.509 182.972 175.96 187.999 165.56C188.223 165.095 189.073 165.266 188.862 165.913C186.825 172.145 182.46 178.36 180.801 180.361C180.603 180.6 180.828 180.759 181.107 180.694C183.629 180.075 187.81 179.288 191.074 178.664C194.104 178.083 198.681 175.941 207.91 164.607C208.324 164.102 209.025 164.583 208.702 165.129C206.117 169.454 200.42 175.496 197.453 177.835C197.228 178.013 197.336 178.346 197.597 178.369C200.443 178.641 203.648 179.213 205.775 179.719C207.42 180.108 224.082 180.066 232.538 170.424C232.952 169.956 233.649 170.429 233.325 170.907C228.177 178.636 218.179 180.759 213.054 181.678C212.73 181.734 212.685 182.067 212.955 182.184C219.838 185.072 227.575 186.979 235.883 186.412C239.934 186.135 243.917 185.001 247.905 184.284C252.544 183.445 256.829 183.019 261.486 182.386C264 182.044 268.311 180.881 269.619 180.628C270.06 180.544 270.177 181.181 269.795 181.308C267.646 182.02 265.838 182.625 261.621 183.229C258.33 183.703 253.016 184.453 248.112 185.32C245.216 185.836 242.465 186.384 240.361 186.946C240.015 187.035 239.974 187.354 240.275 187.42C241.139 187.617 241.988 187.837 242.793 188.146C246.884 189.726 250.413 192.313 254.496 193.804C259.67 195.688 262.84 194.938 263.415 194.98C263.847 195.008 263.923 195.608 263.42 195.758C261.59 196.306 258.708 196.414 254.109 195.06C249.937 193.832 246.201 191.254 242.087 189.82C237.124 188.09 232.466 188.699 227.35 188.352C224.963 188.188 222.643 187.738 220.35 187.312C220.053 187.256 219.955 187.481 220.229 187.71C225.039 191.83 230.371 197.858 233.963 202.948C236.153 206.051 246.066 207.832 252.796 207.424C253.435 207.387 253.632 208.244 252.855 208.319C246.313 208.938 240.428 207.991 236.157 206.402C237.484 209.59 243.539 217.061 245.576 218.636C246.026 218.978 245.419 219.704 244.834 219.175C237.308 212.355 236.913 210.171 232.651 204.368C231.576 202.901 221.654 190.279 212.613 185.039C200.411 177.966 182.878 181.003 170.64 187.57C170.146 187.832 170.294 188.259 170.847 188.217C177.155 187.729 182.918 189.079 188.57 192.088C191.285 193.532 194.45 194.479 197.116 196.044C202.56 199.231 203.59 200.886 207.187 202.957C210.923 205.104 217.972 207.157 220.152 207.982C220.503 208.113 220.355 208.652 219.982 208.549C217.77 207.944 210.981 206.06 206.242 204.054C209.277 208.971 215.49 216.522 222.697 222.901C223.192 223.341 222.679 224.087 222.014 223.684C218.246 221.387 211.583 214.703 204.687 205.446C202.88 203.023 200.42 200.501 197.876 198.842C195.583 197.342 193.304 196.053 190.507 195.364C193.515 199.85 195.997 204.04 193.443 211.989C193.196 212.753 192.148 212.688 192.31 211.835C192.692 209.805 193.573 206.187 192.863 203.121C189.033 186.557 153.795 183.656 153.795 214C153.795 218.57 153.732 357.668 153.939 361.456C154.361 369.316 156.847 376.361 159.558 379.117C161.159 380.743 164.432 380.912 165.879 382.201C167.921 384.01 168.928 385.969 170.105 386.658C170.582 386.939 173.131 387.539 176.359 388.186C178.225 388.556 181.134 387.942 183.188 388.294C185.103 388.622 186.389 389.442 187.81 390.145C189.595 391.036 191.388 390.576 192.234 390.548C195.444 390.445 199.413 389.658 203.01 389.489C207.722 389.264 212.154 390.98 217.194 390.769C222.189 390.558 227.269 389.044 232.219 388.988C236.602 388.936 240.9 388.973 244.983 389.147C249.775 389.348 253.205 390.666 257.193 391.326C261.226 391.992 265.798 392.006 268.585 393.3C271.845 394.814 274.111 396.815 275.037 399.435C275.149 399.754 274.466 400.072 274.295 399.815C272.924 397.724 270.68 396.154 267.951 394.973C265.047 393.721 260.533 393.839 256.995 393.314C252.459 392.643 248.844 391.519 244.987 391.458C243.661 391.439 242.438 391.439 241.345 391.439C240.635 391.439 240.343 391.94 240.819 392.222C241.952 392.892 243.108 393.665 244.259 394.5C245.724 395.563 245.981 397.284 247.347 398.437C248.835 399.688 251.416 400.368 252.616 401.469C254.635 403.325 256.123 404.783 256.649 405.2C259.099 407.141 262.026 408.561 265.061 409.611C266.603 410.15 268.329 409.62 269.88 409.99C271.647 410.407 273.229 411.701 274.866 411.954C277.307 412.339 279.524 412.573 281.272 412.76C282.136 412.854 281.992 413.843 281.254 413.899C279.551 414.021 277.267 413.923 274.74 413.623C273.005 413.412 271.314 412.132 269.458 411.729C267.79 411.364 265.96 411.893 264.364 411.373C263.002 410.932 261.693 410.436 260.488 409.883C259.913 409.615 259.445 410.159 259.774 410.698C260.259 411.504 260.785 412.287 261.352 413.07C262.008 413.974 263.694 414.884 264.476 415.779C265.434 416.871 265.582 418.286 266.76 419.411C267.942 420.541 269.934 421.216 271.382 422.425C273.733 424.384 275.716 426.62 278.89 428.945C279.353 429.282 278.93 430.046 278.391 429.685C274.92 427.37 272.856 425.172 270.545 423.311C269.08 422.135 267.133 421.516 266.018 420.475C264.723 419.271 264.544 417.832 263.586 416.768C262.687 415.765 260.943 414.799 260.223 413.876C257.418 410.281 255.539 407.141 251.101 403.185C249.753 401.975 247.217 401.404 245.909 400.349C244.304 399.065 243.931 397.345 242.424 396.332C238.563 393.754 235.083 392.165 232.313 391.997C230.807 391.903 224.558 393.351 217.055 393.642C212.411 393.825 207.816 392.1 203.01 392.423C201.576 392.517 199.93 392.901 198.42 393.197C197.678 393.342 197.579 394.05 198.164 394.321C198.753 394.589 199.314 394.865 199.849 395.142C201.702 396.093 202.336 397.982 203.662 398.91C205.402 400.119 207.663 400.34 208.693 401.244C209.808 402.224 210.567 402.941 211.098 403.203C212.874 404.075 214.434 404.778 215.913 405.383C217.441 406.011 219.46 405.842 220.957 406.358C222.598 406.916 223.727 408.158 225.7 408.804C226.19 408.969 228.065 409.836 228.595 410.014C230.412 410.618 231.576 410.642 234.157 411.35C235.393 411.692 237.007 411.41 238.198 411.729C239.983 412.207 241.265 413.262 242.541 413.613C243.243 413.806 243.827 413.97 244.259 414.096C245.01 414.321 244.758 415.32 244.011 415.179C243.355 415.057 242.735 414.935 242.128 414.813C240.55 414.495 239.462 413.557 237.893 413.182C236.773 412.92 235.231 413.248 233.914 412.92C233.635 412.849 233.347 412.774 233.055 412.704C232.606 412.592 232.291 413.074 232.709 413.581C233.433 414.457 234.35 415.615 235.366 416.946C236.292 418.155 236.787 420.227 237.825 421.656C238.981 423.255 240.891 423.888 242.02 425.57C242.968 426.981 243.674 428.729 244.488 430.065C244.821 430.609 244.34 430.881 244.011 430.538C243.396 429.896 242.55 428.143 241.233 426.353C240.19 424.937 238.257 424.337 236.962 422.645C235.865 421.216 235.227 419.046 234.062 417.677C231.765 414.991 229.414 412.648 227.386 411.542C226.99 411.326 226.159 411.012 225.026 410.609C223.65 410.122 222.405 408.814 220.391 408.092C218.822 407.539 216.565 407.614 214.874 406.944C214.623 406.845 213.867 406.536 213.188 406.255C212.721 406.058 212.442 406.775 212.599 407.347C212.973 408.692 213.301 410.318 213.863 412.207C214.434 414.115 216.875 415.751 218.201 418.183C219.433 420.438 219.469 423.452 221.825 426.128C222.886 427.333 224.082 428.579 225.435 429.868C225.75 430.164 225.336 430.796 224.963 430.473C223.475 429.175 222.175 427.928 221.029 426.728C218.516 424.089 218.399 421.132 217.1 418.905C215.666 416.449 213.144 414.762 212.415 412.718C211.309 409.634 210.549 406.962 208.738 404.558C208.567 404.333 208.063 403.813 207.263 403.114C206.287 402.266 203.941 402.069 202.142 400.897C200.785 400.007 200.142 398.17 198.379 397.293C195.196 395.723 191.397 394.317 187.126 393.586C186.439 393.468 184.834 391.795 182.262 391.43C180.437 391.172 177.892 392.283 175.887 391.894C175.406 391.8 174.929 391.706 174.462 391.603C173.837 391.472 173.289 392.118 173.743 392.807C175.703 395.798 179.025 401.113 180.333 402.603C181.561 404.005 184.209 405.631 187.149 407.501C188.628 408.444 189.338 410.173 190.818 411.237C192.814 412.676 195.525 413.496 196.914 415.174C197.754 416.182 198.42 417.237 198.833 418.338C199.067 418.952 198.564 419.543 198.168 419.018C197.449 418.052 196.653 417.133 195.794 416.262C194.311 414.752 191.816 414.12 190.125 412.915C188.457 411.725 187.59 409.958 185.967 409.072C184.879 408.476 183.827 407.951 182.847 407.497C182.451 407.314 181.92 407.942 182.037 408.415C182.316 409.522 182.622 410.609 182.963 411.678C183.615 413.721 185.661 414.771 186.52 416.698C187.706 419.374 187.787 422.875 189.275 425.392C189.941 426.522 190.633 427.632 191.348 428.743C191.784 429.418 190.975 430.009 190.341 429.329C189.473 428.411 188.695 427.459 187.981 426.484C186.187 424.028 186.101 420.494 184.915 417.855C183.97 415.76 181.857 414.574 181.021 412.503C179.686 409.212 178.333 406.034 176.462 403.232C171.499 395.784 168.613 392.231 166.05 390.225C165.223 389.578 164.185 387.572 162.359 386.138C159.801 384.122 157.207 384.802 155.521 383.405C153.494 381.737 152.262 378.235 150.347 376.454C149.663 375.822 148.634 375.329 147.865 374.865C147.501 374.65 147.011 375.015 147.011 375.409C147.029 385.205 147.298 392.348 147.789 395.076C148.198 397.326 148.845 400.316 150.005 403.189C150.936 405.5 153.745 406.906 154.842 409.151C156.636 412.821 156.533 416.805 157.778 418.84C158.417 419.875 159.374 420.649 159.626 420.907C161.919 423.269 164.481 425.514 167.093 427.59C169.791 429.732 173.666 429.999 176.233 431.701C179.124 433.608 180.662 436.88 182.748 438.038C185.072 439.327 186.695 440.091 187.149 440.185C189.19 440.62 194.086 441.755 199.557 442.12C202.151 442.294 204.822 441.056 207.501 441.183C210.855 441.338 213.944 442.786 216.664 442.837C220.463 442.908 223.349 442.233 223.911 442.012C225.561 441.356 227.323 440.695 229.18 440.067C231.446 439.299 234.552 439.444 237.07 438.853C239.529 438.272 241.395 436.95 244.029 436.679C248.435 436.233 253.471 436.5 258.124 437.466C260.349 437.925 262.601 437.541 264.836 438.436C266.989 439.308 267.915 441.089 270.046 442.434C272.609 444.047 275.918 446.203 278.4 448.612C278.849 449.048 278.4 449.648 277.981 449.315C275.167 447.079 271.908 445.181 269.52 443.84C267.344 442.612 266.468 441.014 264.274 440.339C262.219 439.702 260.061 440.316 257.683 440.011C257.054 439.927 256.24 439.786 255.444 439.669C254.959 439.594 254.801 440.011 255.192 440.311C256.487 441.323 257.89 442.673 259.32 444.276C260.178 445.251 260.506 446.629 261.365 447.768C262.359 449.085 263.878 449.826 264.809 451.316C265.699 452.741 265.82 454.677 266.598 456.21C268.387 459.734 270.536 463.395 271.26 467.065C271.35 467.515 270.743 467.604 270.613 467.234C269.278 463.461 266.98 460.128 265.299 457.077C264.44 455.525 264.278 453.622 263.379 452.263C262.399 450.782 260.857 450.088 259.864 448.842C258.978 447.726 258.641 446.39 257.777 445.467C254.846 442.331 252.131 440.306 250.198 439.449C249.663 439.21 247.455 439.121 244.416 439.388C242.272 439.575 240.41 440.803 237.735 441.422C235.447 441.952 232.372 441.806 230.093 442.748C229.513 442.992 228.937 443.245 228.371 443.517C228.051 443.672 227.872 444.333 228.213 444.558C229.328 445.289 231.221 446.353 233.455 447.117C235.096 447.679 235.496 450.74 237.106 451.729C238.814 452.779 241.278 452.357 242.708 453.407C244.744 454.902 246.286 456.322 246.745 457.466C246.893 457.841 248.602 458.914 251.029 460.109C251.969 460.573 253.273 460.278 254.379 460.742C255.44 461.187 256.294 462.397 257.422 462.786C258.488 463.151 259.558 463.479 260.605 463.746C260.929 463.826 260.83 464.234 260.381 464.248C259.481 464.281 258.384 464.103 257.18 463.784C256.11 463.498 255.215 462.326 254.037 461.858C252.909 461.412 251.497 461.679 250.382 461.145C249.631 460.784 248.898 460.414 248.197 460.044C247.887 459.88 247.478 460.166 247.568 460.461C248.026 461.881 248.444 463.076 248.961 464.271C249.388 465.251 250.58 465.673 251.214 466.784C251.794 467.801 251.794 469.483 252.67 470.81C253.246 471.682 253.898 472.638 254.644 473.716C254.864 474.035 254.491 474.353 254.244 474.063C253.385 473.06 252.63 472.132 251.969 471.269C251.029 470.041 250.966 468.382 250.333 467.384C249.532 466.123 248.237 465.579 247.752 464.576C246.255 461.483 245.783 459.345 243.427 456.449C243.238 456.214 242.573 455.722 241.597 455.075C240.37 454.26 237.87 454.705 236.022 453.618C234.417 452.666 233.811 449.896 232.233 449.052C231.315 448.56 230.286 448.26 229.414 447.97C229.063 447.853 228.618 448.213 228.721 448.537C228.924 449.193 229.166 449.924 229.319 450.843C229.472 451.748 228.937 453.083 229.081 454.039C229.256 455.197 230.142 456.092 230.29 457.156C230.538 458.933 230.506 460.63 230.61 461.445C230.708 462.181 229.872 462.34 229.683 461.689C229.468 460.92 229.441 459.2 229.126 457.339C228.946 456.285 228.029 455.385 227.818 454.204C227.647 453.271 228.15 451.944 227.957 451.026C227.615 449.409 227.044 448.181 226.622 446.967C226.442 446.437 224.657 445.603 224.01 445.532C222.364 445.354 219.743 445.823 216.839 445.682C213.962 445.542 210.842 444.094 207.591 443.986C204.651 443.887 201.805 445.195 199.229 445.125C196.23 445.04 193.632 444.581 192.022 444.337C191.51 444.262 191.303 444.689 191.546 444.933C192.548 445.936 193.483 446.91 194.347 447.843C195.916 449.535 195.556 452.038 196.729 453.449C198.667 455.783 201.828 456.758 202.947 458.113C203.72 459.05 204.332 459.72 204.844 460.091C206.449 461.253 208.549 462.804 210.801 464.435C212.199 465.448 214.623 465.663 216.066 466.662C217.972 467.979 218.885 470.046 220.548 471.04C221.326 471.499 222.059 471.907 222.728 472.244C224.963 473.369 227.579 474.358 230.371 475.3C232.228 475.928 233.622 477.873 235.577 478.483C237.439 479.059 239.862 478.305 241.71 478.914C245.072 480.02 248.323 481.22 251.137 482.631C252.549 483.338 253.008 484.82 254.163 485.654C255.228 486.427 257.013 486.549 257.791 487.454C258.753 488.574 259.472 489.807 259.891 491.175C260.016 491.583 259.747 491.892 259.562 491.555C258.821 490.191 257.989 489.043 257.108 488.072C256.298 487.172 254.599 487.14 253.74 486.516C252.356 485.509 251.807 484.112 250.553 483.62C249.878 483.357 249.24 483.151 248.669 482.982C248.148 482.828 247.914 483.296 248.228 483.69C249.218 484.918 250.207 486.413 251.11 488.082C251.839 489.427 251.277 491.372 251.861 492.895C252.428 494.376 254.154 495.426 254.509 496.987C254.864 498.543 255.098 500.113 255.17 501.66C255.188 502.11 254.743 502.213 254.653 501.796C254.401 500.634 254.073 499.021 253.587 497.193C253.237 495.872 251.555 494.925 251.007 493.462C250.467 492.028 251.056 490.078 250.265 488.682C248.826 486.141 246.929 483.802 244.394 482.148C244.16 481.993 242.959 481.614 241.265 481.121C239.624 480.643 236.976 481.403 234.84 480.826C232.857 480.297 231.387 478.422 229.688 477.981C228.775 477.747 227.948 477.536 227.269 477.362C226.757 477.236 226.523 477.728 226.779 478.07C227.597 479.153 228.389 480.259 229.139 481.389C230.29 483.132 229.755 485.227 230.641 487.154C231.814 489.699 233.748 490.88 234.413 492.788C234.692 493.589 235.029 494.475 235.514 495.553C236.481 497.709 237.627 499.518 238.823 501.06C239.543 501.993 240.793 502.312 241.521 503.071C242.303 503.891 242.564 505.138 243.288 505.808C244.115 506.572 244.875 507.257 245.527 507.899C245.774 508.142 245.549 508.358 245.239 508.199C244.443 507.791 243.548 507.177 242.618 506.413C241.898 505.818 241.66 504.613 240.914 503.873C240.118 503.076 238.819 502.729 238.064 501.834C237.191 500.798 236.369 499.72 235.64 498.651C235.425 498.337 235.06 498.571 235.128 499.087C235.258 500.062 235.487 501.243 235.712 502.687C235.897 503.905 235.438 505.696 235.676 507.013C235.879 508.152 236.971 509.216 237.187 510.327C237.412 511.47 237.056 512.876 237.268 513.889C237.843 516.649 238.59 518.384 238.711 518.773C238.823 519.143 238.414 519.218 238.279 518.866C237.812 517.648 237.048 516.242 236.553 514.226C236.297 513.176 236.62 511.761 236.369 510.617C236.112 509.459 234.993 508.358 234.755 507.182C234.485 505.865 234.912 504.079 234.678 502.86C234.017 499.429 233.392 496.978 233.222 496.204C233.042 495.417 232.826 494.63 232.583 493.852C231.949 491.841 229.526 490.172 228.577 488.325C227.588 486.408 228.069 484.318 226.941 482.696C224.684 479.458 222.333 476.922 220.683 475.563C220.148 475.127 219.59 474.681 219.019 474.236C217.302 472.9 216.412 470.721 214.578 469.455C212.91 468.302 210.293 468.054 208.792 467.131C208.391 466.887 208.005 466.652 207.632 466.432C207.33 466.254 206.912 466.615 206.989 466.999C207.088 467.496 207.178 468.026 207.259 468.588C207.506 470.257 206.359 472.253 206.481 474.11C206.638 476.608 208.014 478.928 207.969 480.54C207.852 484.88 208.248 489.155 208.873 492.98C209.156 494.714 210.932 496.054 211.282 497.568C211.903 500.268 211.138 502.869 211.732 504.566C212.339 506.296 212.847 507.397 213.099 507.655C214.892 509.516 216.659 511.63 218.282 513.823C219.204 515.075 221.088 515.632 221.901 516.907C222.949 518.552 222.881 520.915 223.659 522.48C224.734 524.632 225.511 526.638 225.876 528.325C225.997 528.906 225.448 529.244 225.183 528.681C224.338 526.877 223.488 525.18 222.616 523.577C221.685 521.857 221.73 519.518 220.732 517.995C219.842 516.631 217.909 516.064 216.938 514.836C216.178 513.87 215.387 512.947 214.56 512.056C214.155 511.616 213.553 511.784 213.652 512.337C213.93 513.828 214.124 515.515 214.218 517.343C214.317 519.213 213.067 521.144 212.928 523.254C212.806 525.044 213.836 526.984 213.521 528.864C213.049 531.648 212.348 534.498 211.363 537.301C211.233 537.671 210.801 537.544 210.86 537.212C211.399 534.034 211.799 531.245 212.078 528.78C212.307 526.736 211.219 524.828 211.296 523.193C211.404 520.887 212.609 519.04 212.469 517.362C212.145 513.551 211.255 511.062 210.176 508.63C209.889 507.992 209.502 506.811 209.066 505.311C208.553 503.54 209.43 501.013 208.89 498.712C208.463 496.889 206.611 495.319 206.278 493.57C205.991 492.038 205.752 490.599 205.604 489.38C205.519 488.696 205.123 488.743 204.903 489.427C204.682 490.102 204.422 490.838 204.138 491.625C203.496 493.411 203.99 496.247 203.253 498.487C202.533 500.69 200.582 502.298 200.074 504.801C199.679 506.713 200.385 509.136 200.268 511.161C200.209 512.178 199.261 513.486 199.297 514.522C199.404 517.596 199.908 520.005 201.149 523.085C201.293 523.45 200.789 523.441 200.627 523.132C199.049 520.198 197.903 517.371 197.741 514.545C197.642 512.801 198.622 512.131 198.609 510.95C198.586 508.714 197.696 506.525 198.114 504.327C198.564 501.946 200.474 500.352 201.198 497.976C201.864 495.778 201.333 492.788 202.03 490.557C202.862 487.871 203.639 485.152 204.192 482.368C204.291 481.871 204.368 481.14 204.413 480.24C204.494 478.609 203.158 476.523 203.015 474.25C202.902 472.432 204.031 470.463 203.738 468.748C203.37 466.601 202.853 464.707 202.147 463.521C201.895 463.1 201.198 462.12 200.142 460.826C198.977 459.392 195.686 458.506 193.902 456.571C192.463 455.014 192.602 452.446 191.002 450.904C188.241 448.237 185.4 445.814 183.026 444.412C182.114 443.878 181.219 443.348 180.338 442.833C177.582 441.22 176.098 438.019 173.599 436.561C170.582 434.808 166.594 434.822 163.802 433.159C163.492 432.976 163.182 432.793 162.876 432.61C162.454 432.357 161.761 432.755 161.829 433.294C161.874 433.679 161.919 434.091 161.959 434.522C162.099 435.966 161.19 437.724 161.289 439.378C161.433 441.717 162.58 443.944 162.723 445.546C162.782 446.189 162.84 446.718 162.908 447.089C163.299 449.221 164.122 452.502 165.043 455.727C165.488 457.288 166.644 458.473 167.098 459.87C167.565 461.304 167.336 462.94 167.732 463.901C168.105 464.815 168.429 465.448 168.662 465.673C170.155 467.098 172.335 468.71 174.754 470.383C176.404 471.527 179.012 471.564 180.742 472.727C182.5 473.903 183.386 476.205 184.928 477.32C187.261 479.003 189.181 480.568 190.184 481.871C190.633 482.457 190.206 483.128 189.577 482.598C188.237 481.473 186.371 480.114 184.303 478.698C182.662 477.573 181.736 475.281 180.001 474.175C178.139 472.989 175.473 473.003 173.877 472.057C172.933 471.494 172.07 470.993 171.333 470.576C170.676 470.205 170.025 470.496 170.258 471.204C170.546 472.075 170.892 473.219 171.27 474.517C171.751 476.167 171.198 478.394 171.724 480.282C172.326 482.434 174.008 484.243 174.52 486.005C175.136 488.119 175.631 489.689 175.878 490.097C176.539 491.194 177.542 492.427 178.688 493.678C179.673 494.747 181.336 495.576 182.401 496.593C183.737 497.868 184.469 499.298 185.503 500.226C186.313 500.952 186.951 501.529 187.306 501.881C187.751 502.326 187.18 502.86 186.726 502.405C186.326 502.012 185.71 501.482 184.964 500.854C183.903 499.959 183.139 498.614 181.772 497.414C180.145 495.989 178.09 494.583 176.611 493.078C176.256 492.717 175.779 492.914 175.829 493.397C175.865 493.809 175.901 494.226 175.928 494.653C175.999 495.708 175.469 496.964 175.455 498.037C175.442 499.214 175.932 500.207 175.806 501.271C175.653 502.499 175.42 503.605 175.096 504.477C174.916 504.96 174.345 505.072 174.448 504.543C174.646 503.521 174.781 502.424 174.858 501.304C174.938 500.17 174.403 499.176 174.376 498.032C174.354 496.954 174.844 495.726 174.741 494.723C174.579 493.125 174.323 491.672 174.008 490.528C173.671 489.305 173.28 488.04 172.848 486.741C172.25 484.932 170.488 483.395 169.755 481.487C169.036 479.598 169.53 476.603 168.739 474.667C167.35 471.269 165.713 468.579 164.351 465.256C163.825 463.976 164 462.35 163.51 461.108C162.989 459.781 161.806 458.844 161.348 457.583C161.15 457.049 160.966 456.524 160.781 456.003C160.592 455.46 159.779 455.521 159.558 456.074C158.677 458.295 157.908 460.447 157.243 462.528C156.236 465.687 157.351 468.715 156.785 471.564C156.196 474.541 153.943 477.32 153.759 479.973C153.512 483.573 154.379 486.423 154.725 489.446C154.865 490.674 154.271 492.319 154.487 493.458C155.036 496.322 155.804 498.895 156.699 501.187C157.625 503.563 159.711 504.866 160.799 506.652C162.206 508.953 162.634 511.541 163.892 512.9C165.605 514.756 166.963 515.754 167.354 515.965C170.191 517.484 172.655 518.927 174.795 520.277C176.472 521.332 177.586 523.329 178.895 524.266C181.295 525.986 183.48 526.488 184.874 527.73C187.158 529.764 188.304 531.1 188.979 531.536C190.089 532.257 191.555 533.71 193.052 535.356C193.951 536.34 195.246 536.996 196.105 537.999C196.882 538.908 197.233 540.174 197.876 540.914C198.726 541.899 199.413 542.658 199.818 542.986C200.124 543.235 199.679 543.764 199.332 543.46C198.896 543.085 198.231 542.377 197.435 541.51C196.738 540.75 196.32 539.461 195.493 538.566C194.63 537.638 193.353 537.095 192.494 536.26C191.941 535.721 191.402 535.229 190.898 534.817C190.539 534.517 190.152 534.788 190.274 535.163C190.44 535.67 190.588 536.181 190.723 536.701C191.006 537.788 190.696 539.072 190.943 540.193C191.177 541.233 191.964 542.11 192.279 543.15C192.562 544.097 192.899 545.034 193.335 545.953C193.501 546.305 193.083 546.473 192.85 546.173C192.184 545.33 191.712 544.434 191.344 543.488C190.952 542.499 190.134 541.618 189.864 540.497C189.604 539.419 189.891 538.107 189.55 536.888C189.199 535.651 188.754 534.339 188.12 532.937C187.999 532.67 186.241 531.09 183.737 529.117C182.1 527.823 179.785 527.359 177.766 525.991C176.256 524.964 175.073 522.986 173.594 522.166C172.659 521.651 171.755 521.196 170.906 520.83C170.479 520.648 169.926 521.173 170.047 521.571C170.29 522.372 170.51 523.146 170.717 523.896C171.283 525.925 170.811 527.955 171.158 529.6C171.693 532.126 172.924 534.006 173.127 535.623C173.459 538.238 173.495 539.677 173.684 539.968C174.093 540.596 174.579 541.28 175.087 541.983C175.545 542.625 176.472 543.014 176.93 543.67C177.519 544.509 177.631 545.611 178.068 546.375C178.481 547.092 178.791 547.753 178.935 548.306C179.07 548.836 178.531 549.056 178.355 548.625C178.153 548.119 177.847 547.579 177.474 547.008C176.993 546.272 176.845 545.213 176.224 544.406C175.716 543.741 174.745 543.333 174.246 542.649C174.017 542.335 173.792 542.021 173.576 541.707C173.36 541.388 172.812 541.51 172.722 541.936C172.574 542.616 172.398 543.371 172.21 544.163C171.994 545.044 171.207 546.014 170.978 546.937C170.667 548.189 170.924 549.389 170.681 550.49C170.357 551.938 170.141 553.143 170.141 553.823C170.141 554.366 169.517 554.259 169.521 553.855C169.535 553.021 169.692 551.807 169.948 550.326C170.132 549.253 169.804 548.086 170.065 546.778C170.245 545.878 170.996 544.894 171.198 543.914C171.445 542.696 171.706 541.421 171.967 540.122C172.039 539.766 171.881 538.191 171.495 535.965C171.193 534.212 169.836 532.253 169.242 529.975C168.766 528.137 169.107 526.028 168.442 524.177C167.858 522.546 167.197 520.966 166.464 519.537C166.037 518.707 164.248 517.151 161.995 514.742C160.61 513.261 160.071 510.692 158.547 508.536C157.311 506.793 155.072 505.579 153.988 503.352C153.714 502.79 153.449 502.209 153.192 501.609C152.981 501.121 152.149 501.29 151.952 501.881C151.052 504.538 150.405 507.205 149.955 509.816C149.393 513.092 150.711 516.649 150.67 519.602C150.603 524.374 149.515 528.17 150.09 531.189C150.504 533.345 150.963 534.91 151.318 535.684C151.965 537.113 152.891 538.782 153.93 540.488C154.663 541.702 156.178 542.592 156.96 543.774C157.877 545.156 158.066 546.815 158.875 547.954C159.941 549.454 160.831 550.654 161.334 551.296C161.649 551.695 161.038 552.088 160.637 551.554C160.138 550.893 159.316 549.853 158.327 548.606C157.45 547.5 157.167 545.887 156.137 544.575C155.207 543.394 153.539 542.513 152.662 541.346C151.776 540.174 150.958 539.049 150.284 538.069C150.284 539.438 150.149 541.102 149.946 542.86C149.803 544.088 148.944 545.344 148.76 546.595C148.508 548.311 148.917 550.012 148.683 551.479C148.409 553.195 148.189 554.624 148.112 555.496C148.063 556.03 147.388 556.068 147.42 555.562C147.46 554.807 147.613 553.27 147.797 551.357C147.932 549.942 147.406 548.297 147.55 546.628C147.667 545.311 148.463 543.98 148.548 542.686C148.724 540.136 148.823 537.788 148.728 536.232C148.706 535.829 148.184 534.193 147.649 531.517C147.065 528.587 148.031 524.782 148.054 519.602C148.067 516.593 146.723 512.867 147.285 509.225C147.91 505.143 148.962 500.699 150.612 495.961C150.693 495.736 150.598 495.08 150.45 493.997C150.315 493.031 150.909 491.264 150.765 489.624C150.531 486.999 149.609 483.981 149.888 479.687C150.059 477.011 152.275 474.044 152.86 470.744C153.363 467.866 152.172 464.726 153.102 461.384C154.253 457.245 155.768 452.746 157.751 447.909C157.886 447.581 157.904 446.85 157.837 445.846C157.729 444.3 156.393 442.186 155.989 439.786C155.715 438.16 156.42 436.35 156.097 434.673C155.359 430.881 154.582 427.328 154.163 425.645C154.002 424.989 153.044 423.93 152.356 422.678C151.061 420.316 150.954 416.327 148.894 412.507C147.735 410.361 144.839 409.029 143.796 406.639C143.001 404.806 142.542 402.702 141.944 400.818C141.737 402.425 141.283 404.117 140.672 405.824C139.786 408.289 136.652 410.515 135.362 412.873C133.51 416.266 133.416 419.641 132.026 421.914C131.195 423.273 130.583 424.337 130.358 424.994C129.338 427.923 128.699 431.523 128.322 435.244C128.146 437.035 129.266 439.2 129.198 440.991C129.113 443.301 127.868 445.214 127.922 447.299C128.048 452.118 128.479 455.994 128.902 457.335C129.491 459.214 130.003 461.019 130.444 462.753C131.302 466.095 130.179 469.704 130.597 472.493C131.127 476.05 133.092 478.619 133.173 481.271C133.357 487.144 132.795 490.777 133.087 492.145C134.13 497.034 134.832 501.548 135.29 505.644C135.708 509.413 134.297 513.181 134.373 516.228C134.468 520.043 135.969 522.911 135.789 525.494C135.488 529.722 135.012 532.225 134.998 532.773C134.962 534.146 135.052 537.151 135.182 540.544C135.241 541.96 136.261 543.216 136.324 544.678C136.396 546.286 135.515 548.09 135.587 549.515C135.744 552.712 135.879 555.159 135.906 555.487C135.92 555.712 135.569 555.772 135.551 555.562C135.488 554.919 135.268 552.543 135.007 549.6C134.877 548.175 135.695 546.389 135.56 544.828C135.43 543.3 134.342 542.007 134.225 540.596C134.135 539.504 134.049 538.477 133.982 537.582C133.892 536.424 133.222 536.326 132.809 537.315C132.534 537.98 132.22 538.716 131.887 539.494C131.276 540.91 129.302 541.871 128.614 543.441C127.886 545.091 128.448 547.355 127.787 548.864C126.483 551.831 125.454 554.207 125.292 554.76C125.229 554.98 124.847 554.934 124.91 554.709C125.404 552.881 126.195 550.832 127.148 548.484C127.76 546.975 127.144 544.744 127.854 542.963C128.407 541.58 130.268 540.708 130.844 539.138C131.608 537.048 132.373 534.779 133.11 532.304C133.258 531.803 133.519 529.211 133.685 525.531C133.807 522.808 132.251 519.841 132.179 516.345C132.107 513.022 133.528 509.183 133.123 505.883C132.818 503.357 132.39 500.943 131.811 498.796C131.613 498.075 130.803 498.225 130.606 498.923C130.484 499.368 130.354 499.795 130.224 500.217C129.473 502.621 127.261 503.929 126.375 505.672C124.869 508.649 124.631 511.48 123.3 512.951C121.785 514.629 120.621 515.506 120.324 515.979C118.795 518.421 117.501 521.013 116.422 523.554C115.725 525.194 116.502 527.392 115.985 528.939C115.482 530.429 113.675 531.278 113.328 532.581C112.312 536.41 111.953 539.222 112.133 539.808C112.757 541.805 113.283 543.68 113.724 545.395C113.989 546.426 114.996 547.097 115.203 548.006C115.486 549.239 114.951 550.654 115.145 551.61C115.576 553.762 115.797 555.163 115.905 555.562C116.017 555.974 115.365 556.143 115.262 555.698C115.086 554.966 114.803 553.607 114.434 551.976C114.201 550.931 114.7 549.464 114.403 548.283C114.16 547.317 113.131 546.642 112.856 545.7C112.582 544.763 112.299 543.863 112.002 543.047C111.759 542.372 110.847 542.311 110.564 542.939C110.361 543.375 110.141 543.83 109.912 544.289C109.561 544.983 108.729 545.288 108.361 545.967C108.001 546.637 108.104 547.683 107.785 548.254C107.318 549.098 106.931 549.782 106.733 550.171C106.508 550.603 105.874 550.495 106.081 550.017C106.288 549.543 106.67 548.779 107.129 547.861C107.452 547.209 107.354 546.07 107.709 545.302C108.005 544.669 108.761 544.416 109.035 543.755C109.422 542.827 109.763 541.903 109.997 541.055C110.478 539.33 110.806 535.984 111.562 532.032C111.845 530.542 113.576 529.53 114.012 527.917C114.385 526.544 113.441 524.58 113.967 523.193C114.421 521.997 114.942 520.802 115.536 519.644C115.877 518.984 115.464 518.299 114.691 518.754C114.246 519.016 113.765 519.307 113.256 519.621C111.422 520.76 107.493 520.83 105.295 522.33C102.548 524.21 101.536 527.556 99.5669 529.042C97.9259 530.279 96.82 531.198 96.6851 531.475C95.9388 533.003 95.4578 535.196 95.0037 538.285C94.8598 539.246 95.9433 540.216 95.8039 541.36C95.6466 542.588 94.2664 543.999 94.0955 545.452C94.0011 546.225 93.9067 547.036 93.8033 547.879C93.7404 548.395 93.039 548.362 93.0705 547.8C93.102 547.237 93.1424 546.37 93.2009 545.32C93.2593 544.181 94.5631 542.756 94.68 541.332C94.7654 540.268 93.646 539.236 93.7763 538.154C93.9022 537.071 94.0506 536.012 94.2304 535.032C94.3608 534.324 93.7674 533.771 93.3313 534.132C92.8817 534.503 92.4456 534.873 92.014 535.243C91.2227 535.932 89.7706 536.002 89.0603 536.659C88.1162 537.526 87.9453 538.96 87.1945 539.668C86.2999 540.511 85.558 541.196 85.032 541.618C84.569 541.988 83.9531 541.528 84.3892 541.055C85.1175 540.254 85.8728 539.443 86.664 538.608C87.3653 537.873 87.4014 536.504 88.1611 535.735C88.9209 534.971 90.4 534.807 91.2272 534.01C93.3223 531.995 95.6645 529.872 98.3485 527.603C100.574 525.728 101.311 522.368 104.058 520.287C106 518.82 109.808 518.684 112.052 517.104C114.066 515.684 116.21 514.217 118.499 512.703C118.894 512.44 119.64 511.662 120.562 510.411C121.587 509.019 122.023 506.16 123.242 503.657C124.114 501.871 126.038 500.784 126.793 498.487C127.481 496.401 128.349 494.025 128.803 491.56C129.356 488.536 129.163 485.237 129.145 481.693C129.127 478.9 127.166 476.491 126.654 473.407C126.186 470.604 127.216 467.145 126.245 464.131C125.782 462.692 125.256 461.229 124.662 459.744C124.352 458.975 122.738 458.609 122.059 459.542C121.893 459.772 121.718 460.016 121.542 460.264C120.702 461.436 118.971 461.829 118.094 463.128C117.289 464.318 117.334 466.423 116.768 467.332C116.413 467.909 116.129 468.396 115.949 468.738C115.545 469.526 114.412 471.738 113.324 474.892C112.901 476.12 113.535 477.189 113.167 478.67C112.897 479.767 111.602 481.225 111.409 482.438C111.265 483.32 111.148 484.224 111.063 485.157C110.973 486.146 111.022 488.077 111.135 490.294C111.193 491.461 111.908 492.45 111.989 493.683C112.07 494.859 111.508 496.279 111.589 497.348C111.764 499.79 111.912 501.726 111.912 502.162C111.912 502.504 111.436 502.504 111.404 502.223C111.292 501.351 111.004 499.617 110.676 497.582C110.505 496.509 110.959 495.094 110.788 493.936C110.6 492.68 109.781 491.677 109.642 490.528C109.547 489.741 109.476 489.01 109.426 488.358C109.372 487.636 108.626 487.486 108.208 487.932C107.363 488.846 106.414 489.722 105.456 490.669C104.418 491.695 104.081 493.05 103.132 494.376C102.35 495.469 100.92 496.467 100.336 497.934C99.8231 499.223 99.4095 500.69 99.1443 502.377C99.0903 502.701 98.6947 502.527 98.7127 502.223C98.8341 500.371 99.1398 498.806 99.5669 497.451C100.106 495.745 101.563 494.616 102.404 493.416C103.276 492.174 103.537 490.875 104.499 489.839C106.135 488.082 107.74 486.376 108.756 483.877C108.864 483.606 109.053 482.837 109.296 481.768C109.507 480.845 110.815 479.401 111.103 478.164C111.413 476.833 110.712 475.694 111.085 474.32C111.26 473.674 111.44 473.041 111.625 472.436C111.818 471.799 111.368 471.002 110.919 471.175C109.903 471.569 108.806 471.944 107.655 472.347C105.798 472.994 102.723 472.6 100.686 473.528C98.4789 474.536 97.3055 476.898 95.143 478.614C93.2683 480.104 91.461 481.937 89.8065 484.243C89.5008 484.67 88.9658 484.356 89.1951 483.938C90.7012 481.178 92.4546 479.092 94.3608 477.433C96.4828 475.586 97.7146 473.167 100.088 472.019C101.959 471.114 104.948 471.419 106.837 470.557C108.936 469.601 111.004 468.56 112.955 467.205C113.153 467.07 113.625 466.437 114.259 465.495C114.888 464.553 114.888 462.336 115.725 460.948C116.489 459.669 118.085 459.242 118.845 457.874C120.297 455.263 121.565 452.737 122.046 451.265C122.253 450.623 122.369 448.954 122.432 446.793C122.477 445.092 123.732 443.433 123.732 441.38C123.732 439.58 122.482 437.405 122.468 435.708C122.468 435.146 122.464 434.597 122.459 434.068C122.455 433.262 121.286 432.873 120.621 433.388C120.063 433.829 119.47 434.26 118.854 434.682C116.759 436.126 113.279 436.196 110.964 437.405C108.244 438.825 106.711 441.323 104.75 442.205C103.249 442.875 102.138 443.358 101.675 443.587C97.0627 445.907 93.2413 448.673 90.0808 451.668C88.1971 453.454 87.9049 455.788 86.4662 457.695C85.3513 459.177 83.0045 460.208 82.1233 461.717C80.1407 465.12 78.729 468.541 77.7399 471.752C77.0341 474.025 77.695 476.425 77.3668 478.408C76.8318 481.646 75.573 484.154 75.6719 486.029C75.7393 487.393 75.9191 488.297 76.1125 488.611C77.614 490.983 78.9673 493.692 80.1451 496.762C80.9319 498.81 80.4149 501.637 81.0353 504.013C81.6377 506.3 83.3776 508.133 83.8137 510.73C84.4206 514.381 84.8567 518.337 85.104 522.626C85.1175 522.874 84.4162 522.954 84.3892 522.705C83.9576 518.932 83.2742 515 82.4155 511.208C81.8581 508.738 80.0058 506.938 79.3269 504.674C78.6166 502.307 79.0796 499.481 78.2929 497.522C77.6005 495.797 76.8902 494.269 76.1799 492.994C75.6359 492.028 74.4041 492.356 74.3321 493.172C74.2422 494.184 74.1568 495.117 74.0759 495.979C73.905 497.831 72.7002 498.97 72.5653 500.24C72.2551 503.221 73.1048 505.185 72.9924 506.193C72.898 507.036 72.862 507.486 72.88 508.039C72.9924 511.545 73.0778 514.7 73.1273 517.521C73.1587 519.401 74.4265 521.21 74.4175 522.804C74.413 525.03 73.1138 526.905 73.0104 528.597C72.853 531.212 72.5653 533.209 72.1112 534.653C71.9089 535.295 71.0817 535.323 71.1716 534.615C71.338 533.307 71.4368 531.147 71.4818 528.62C71.5178 526.769 72.7721 524.805 72.7586 522.757C72.7451 520.98 71.4683 519.124 71.4233 517.479C71.3784 515.764 71.3244 514.189 71.257 512.895C71.1806 511.47 70.4703 511.817 70.1151 512.858C69.8813 513.547 69.6206 514.25 69.3329 514.953C68.618 516.734 66.6309 517.549 65.6823 519.312C64.7741 520.99 64.909 523.614 63.866 525.114C62.5712 526.97 61.2045 528.634 59.8333 529.961C59.2713 530.504 58.6509 530.181 59.1274 529.605C60.3233 528.166 61.6091 526.403 62.8814 524.416C63.8749 522.86 63.7266 520.169 64.6527 518.393C65.5024 516.757 67.4356 516.045 68.146 514.297C69.0631 512.042 69.8318 509.727 70.3623 507.439C70.4298 507.158 70.5197 506.525 70.6321 505.621C70.794 504.337 69.9398 502.115 70.1646 499.968C70.3129 498.539 71.5223 497.367 71.6841 495.726C71.9809 492.699 72.2956 489.422 72.5878 486.319C72.8845 483.188 74.3051 480.465 74.5254 478.126C74.7232 475.966 73.9905 473.599 74.5569 471.508C74.6693 471.1 74.7862 470.693 74.9121 470.285C75.1773 469.399 74.1568 468.705 73.3071 469.366C69.8858 472.033 66.1453 476.13 62.724 480.409C60.6964 482.945 60.3143 485.804 58.6374 488.204C57.0594 490.467 54.1596 492.295 53.1211 493.992C51.7229 496.279 50.9136 497.85 50.9676 498.173C51.3947 500.713 51.5071 502.977 51.3632 505.068C51.2553 506.633 50.055 508.138 49.6773 509.549C49.2367 511.208 49.5784 512.755 48.8411 514.325C48.2477 515.581 47.5778 516.832 46.8405 518.112C46.5753 518.576 45.9593 518.281 46.1751 517.868C46.89 516.504 47.4969 515.239 48.0049 514.048C48.7197 512.365 48.2836 510.87 48.6163 509.408C48.9535 507.932 50.0595 506.488 50.0595 505.068C50.0595 504.257 50.01 503.441 49.9111 502.607C49.8122 501.759 48.7512 501.327 48.2522 502.096C48.0004 502.48 47.7307 502.874 47.4474 503.277C46.5483 504.552 45.0872 505.297 44.1026 506.516C43.2394 507.58 42.8438 509.15 42.1739 509.919C41.7198 510.444 41.3377 510.875 41.0725 511.17C40.6768 511.606 39.98 510.955 40.425 510.477C40.7802 510.097 41.1354 509.694 41.486 509.272C42.2368 508.372 42.547 506.793 43.2798 505.729C44.17 504.444 45.4783 503.643 46.355 502.176C48.0454 499.359 49.7358 496.27 51.4756 493.13C52.6445 491.025 55.3735 489.155 56.6098 487.074C58.2912 484.229 58.5205 481.21 60.3998 478.703C60.9977 477.911 61.6046 477.142 62.225 476.402C62.6296 475.923 62.0182 475.319 61.0831 475.53C60.7414 475.605 60.3907 475.689 60.0221 475.773C58.017 476.233 55.8635 477.723 53.6561 478.272C51.5791 478.792 49.4345 478.379 48.1038 478.783C47.2046 479.059 46.5797 479.284 46.3639 479.429C43.6979 481.262 41.3827 484.102 39.382 487.177C38.1637 489.047 38.2131 491.213 37.224 493.073C36.0057 495.356 33.7938 497.282 32.8856 498.96C32.2922 500.053 31.7617 500.952 31.2897 501.557C30.876 502.087 30.3051 501.73 30.6153 501.135C30.9794 500.437 31.447 499.406 32.009 498.168C32.7732 496.476 34.8593 494.611 35.9383 492.431C36.8779 490.528 36.7745 488.34 37.9164 486.488C38.856 484.965 39.8585 483.526 40.9106 482.279C41.4725 481.614 40.9555 480.957 40.1014 481.304C39.5933 481.515 39.0808 481.745 38.5728 481.993C36.5452 482.982 35.0885 485.091 33.2138 486.408C31.2357 487.805 28.8574 488.41 27.3648 489.614C26.1644 490.58 25.1754 491.396 24.4786 491.902C24.0155 492.239 23.494 491.916 23.8132 491.555C24.7258 490.547 25.6609 489.6 26.614 488.71C28.3134 487.126 30.6288 486.563 32.4091 485.321C34.4052 483.934 35.8753 481.914 37.9029 480.887C41.2792 479.181 44.6376 477.92 47.7981 476.945C49.5874 476.392 51.5251 476.852 53.1526 476.444C55.5353 475.853 57.491 474.456 59.3477 474.016C61.7889 473.435 63.6862 472.9 64.7876 472.193C65.2687 471.883 65.8981 471.457 66.5499 470.95C67.004 470.594 66.6399 469.915 66.0419 469.971C65.0798 470.06 64.1762 470.13 63.3265 470.172C61.7305 470.261 60.4222 469.165 59.1589 469.118C57.2168 469.043 55.5218 469.943 54.1776 469.647C52.105 469.188 50.617 468.518 49.3222 467.829C48.931 467.618 48.976 467.046 49.457 467.224C50.9901 467.796 52.7075 468.204 54.5013 468.48C56.0524 468.715 57.7697 467.744 59.3612 467.796C60.7459 467.843 62.0047 468.94 63.3085 468.879C65.8666 468.757 68.1774 468.452 69.8678 468.059C70.4343 467.927 75.6718 465.574 77.4387 462.87C77.6365 462.57 78.1445 461.319 79.0841 459.542C79.8215 458.145 82.1728 456.899 83.4945 455.057C84.8208 453.21 85.113 450.763 87.1451 448.87C88.287 447.796 89.5548 446.751 90.953 445.767C91.7263 445.218 91.4565 444.333 90.5124 444.384C88.3769 444.497 86.3223 444.548 84.3667 444.548C81.0758 444.553 78.0771 442.861 75.3886 442.664C71.6572 442.387 68.5416 443.559 66.2218 443.255C63.5782 442.912 61.9463 442.687 61.5282 442.88C57.2168 444.886 53.3414 446.849 49.8572 448.87C45.8874 451.166 43.9947 454.152 40.9511 456.73C39.1213 458.281 35.8708 459.294 34.3288 461.028C31.1233 464.632 28.5113 468.701 26.3398 473.5C26.1195 473.983 25.4047 473.697 25.5575 473.121C26.8074 468.396 29.0058 464.004 32.7642 459.678C34.2793 457.934 37.6242 456.819 39.6787 455.085C42.583 452.638 44.4847 449.563 48.6568 447.046C50.572 445.893 52.6266 444.726 54.8385 443.545C55.5983 443.137 55.5848 442.003 54.4159 441.82C54.0697 441.769 53.7055 441.712 53.3324 441.661C51.7049 441.422 49.6144 440.32 47.8521 440.119C45.9324 439.899 44.3543 440.588 43.109 440.517C42.3717 440.48 41.8322 440.475 41.576 440.517C39.3011 440.911 35.3403 443.409 31.0514 446.953C28.9159 448.72 27.8414 452.01 25.7149 454.171C23.6109 456.303 20.4503 457.297 18.679 459.561C16.1209 462.837 14.0843 466.118 13.0638 469.024C12.8435 469.643 12.0028 469.347 12.1152 468.593C12.6187 465.139 14.5699 461.436 17.2314 457.855C18.9667 455.525 22.1452 454.508 24.2762 452.385C26.5061 450.159 27.6975 446.84 29.9049 445.078C31.8291 443.54 33.6544 442.219 35.228 441.197C35.9922 440.7 35.9158 439.899 35.0706 439.88C34.2343 439.861 33.3127 439.842 32.3147 439.852C29.1271 439.875 25.5485 441.787 21.3135 443.086C18.8229 443.85 15.8691 443.344 13.2571 444.965C10.4068 446.737 7.54297 449.104 4.78256 452.277C4.45887 452.647 3.73508 452.104 4.03181 451.616C6.32015 447.834 9.04007 444.928 12.1062 442.715C14.5384 440.963 17.5506 441.272 20.3874 440.311C24.1189 439.041 27.8054 436.763 32.0629 436.514C35.709 436.299 39.5169 436.383 43.4237 436.641C45.1906 436.754 46.7596 436.041 48.5669 436.215C50.2843 436.383 52.2399 437.428 53.9843 437.625C58.2777 438.108 62.6297 438.652 66.9636 439.111C69.9308 439.425 72.907 438.136 75.8337 438.314C78.8144 438.497 81.7456 440.142 84.6409 440.086C90.6877 439.964 96.5008 439.21 101.869 437.344C102.273 437.203 102.705 437.049 103.155 436.88C105.169 436.121 106.472 433.787 109.013 432.381C111.045 431.26 114.268 431.195 116.368 429.573C119.537 427.126 122.644 424.061 125.283 420.25C125.705 419.641 126.321 418.788 127.05 417.738C128.461 415.709 128.38 412.667 130.057 409.475C131.15 407.394 134.09 405.406 134.89 403.049C135.807 400.34 136.423 397.509 136.504 394.678C136.554 392.803 136.81 381.704 136.814 376.131C136.819 374.865 135.551 374.851 134.904 375.672C133.586 377.35 131.334 378.292 129.855 380.049C128.65 381.484 128.241 383.766 126.955 384.947C124.154 387.52 121.205 390.066 118.346 392.718C116.88 394.078 116.475 396.238 115.086 397.673C113.432 399.383 110.82 400.387 109.377 402.257C109.021 402.721 108.675 403.185 108.338 403.658C106.391 406.377 105.443 409.883 104.544 413.29C104.112 414.912 104.742 416.632 104.234 418.118C103.654 419.805 101.019 421.244 99.8861 422.903C97.6966 426.119 95.6061 429.179 94.5721 430.51C94.3923 430.745 93.6684 430.374 93.8033 430.112C94.5541 428.659 96.3794 425.345 98.3485 422.069C99.2926 420.494 101.77 419.205 102.278 417.719C102.952 415.737 102.237 414.27 102.557 412.849C102.826 411.659 103.087 410.417 103.537 408.711C103.797 407.722 102.858 407.3 101.981 407.989C101.055 408.715 100.075 409.395 99.0858 410.033C97.5752 411.003 95.5162 410.942 94.109 411.715C92.5085 412.592 91.5959 414.284 90.5304 414.931C88.84 415.957 86.2234 417.157 85.1984 417.485C84.8837 417.583 84.1239 417.091 84.3892 416.885C85.4367 416.079 87.3294 414.954 89.6043 413.585C90.8811 412.817 91.7532 411.04 93.1919 410.131C94.5676 409.264 96.5008 409.278 97.8765 408.308C100.484 406.466 102.966 404.46 104.818 402.379C105.551 401.554 106.36 400.668 107.219 399.74C108.608 398.245 111.166 397.42 112.713 395.817C114.088 394.392 114.443 392.184 115.788 390.806C116.498 390.08 117.19 389.363 117.86 388.674C118.714 387.792 118.368 387.038 116.921 387.586C116.457 387.76 115.967 387.938 115.455 388.125C113.117 388.969 109.916 389.011 107.142 389.897C104.827 390.637 102.93 392.25 100.961 392.822C98.5014 393.539 96.5367 394.059 95.6555 394.2C93.2683 394.584 89.5503 396.206 86.156 397.935C84.4566 398.802 83.9846 400.087 82.6538 400.874C80.9859 401.858 78.6346 402.275 78.2974 402.627C75.5999 405.453 73.5993 408.083 71.6796 411.246C70.794 412.709 71.4144 415.08 70.5017 416.838C69.6565 418.479 67.2827 419.482 66.3117 421.502C65.0933 424.028 63.7446 426.897 62.1666 430.224C62.0632 430.445 61.3664 430.332 61.4698 430.112C62.2925 428.303 63.5333 424.928 65.1653 421.01C65.9116 419.229 68.2269 418.127 69.1305 416.215C69.9308 414.532 69.3014 412.043 70.223 410.403C70.8884 409.212 71.5897 408.045 72.327 406.934Z" fill="currentColor"/>
</svg>
